<?xml version="1.0" encoding="UTF-8" standalone="no"?>
<svg
   xmlns:dc="http://purl.org/dc/elements/1.1/"
   xmlns:cc="http://creativecommons.org/ns#"
   xmlns:rdf="http://www.w3.org/1999/02/22-rdf-syntax-ns#"
   xmlns:svg="http://www.w3.org/2000/svg"
   xmlns="http://www.w3.org/2000/svg"
   xmlns:xlink="http://www.w3.org/1999/xlink"
   version="1.1"
   width="48"
   height="48"
   id="svg3816"
   viewBox="0 0 48 48">
  <defs
     id="defs3818">
    <linearGradient
       x1="23.99999"
       y1="6.0972042"
       x2="23.99999"
       y2="41.903656"
       id="linearGradient3174-3"
       xlink:href="#linearGradient3977-7-61"
       gradientUnits="userSpaceOnUse"
       gradientTransform="matrix(1.0540541,0,0,0.83783781,-1.2972891,7.8915317)" />
    <linearGradient
       id="linearGradient3977-7-61">
      <stop
         id="stop3979-6-49"
         style="stop-color:#ffffff;stop-opacity:1"
         offset="0" />
      <stop
         id="stop3981-3-78"
         style="stop-color:#ffffff;stop-opacity:0.23529412"
         offset="0" />
      <stop
         id="stop3983-8-86"
         style="stop-color:#ffffff;stop-opacity:0.15686275"
         offset="1" />
      <stop
         id="stop3985-2-07"
         style="stop-color:#ffffff;stop-opacity:0.39215687"
         offset="1" />
    </linearGradient>
    <linearGradient
       x1="25.132275"
       y1="0.98520643"
       x2="25.132275"
       y2="47.013336"
       id="linearGradient3182-6"
       xlink:href="#linearGradient4337"
       gradientUnits="userSpaceOnUse"
       gradientTransform="matrix(1.1714259,0,0,0.7170352,-4.1142227,9.691137)" />
    <linearGradient
       x1="23.968117"
       y1="6.0853882"
       x2="23.999016"
       y2="41.870552"
       id="linearGradient3188-3"
       xlink:href="#linearGradient3977-7-9-0"
       gradientUnits="userSpaceOnUse"
       gradientTransform="matrix(0.99352187,0.26504065,-0.20865372,0.77527588,5.1631595,0.03237029)" />
    <linearGradient
       id="linearGradient3977-7-9-0">
      <stop
         id="stop3979-6-2-7"
         style="stop-color:#ffffff;stop-opacity:1"
         offset="0" />
      <stop
         id="stop3981-3-2-3"
         style="stop-color:#ffffff;stop-opacity:0.23529412"
         offset="0" />
      <stop
         id="stop3983-8-7-2"
         style="stop-color:#ffffff;stop-opacity:0.15686275"
         offset="1" />
      <stop
         id="stop3985-2-7-9"
         style="stop-color:#ffffff;stop-opacity:0.39215687"
         offset="1" />
    </linearGradient>
    <linearGradient
       x1="17.231043"
       y1="-2.1010971"
       x2="26.444973"
       y2="55.173134"
       id="linearGradient3192-0"
       xlink:href="#linearGradient5736"
       gradientUnits="userSpaceOnUse"
       gradientTransform="matrix(1.1062984,0.29511675,-0.17921718,0.66592164,2.0254269,0.91972665)" />
    <linearGradient
       id="linearGradient5071-7-3-2">
      <stop
         id="stop5073-2-9-5"
         style="stop-color:#000000;stop-opacity:1"
         offset="0" />
      <stop
         id="stop5075-2-1-5"
         style="stop-color:#000000;stop-opacity:0"
         offset="1" />
    </linearGradient>
    <radialGradient
       cx="19.53446"
       cy="40.430397"
       r="23.929714"
       fx="19.53446"
       fy="40.430397"
       id="radialGradient3814"
       xlink:href="#linearGradient5071-7-3-2"
       gradientUnits="userSpaceOnUse"
       gradientTransform="matrix(1.0029371,0,0,0.06268357,4.4314404,42.465311)" />
    <linearGradient
       id="linearGradient5736">
      <stop
         id="stop5738"
         style="stop-color:#586e75;stop-opacity:1"
         offset="0" />
      <stop
         id="stop5740"
         style="stop-color:#073642;stop-opacity:1"
         offset="1" />
    </linearGradient>
    <linearGradient
       id="linearGradient4337">
      <stop
         id="stop4339"
         style="stop-color:#fdf6e3;stop-opacity:1"
         offset="0" />
      <stop
         id="stop4341"
         style="stop-color:#eee8d5;stop-opacity:1"
         offset="1" />
    </linearGradient>
  </defs>
  <metadata
     id="metadata3821">
    <rdf:RDF>
      <cc:Work
         rdf:about="">
        <dc:format>image/svg+xml</dc:format>
        <dc:type
           rdf:resource="http://purl.org/dc/dcmitype/StillImage" />
        <dc:title></dc:title>
      </cc:Work>
    </rdf:RDF>
  </metadata>
  <path
     style="display:inline;fill:url(#linearGradient3192-0);fill-opacity:1;stroke:none"
     id="path4160-9-7"
     d="M 8.7642124,4.517888 C 17.637053,6.8848091 47.48418,14.848925 47.48418,14.848925 l -8.247505,30.645689 c 0,0 -25.81369,-6.886082 -38.72053457,-10.329118 C 3.2654984,24.949633 6.0148558,14.733776 8.7642142,4.5179077 Z" />
  <path
     style="opacity:0.2;fill:none;stroke:url(#linearGradient3188-3);stroke-width:1;stroke-linecap:round;stroke-linejoin:miter;stroke-miterlimit:4;stroke-dasharray:none;stroke-dashoffset:0;stroke-opacity:1"
     id="rect6741-1-2-3"
     d="M 38.52005,44.24581 1.7597395,34.439311 9.4799296,5.7541 46.240239,15.56061 Z" />
  <path
     style="color:#000000;clip-rule:nonzero;display:inline;overflow:visible;visibility:visible;opacity:0.5;isolation:auto;mix-blend-mode:normal;color-interpolation:sRGB;color-interpolation-filters:linearRGB;solid-color:#000000;solid-opacity:1;fill:none;fill-opacity:1;fill-rule:nonzero;stroke:#001921;stroke-width:0.99992186;stroke-linecap:butt;stroke-linejoin:round;stroke-miterlimit:4;stroke-dasharray:none;stroke-dashoffset:0;stroke-opacity:1;marker:none;color-rendering:auto;image-rendering:auto;shape-rendering:auto;text-rendering:auto;enable-background:accumulate"
     id="rect6741-1-2-0-1-2"
     d="M 39.247389,45.50005 0.4999597,35.16344 8.7525995,4.4998703 47.50003,14.83647 Z" />
  <path
     style="color:#000000;display:inline;overflow:visible;visibility:visible;opacity:0.2;fill:url(#radialGradient3814);fill-opacity:1;fill-rule:nonzero;stroke:none;stroke-width:0.99992174;marker:none;enable-background:accumulate"
     id="path5050-1"
     d="m 48.023277,44.999631 a 24.000001,1.5 0 0 1 -47.9999959,0 24.000001,1.5 0 1 1 47.9999959,0 z" />
  <path
     style="display:inline;fill:url(#linearGradient3182-6);fill-opacity:1;stroke:none"
     id="path4160-9-1"
     d="m 3.5,11.5 c 9.395181,0 40.999949,0.0021 40.999949,0.0021 L 44.5,44.5 c 0,0 -27.333337,0 -41,0 0,-10.999993 0,-21.999986 0,-32.999969 z" />
  <path
     style="fill:none;stroke:url(#linearGradient3174-3);stroke-width:1;stroke-linecap:round;stroke-linejoin:miter;stroke-miterlimit:4;stroke-dasharray:none;stroke-dashoffset:0;stroke-opacity:1"
     id="rect6741-1-2-1"
     d="M 43.500001,43.499631 H 4.5000009 v -31 H 43.500001 Z" />
  <path
     style="color:#000000;display:inline;overflow:visible;visibility:visible;fill:none;stroke:#aa8e37;stroke-width:0.99992174;stroke-linecap:butt;stroke-linejoin:round;stroke-miterlimit:4;stroke-dasharray:none;stroke-dashoffset:0;stroke-opacity:1;marker:none;enable-background:accumulate;clip-rule:nonzero;opacity:0.5;isolation:auto;mix-blend-mode:normal;color-interpolation:sRGB;color-interpolation-filters:linearRGB;solid-color:#000000;solid-opacity:1;fill-opacity:1;fill-rule:nonzero;filter-blend-mode:normal;filter-gaussianBlur-deviation:0;color-rendering:auto;image-rendering:auto;shape-rendering:auto;text-rendering:auto"
     id="rect6741-1-2-0-3"
     d="M 44.500041,44.499671 H 3.4999609 V 11.499591 H 44.500041 Z" />
  <path
     style="color:#000000;font-style:normal;font-variant:normal;font-weight:600;font-stretch:normal;font-size:19px;line-height:125%;font-family:'Open Sans';-inkscape-font-specification:'Open Sans Semi-Bold';text-align:start;letter-spacing:0px;word-spacing:0px;writing-mode:lr-tb;text-anchor:start;clip-rule:nonzero;display:inline;overflow:visible;visibility:visible;isolation:auto;mix-blend-mode:normal;color-interpolation:sRGB;color-interpolation-filters:linearRGB;solid-color:#000000;solid-opacity:1;fill:url(#linearGradient3192-0);fill-opacity:1;fill-rule:nonzero;stroke:none;stroke-width:1;stroke-linecap:butt;stroke-linejoin:miter;stroke-miterlimit:4;stroke-dasharray:none;stroke-dashoffset:0;stroke-opacity:1;marker:none;color-rendering:auto;image-rendering:auto;shape-rendering:auto;text-rendering:auto;enable-background:accumulate;opacity:1;filter-blend-mode:normal;filter-gaussianBlur-deviation:0"
     d="m 19,20 c -1.445369,1.4e-5 -2.211493,0.214124 -2.9375,0.65625 C 15.343145,21.092426 15,21.786686 15,22.71875 L 15,25.5 c 0,0.555667 -0.2479,0.943915 -0.6875,1.21875 -0.432945,0.268875 -1.413312,0.437506 -2.3125,0.4375 l 0,1.6875 c 1.771732,4e-6 3,0.576183 3,1.6875 l 0,2.53125 c 0,1.021697 0.32727,1.79591 1,2.25 0.679383,0.46006 1.461383,0.675547 3,0.6875 l 0,-1.625 C 18.234018,34.36305 17.839687,34.219692 17.5,33.96875 17.1603,33.717807 17,33.364937 17,32.875 l 0,-2.6875 c 0,-1.20094 -0.599714,-1.909901 -2.125,-2.125 l 0,-0.125 C 16.400286,27.704487 17,26.970251 17,25.78125 L 17,23.125 c 0,-0.489927 0.1603,-0.81752 0.5,-1.0625 0.346348,-0.250932 0.740679,-0.407615 1.5,-0.4375 L 19,20 Z m 10,0 0,1.625 c 0.759321,0.02989 1.153652,0.186568 1.5,0.4375 0.3397,0.24498 0.5,0.572573 0.5,1.0625 l 0,2.65625 c 0,1.189001 0.599714,1.923237 2.125,2.15625 l 0,0.125 C 31.599714,28.277599 31,28.98656 31,30.1875 l 0,2.6875 c 0,0.489937 -0.1603,0.842807 -0.5,1.09375 -0.339687,0.250942 -0.734018,0.3943 -1.5,0.40625 L 29,36 c 1.538617,-0.01195 2.320617,-0.22744 3,-0.6875 0.67273,-0.45409 1,-1.228303 1,-2.25 l 0,-2.53125 c 0,-1.111317 1.228268,-1.687496 3,-1.6875 l 0,-1.6875 c -0.899188,6e-6 -1.879555,-0.168625 -2.3125,-0.4375 C 33.2479,26.443915 33,26.055667 33,25.5 l 0,-2.78125 C 33,21.786686 32.656855,21.092426 31.9375,20.65625 31.211493,20.214124 30.445369,20.000014 29,20 Z"
     id="path3873-9" />
</svg>
