<?xml version="1.0" encoding="UTF-8" standalone="no"?>
<svg
   xmlns:dc="http://purl.org/dc/elements/1.1/"
   xmlns:cc="http://creativecommons.org/ns#"
   xmlns:rdf="http://www.w3.org/1999/02/22-rdf-syntax-ns#"
   xmlns:svg="http://www.w3.org/2000/svg"
   xmlns="http://www.w3.org/2000/svg"
   xmlns:xlink="http://www.w3.org/1999/xlink"
   xmlns:sodipodi="http://sodipodi.sourceforge.net/DTD/sodipodi-0.dtd"
   xmlns:inkscape="http://www.inkscape.org/namespaces/inkscape"
   viewBox="0 0 48 48"
   id="svg3816"
   height="48"
   width="48"
   version="1.1"
   inkscape:version="0.92.3 (2405546, 2018-03-11)"
   sodipodi:docname="io.elementary.code.svg">
  <sodipodi:namedview
     pagecolor="#ffffff"
     bordercolor="#666666"
     borderopacity="1"
     objecttolerance="10"
     gridtolerance="10"
     guidetolerance="10"
     inkscape:pageopacity="0"
     inkscape:pageshadow="2"
     inkscape:window-width="1920"
     inkscape:window-height="1017"
     id="namedview33"
     showgrid="false"
     inkscape:zoom="3.4766084"
     inkscape:cx="42.98472"
     inkscape:cy="13.875885"
     inkscape:window-x="0"
     inkscape:window-y="30"
     inkscape:window-maximized="1"
     inkscape:current-layer="svg3816" />
  <defs
     id="defs3818">
    <linearGradient
       id="linearGradient4161">
      <stop
         id="stop4163"
         style="stop-color:#7239b3;stop-opacity:1"
         offset="0" />
      <stop
         id="stop4165"
         style="stop-color:#452981;stop-opacity:1"
         offset="1" />
    </linearGradient>
    <linearGradient
       gradientTransform="matrix(1.0540541,0,0,0.83783781,3.702711,7.8915317)"
       gradientUnits="userSpaceOnUse"
       xlink:href="#linearGradient3977-7-61"
       id="linearGradient3174-3"
       y2="41.903656"
       x2="23.99999"
       y1="-3.4511831"
       x1="23.99999" />
    <linearGradient
       id="linearGradient3977-7-61">
      <stop
         offset="0"
         style="stop-color:#ffffff;stop-opacity:1"
         id="stop3979-6-49" />
      <stop
         offset="0"
         style="stop-color:#ffffff;stop-opacity:0.23529412"
         id="stop3981-3-78" />
      <stop
         offset="1"
         style="stop-color:#ffffff;stop-opacity:0.15686275"
         id="stop3983-8-86" />
      <stop
         offset="1"
         style="stop-color:#ffffff;stop-opacity:0.39215687"
         id="stop3985-2-07" />
    </linearGradient>
    <linearGradient
       gradientTransform="matrix(0.94285499,0,0,0.89086188,2.371479,1.2526241)"
       gradientUnits="userSpaceOnUse"
       xlink:href="#linearGradient4337"
       id="linearGradient3182-6"
       y2="47.013336"
       x2="25.132275"
       y1="0.98520643"
       x1="25.132275" />
    <linearGradient
       id="linearGradient5071-7-3-2">
      <stop
         offset="0"
         style="stop-color:#000000;stop-opacity:1"
         id="stop5073-2-9-5" />
      <stop
         offset="1"
         style="stop-color:#000000;stop-opacity:0"
         id="stop5075-2-1-5" />
    </linearGradient>
    <radialGradient
       gradientTransform="matrix(0.75220279,0,0,0.06268357,10.306121,42.465311)"
       gradientUnits="userSpaceOnUse"
       xlink:href="#linearGradient5071-7-3-2"
       id="radialGradient3814"
       fy="40.430397"
       fx="19.53446"
       r="23.929714"
       cy="40.430397"
       cx="19.53446" />
    <linearGradient
       id="linearGradient5736">
      <stop
         offset="0"
         style="stop-color:#a56de2;stop-opacity:1"
         id="stop5738" />
      <stop
         offset="1"
         style="stop-color:#452981;stop-opacity:1"
         id="stop5740" />
    </linearGradient>
    <linearGradient
       id="linearGradient4337">
      <stop
         offset="0"
         style="stop-color:#fdf6e3;stop-opacity:1"
         id="stop4339" />
      <stop
         offset="1"
         style="stop-color:#eee8d5;stop-opacity:1"
         id="stop4341" />
    </linearGradient>
    <linearGradient
       y2="55.173134"
       x2="26.444973"
       y1="-2.1010971"
       x1="17.231043"
       gradientTransform="matrix(1.1062984,0.29511675,-0.17921718,0.66592164,3.025427,-3.0802734)"
       gradientUnits="userSpaceOnUse"
       id="linearGradient4514"
       xlink:href="#linearGradient5736" />
    <linearGradient
       y2="47.013336"
       x2="25.132275"
       y1="0.98520643"
       x1="25.132275"
       gradientTransform="matrix(0.93926714,-0.08217523,0.07764373,0.88747188,-0.3744572,2.9513293)"
       gradientUnits="userSpaceOnUse"
       id="linearGradient4522"
       xlink:href="#linearGradient4161" />
    <linearGradient
       y2="41.903656"
       x2="23.99999"
       y1="-3.4511831"
       x1="23.99999"
       gradientTransform="matrix(1.0500431,-0.09186687,0.07302238,0.83464958,1.5673403,9.465259)"
       gradientUnits="userSpaceOnUse"
       id="linearGradient4528"
       xlink:href="#linearGradient3977-7-61" />
  </defs>
  <metadata
     id="metadata3821">
    <rdf:RDF>
      <cc:Work
         rdf:about="">
        <dc:format>image/svg+xml</dc:format>
        <dc:type
           rdf:resource="http://purl.org/dc/dcmitype/StillImage" />
        <dc:title />
      </cc:Work>
    </rdf:RDF>
  </metadata>
  <path
     d="m 42.999998,44.999631 a 18,1.5 0 0 1 -35.999996,0 18,1.5 0 1 1 35.999996,0 z"
     id="path5050-1"
     style="color:#000000;display:inline;overflow:visible;visibility:visible;opacity:0.2;fill:url(#radialGradient3814);fill-opacity:1;fill-rule:nonzero;stroke:none;stroke-width:0.99992168;marker:none;enable-background:accumulate" />
  <path
     style="display:inline;fill:url(#linearGradient4522);fill-opacity:1;stroke:#452981;stroke-width:1;stroke-linejoin:round;stroke-opacity:0.50196078"
     id="path4520"
     d="M 5.9266146,4.6560167 C 13.459814,3.9969472 38.801226,1.7824809 38.801226,1.7824809 l 3.573199,40.8413781 c 0,0 -21.916286,1.917426 -32.874425,2.876139 C 8.3088722,31.885346 7.1177446,18.270695 5.926618,4.6560551 Z" />
  <path
     style="opacity:0.3;fill:none;stroke:url(#linearGradient4528);stroke-width:1;stroke-linecap:round;stroke-linejoin:miter;stroke-miterlimit:4;stroke-dasharray:none;stroke-dashoffset:0;stroke-opacity:1"
     id="path4526"
     d="M 41.328056,41.730764 10.44602,44.432592 7.0469462,5.5809984 37.928982,2.8791704 Z" />
  <path
     d="m 8.5,3.4999993 c 7.561975,0 32.999959,0.00261 32.999959,0.00261 L 41.5,44.499998 c 0,0 -22.000003,0 -33,0 0,-13.666658 0,-27.333315 0,-40.9999602 z"
     id="path4160-9-1"
     style="display:inline;fill:url(#linearGradient3182-6);fill-opacity:1;stroke:#aa8e37;stroke-width:1;stroke-linejoin:round;stroke-opacity:0.50196078" />
  <path
     style="opacity:0.2;fill:none;stroke:#aa8e37;stroke-width:1px;stroke-linecap:butt;stroke-linejoin:miter;stroke-opacity:1"
     id="path3715"
     d="m 13,9.546347 h 2.34797 m 0.335425,0 h 2.180259 m 0.350956,0 h 1.94546 m 0.319893,0 h 0.83856 m 0.335425,0 h 1.878376 m 0.368967,0 h 4.930738 m 0.335426,0 h 3.756752 m 0.335425,0 h 1.140442 M 13,11.5 h 3.640632 m 0.423562,0 h 1.739578 m 0.321577,0 h 0.858449 m 0.349272,0 h 1.602407 m 0.335425,0 h 1.643345 m 0.310211,0 h 2.580441 m 0.335426,0 h 3.404208 M 13,13.480028 h 3.081427 m 0.323704,0 h 5.074837 m 0.311031,0 h 2.461185 m 0.315454,0 h 2.30241 m 0.330181,0 h 1.961321 m 0.315454,0 3.084663,0.01997 m -19.561667,2 h 4.284352 m 0.336433,0 h 4.630578 m 0.319893,0 h 1.81966 m 0.335426,0 h 4.331127 m 0.291512,0 h 2.968536 m 0.335426,0 h 1.174909 m 0.335425,0 h 0.649892 m -21.813169,2 h 1.599235 m 0.491344,0 h 5.921499 m -8.012078,10 h 3.640632 m 0.423562,0 h 1.739577 m 0.321577,0 h 0.85845 m 0.349272,0 h 1.602407 m 0.335425,0 h 1.643345 m 0.310211,0 h 2.580441 M 13,31.480026 h 3.081427 m 0.323704,0 h 5.074837 m 0.311031,0 h 2.461185 m 8.697299,0.06136 h 5.026898 M 13,25.5 h 4.284352 m 0.336433,0 h 4.630578 m 0.319893,0 h 1.81966 m 0.335426,0 h 4.331127 M 13,21.5 h 2.34797 m 0.335425,0 h 2.180259 m 0.350956,0 h 1.94546 m 0.319893,0 h 0.83856 m 0.335425,0 h 1.878376 m 0.368967,0 h 4.930738 m 0.335426,0 h 3.756752 M 13,23.5 h 3.954284 m 0.311043,0 h 4.198951 m 0.319893,0 h 1.641931 m 0.310036,0 h 3.950279 m 0.316902,0 h 4.314197 M 13,33.5 h 3.695207 m 0.396663,0 h 1.629116 m 0.381575,0 h 0.812557 m 0.258655,0 h 1.604035 m 0.212949,0 h 8.492084 m 0.399586,0 h 2.266883 m 0.304807,0 h 0.572374 m -16.81675,2 h 1.20539 M 13,35.5 h 3.856881 m 1.866532,0 h 2.804548 m 0.29667,0 h 4.116902 m 0.319893,0 h 2.792858 m 0.281139,0 h 0.575511 m 0.314681,0 h 3.546443 m 0.362569,0 h 1.85674 m -18.781626,2 H 18.91169 M 13,37.5 h 3.856881 m 2.423647,0 h 2.392767" />
  <path
     d="m 40.500001,43.499631 h -31 v -39 h 31 z"
     id="rect6741-1-2-1"
     style="fill:none;stroke:url(#linearGradient3174-3);stroke-width:1;stroke-linecap:round;stroke-linejoin:miter;stroke-miterlimit:4;stroke-dasharray:none;stroke-dashoffset:0;stroke-opacity:1" />
  <path
     style="color:#000000;font-style:normal;font-variant:normal;font-weight:600;font-stretch:normal;font-size:19px;line-height:125%;font-family:'Open Sans';-inkscape-font-specification:'Open Sans Semi-Bold';text-align:start;letter-spacing:0px;word-spacing:0px;writing-mode:lr-tb;text-anchor:start;clip-rule:nonzero;display:inline;overflow:visible;visibility:visible;opacity:1;isolation:auto;mix-blend-mode:normal;color-interpolation:sRGB;color-interpolation-filters:linearRGB;solid-color:#000000;solid-opacity:1;fill:#fdffff;fill-opacity:1;fill-rule:nonzero;stroke:none;stroke-width:1;stroke-linecap:butt;stroke-linejoin:miter;stroke-miterlimit:4;stroke-dasharray:none;stroke-dashoffset:0;stroke-opacity:1;marker:none;color-rendering:auto;image-rendering:auto;shape-rendering:auto;text-rendering:auto;enable-background:accumulate"
     d="m 22,18 c -1.445369,1.4e-5 -2.211493,0.214124 -2.9375,0.65625 C 18.343145,19.092426 18,19.786686 18,20.71875 V 22.5 c 0,0.555667 -0.2479,0.943915 -0.6875,1.21875 -0.432945,0.268875 -0.413312,0.437506 -1.3125,0.4375 v 1.6875 c 1.771732,4e-6 2,0.576183 2,1.6875 v 1.53125 c 0,1.021697 0.32727,1.79591 1,2.25 0.679383,0.46006 1.461383,0.675547 3,0.6875 V 30.375 C 21.234018,30.36305 20.839687,30.219692 20.5,29.96875 20.1603,29.717807 20,29.364937 20,28.875 v -1.6875 c 0,-1.20094 -0.599714,-1.909901 -2.125,-2.125 v -0.125 C 19.400286,24.704487 20,23.970251 20,22.78125 V 21.125 c 0,-0.489927 0.1603,-0.81752 0.5,-1.0625 0.346348,-0.250932 0.740679,-0.407615 1.5,-0.4375 z m 6,0 v 1.625 c 0.759321,0.02989 1.153652,0.186568 1.5,0.4375 0.3397,0.24498 0.5,0.572573 0.5,1.0625 v 1.65625 c 0,1.189001 0.599714,1.923237 2.125,2.15625 v 0.125 C 30.599714,25.277599 30,25.98656 30,27.1875 v 1.6875 c 0,0.489937 -0.1603,0.842807 -0.5,1.09375 -0.339687,0.250942 -0.734018,0.3943 -1.5,0.40625 V 32 c 1.538617,-0.01195 2.320617,-0.22744 3,-0.6875 0.67273,-0.45409 1,-1.228303 1,-2.25 v -1.53125 c 0,-1.111317 0.228268,-1.687496 2,-1.6875 v -1.6875 c -0.899188,6e-6 -0.879555,-0.168625 -1.3125,-0.4375 C 32.2479,23.443915 32,23.055667 32,22.5 V 20.71875 C 32,19.786686 31.656855,19.092426 30.9375,18.65625 30.211493,18.214124 29.445369,18.000014 28,18 Z"
     id="path4544" />
  <path
     id="path3873-9"
     d="m 22,17 c -1.445369,1.4e-5 -2.211493,0.214124 -2.9375,0.65625 C 18.343145,18.092426 18,18.786686 18,19.71875 V 21.5 c 0,0.555667 -0.2479,0.943915 -0.6875,1.21875 -0.432945,0.268875 -0.413312,0.437506 -1.3125,0.4375 v 1.6875 c 1.771732,4e-6 2,0.576183 2,1.6875 v 1.53125 c 0,1.021697 0.32727,1.79591 1,2.25 0.679383,0.46006 1.461383,0.675547 3,0.6875 V 29.375 C 21.234018,29.36305 20.839687,29.219692 20.5,28.96875 20.1603,28.717807 20,28.364937 20,27.875 v -1.6875 c 0,-1.20094 -0.599714,-1.909901 -2.125,-2.125 v -0.125 C 19.400286,23.704487 20,22.970251 20,21.78125 V 20.125 c 0,-0.489927 0.1603,-0.81752 0.5,-1.0625 0.346348,-0.250932 0.740679,-0.407615 1.5,-0.4375 z m 6,0 v 1.625 c 0.759321,0.02989 1.153652,0.186568 1.5,0.4375 0.3397,0.24498 0.5,0.572573 0.5,1.0625 v 1.65625 c 0,1.189001 0.599714,1.923237 2.125,2.15625 v 0.125 C 30.599714,24.277599 30,24.98656 30,26.1875 v 1.6875 c 0,0.489937 -0.1603,0.842807 -0.5,1.09375 -0.339687,0.250942 -0.734018,0.3943 -1.5,0.40625 V 31 c 1.538617,-0.01195 2.320617,-0.22744 3,-0.6875 0.67273,-0.45409 1,-1.228303 1,-2.25 v -1.53125 c 0,-1.111317 0.228268,-1.687496 2,-1.6875 v -1.6875 c -0.899188,6e-6 -0.879555,-0.168625 -1.3125,-0.4375 C 32.2479,22.443915 32,22.055667 32,21.5 V 19.71875 C 32,18.786686 31.656855,18.092426 30.9375,17.65625 30.211493,17.214124 29.445369,17.000014 28,17 Z"
     style="color:#000000;font-style:normal;font-variant:normal;font-weight:600;font-stretch:normal;font-size:19px;line-height:125%;font-family:'Open Sans';-inkscape-font-specification:'Open Sans Semi-Bold';text-align:start;letter-spacing:0px;word-spacing:0px;writing-mode:lr-tb;text-anchor:start;clip-rule:nonzero;display:inline;overflow:visible;visibility:visible;opacity:1;isolation:auto;mix-blend-mode:normal;color-interpolation:sRGB;color-interpolation-filters:linearRGB;solid-color:#000000;solid-opacity:1;fill:url(#linearGradient4514);fill-opacity:1;fill-rule:nonzero;stroke:none;stroke-width:1;stroke-linecap:butt;stroke-linejoin:miter;stroke-miterlimit:4;stroke-dasharray:none;stroke-dashoffset:0;stroke-opacity:1;marker:none;color-rendering:auto;image-rendering:auto;shape-rendering:auto;text-rendering:auto;enable-background:accumulate" />
</svg>
