<?xml version="1.0" encoding="UTF-8" standalone="no"?>
<svg
   version="1.1"
   width="48"
   height="48"
   id="svg6649"
   xmlns:xlink="http://www.w3.org/1999/xlink"
   xmlns="http://www.w3.org/2000/svg"
   xmlns:svg="http://www.w3.org/2000/svg"
   xmlns:rdf="http://www.w3.org/1999/02/22-rdf-syntax-ns#"
   xmlns:cc="http://creativecommons.org/ns#"
   xmlns:dc="http://purl.org/dc/elements/1.1/">
  <defs
     id="defs6651">
    <linearGradient
       id="linearGradient2511">
      <stop
         id="stop2503"
         style="stop-color:#ffffff;stop-opacity:1"
         offset="0" />
      <stop
         id="stop2505"
         style="stop-color:#ffffff;stop-opacity:0.23529412"
         offset="0.07311722" />
      <stop
         id="stop2507"
         style="stop-color:#ffffff;stop-opacity:0.15686275"
         offset="0.94694352" />
      <stop
         id="stop2509"
         style="stop-color:#ffffff;stop-opacity:0.39215687"
         offset="1" />
    </linearGradient>
    <linearGradient
       id="linearGradient2392">
      <stop
         id="stop2384"
         style="stop-color:#ffffff;stop-opacity:1"
         offset="0" />
      <stop
         id="stop2386"
         style="stop-color:#ffffff;stop-opacity:0.23529412"
         offset="0.07945278" />
      <stop
         id="stop2388"
         style="stop-color:#ffffff;stop-opacity:0.15686275"
         offset="0.94694352" />
      <stop
         id="stop2390"
         style="stop-color:#ffffff;stop-opacity:0.39215687"
         offset="1" />
    </linearGradient>
    <linearGradient
       id="linearGradient1201">
      <stop
         id="stop1193"
         style="stop-color:#ffffff;stop-opacity:1"
         offset="0" />
      <stop
         id="stop1195"
         style="stop-color:#ffffff;stop-opacity:0.23529412"
         offset="0.12503569" />
      <stop
         id="stop1197"
         style="stop-color:#ffffff;stop-opacity:0.15686275"
         offset="0.92580205" />
      <stop
         id="stop1199"
         style="stop-color:#ffffff;stop-opacity:0.39215687"
         offset="1" />
    </linearGradient>
    <linearGradient
       id="linearGradient3688-166-749">
      <stop
         id="stop2883"
         style="stop-color:#181818;stop-opacity:1"
         offset="0" />
      <stop
         id="stop2885"
         style="stop-color:#181818;stop-opacity:0"
         offset="1" />
    </linearGradient>
    <linearGradient
       id="linearGradient3702-501-757">
      <stop
         id="stop2895"
         style="stop-color:#181818;stop-opacity:0"
         offset="0" />
      <stop
         id="stop2897"
         style="stop-color:#181818;stop-opacity:1"
         offset="0.5" />
      <stop
         id="stop2899"
         style="stop-color:#181818;stop-opacity:0"
         offset="1" />
    </linearGradient>
    <linearGradient
       x1="13.320448"
       y1="6.0408597"
       x2="13.320448"
       y2="42.617455"
       id="linearGradient3058-5"
       xlink:href="#linearGradient2392"
       gradientUnits="userSpaceOnUse"
       gradientTransform="matrix(1.0003033,0,0,1.0015672,-0.00727433,2.9852332)" />
    <linearGradient
       id="linearGradient3600-9-51">
      <stop
         offset="0"
         style="stop-color:#f4f4f4;stop-opacity:1"
         id="stop3602-0-0" />
      <stop
         offset="1"
         style="stop-color:#dbdbdb;stop-opacity:1"
         id="stop3604-9-04" />
    </linearGradient>
    <linearGradient
       id="linearGradient3104-6">
      <stop
         offset="0"
         style="stop-color:#000000;stop-opacity:0.31782946"
         id="stop3106-3" />
      <stop
         offset="1"
         style="stop-color:#000000;stop-opacity:0.24031007"
         id="stop3108-9" />
    </linearGradient>
    <linearGradient
       xlink:href="#linearGradient3600-9-51"
       id="linearGradient1512"
       gradientUnits="userSpaceOnUse"
       gradientTransform="matrix(0.97111365,0,0,0.93310444,-47.866265,3.4998525)"
       x1="74.838791"
       y1="4.535933"
       x2="74.838791"
       y2="49.779099" />
    <linearGradient
       xlink:href="#linearGradient1201"
       id="linearGradient1192"
       gradientUnits="userSpaceOnUse"
       gradientTransform="matrix(1.0540541,0,0,0.56756756,-1.2973092,19.378382)"
       x1="38.999996"
       y1="6.3809462"
       x2="38.999996"
       y2="41.619041" />
    <linearGradient
       x1="35.996761"
       y1="9.0111694"
       x2="35.996761"
       y2="41.850147"
       id="linearGradient3058-5-7"
       xlink:href="#linearGradient2511"
       gradientUnits="userSpaceOnUse"
       gradientTransform="matrix(1.0003033,0,0,1.0015672,-0.00727433,2.9852332)" />
    <linearGradient
       y2="112.56809"
       x2="45.428802"
       y1="47.703304"
       x1="45.428802"
       gradientTransform="matrix(0.52998521,0,0,0.35458375,2.0144111,4.5851813)"
       gradientUnits="userSpaceOnUse"
       id="linearGradient997"
       xlink:href="#linearGradient4632-0-6-4-4-4" />
    <linearGradient
       id="linearGradient4632-0-6-4-4-4">
      <stop
         offset="0"
         style="stop-color:#efdfc4;stop-opacity:1"
         id="stop4634-4-4-7-4" />
      <stop
         offset="1"
         style="stop-color:#e7c591;stop-opacity:1"
         id="stop4636-3-1-5-9" />
    </linearGradient>
    <linearGradient
       xlink:href="#linearGradient3104-6"
       id="linearGradient532"
       gradientUnits="userSpaceOnUse"
       gradientTransform="matrix(0.80749686,0,0,0.89471714,62.606826,4.8677558)"
       x1="-51.786404"
       y1="50.786446"
       x2="-51.786404"
       y2="2.9062471" />
    <radialGradient
       cx="4.9929786"
       cy="43.5"
       r="2.5"
       fx="4.9929786"
       fy="43.5"
       id="radialGradient3013-6-3"
       xlink:href="#linearGradient3688-166-749"
       gradientUnits="userSpaceOnUse"
       gradientTransform="matrix(2.003784,0,0,0.89999994,29.98813,4.8500025)" />
    <radialGradient
       cx="4.9929786"
       cy="43.5"
       r="2.5"
       fx="4.9929786"
       fy="43.5"
       id="radialGradient3015-1-5"
       xlink:href="#linearGradient3688-166-749"
       gradientUnits="userSpaceOnUse"
       gradientTransform="matrix(2.003784,0,0,0.89999994,-18.01187,-83.149997)" />
    <linearGradient
       xlink:href="#linearGradient3702-501-757"
       id="linearGradient14263"
       gradientUnits="userSpaceOnUse"
       gradientTransform="matrix(1.1428571,0,0,0.6428571,-3.428569,16.035716)"
       x1="25.058096"
       y1="47.027729"
       x2="25.058096"
       y2="39.999443" />
    <linearGradient
       xlink:href="#linearGradient1201-1"
       id="linearGradient1192-6"
       gradientUnits="userSpaceOnUse"
       gradientTransform="matrix(1.0540541,0,0,0.72972972,-1.2973092,12.486494)"
       x1="38.999996"
       y1="6.1851215"
       x2="38.999996"
       y2="41.81049" />
    <linearGradient
       id="linearGradient1201-1">
      <stop
         id="stop1193-5"
         style="stop-color:#ffffff;stop-opacity:1"
         offset="0" />
      <stop
         id="stop1195-5"
         style="stop-color:#ffffff;stop-opacity:0.23529412"
         offset="0.09565965" />
      <stop
         id="stop1197-4"
         style="stop-color:#ffffff;stop-opacity:0.15686275"
         offset="0.9041087" />
      <stop
         id="stop1199-7"
         style="stop-color:#ffffff;stop-opacity:0.39215687"
         offset="1" />
    </linearGradient>
    <linearGradient
       xlink:href="#linearGradient8"
       id="linearGradient930-9-2"
       x1="-19.062435"
       y1="2.6452725"
       x2="-19.062435"
       y2="29.774338"
       gradientUnits="userSpaceOnUse"
       gradientTransform="matrix(1.444444,0,0,1.444444,57.987786,1.888891)" />
    <linearGradient
       id="linearGradient8">
      <stop
         offset="0"
         style="stop-color:#cd9ef7;stop-opacity:1"
         id="stop7" />
      <stop
         offset="1"
         style="stop-color:#a56de2;stop-opacity:1"
         id="stop8" />
    </linearGradient>
  </defs>
  <metadata
     id="metadata6654">
    <rdf:RDF>
      <cc:Work
         rdf:about="">
        <dc:format>image/svg+xml</dc:format>
        <dc:type
           rdf:resource="http://purl.org/dc/dcmitype/StillImage" />
      </cc:Work>
    </rdf:RDF>
  </metadata>
  <g
     id="g1784"
     transform="translate(0,0.25)">
    <rect
       style="opacity:0.25;fill:url(#radialGradient3013-6-3);fill-opacity:1;stroke:none;stroke-width:0.862764"
       id="rect2801-3-7-0"
       y="41.75"
       x="40"
       height="4.4999995"
       width="5" />
    <rect
       style="opacity:0.25;fill:url(#radialGradient3015-1-5);fill-opacity:1;stroke:none;stroke-width:0.862764"
       id="rect3696-6-3-9"
       transform="scale(-1)"
       y="-46.25"
       x="-8"
       height="4.4999995"
       width="5" />
    <rect
       style="opacity:0.25;fill:url(#linearGradient14263);fill-opacity:1;stroke:none;stroke-width:0.862764"
       id="rect3700-4-6-3"
       y="41.75"
       x="8"
       height="4.5"
       width="32" />
  </g>
  <path
     id="rect5505-21-1-2-8-6-1"
     style="color:#000000;font-variation-settings:normal;display:inline;overflow:visible;visibility:visible;opacity:1;vector-effect:none;fill:url(#linearGradient1512);fill-opacity:1;fill-rule:nonzero;stroke:none;stroke-width:1;stroke-linecap:butt;stroke-linejoin:miter;stroke-miterlimit:4;stroke-dasharray:none;stroke-dashoffset:0;stroke-opacity:1;-inkscape-stroke:none;marker:none;enable-background:accumulate;stop-color:#000000;stop-opacity:1"
     d="M 7.5,7.999961 C 5.5502702,7.999961 3.9998455,9.552178 3.9998455,11.5 V 26 H 43.999845 V 14.5 c 0,-1.947822 -1.550114,-3.504355 -3.499845,-3.50394 L 21.999909,11 C 21.143677,11.000182 20.283238,10.557689 19.510476,10.085137 18.737716,9.6125845 18.072364,9.0833916 17.743467,8.8094539 17.137237,8.3045269 16.358232,7.999961 15.5,7.999961 Z" />
  <path
     id="rect5505-21-1-2-8-6-1-9"
     style="color:#000000;font-variation-settings:normal;display:inline;overflow:visible;visibility:visible;opacity:1;vector-effect:none;fill:none;fill-opacity:1;fill-rule:nonzero;stroke:url(#linearGradient3058-5);stroke-width:1;stroke-linecap:round;stroke-linejoin:round;stroke-miterlimit:4;stroke-dasharray:none;stroke-dashoffset:0;stroke-opacity:1;-inkscape-stroke:none;marker:none;enable-background:accumulate;stop-color:#000000;stop-opacity:1"
     d="m 22,11.503867 c -1.055408,0 -1.950479,-0.495432 -2.757813,-0.990234 C 18.434853,10.01883 17.753658,9.4764811 17.41211,9.1913672 16.893892,8.7587764 16.23555,8.499961 15.498047,8.499961 H 7.4960938 C 5.8197237,8.499961 4.5,9.8195195 4.5,11.498008 L 4.5,21.5" />
  <path
     id="rect5505-21-1-2-8-6-1-9-9"
     style="color:#000000;font-variation-settings:normal;display:inline;overflow:visible;visibility:visible;vector-effect:none;fill:none;fill-opacity:1;fill-rule:nonzero;stroke:url(#linearGradient3058-5-7);stroke-width:1;stroke-linecap:round;stroke-linejoin:round;stroke-miterlimit:4;stroke-dasharray:none;stroke-dashoffset:0;stroke-opacity:1;-inkscape-stroke:none;marker:none;enable-background:accumulate;stop-color:#000000"
     d="m 43.500047,21.5 0,-6.996132 c 0,-1.67849 -1.319723,-3.000001 -2.996094,-3.000001 H 23" />
  <path
     id="rect5505-21-1-2-8-6"
     style="color:#000000;font-variation-settings:normal;display:inline;overflow:visible;visibility:visible;opacity:1;vector-effect:none;fill:none;fill-opacity:1;fill-rule:nonzero;stroke:url(#linearGradient532);stroke-width:1;stroke-linecap:butt;stroke-linejoin:round;stroke-miterlimit:4;stroke-dasharray:none;stroke-dashoffset:0;stroke-opacity:1;-inkscape-stroke:none;marker:none;enable-background:accumulate;stop-color:#000000;stop-opacity:1"
     d="m 44.5,23.5 v -9.000039 c 0,-2.215998 -1.784002,-4 -4,-4 H 22 c -1.328666,0 -3.3072,-1.5482043 -3.941123,-2.0767151 C 17.366939,7.8463678 16.475825,7.499961 15.5,7.499961 h -8 c -2.2159977,0 -4,1.7840022 -4,4 V 23.5" />
  <rect
     style="color:#000000;font-variation-settings:normal;display:inline;overflow:visible;visibility:visible;opacity:1;vector-effect:none;fill:#555761;fill-opacity:0.05;fill-rule:nonzero;stroke:none;stroke-width:1;stroke-linecap:butt;stroke-linejoin:miter;stroke-miterlimit:4;stroke-dasharray:none;stroke-dashoffset:0;stroke-opacity:0.5;-inkscape-stroke:none;marker:none;enable-background:accumulate;stop-color:#000000;stop-opacity:1"
     id="rect973"
     y="16.5"
     x="4"
     ry="4"
     rx="4"
     height="23"
     width="40" />
  <rect
     style="color:#000000;font-variation-settings:normal;display:inline;overflow:visible;visibility:visible;opacity:1;vector-effect:none;fill:#555761;fill-opacity:0.07;fill-rule:nonzero;stroke:none;stroke-width:1;stroke-linecap:butt;stroke-linejoin:miter;stroke-miterlimit:4;stroke-dasharray:none;stroke-dashoffset:0;stroke-opacity:0.5;-inkscape-stroke:none;marker:none;enable-background:accumulate;stop-color:#000000;stop-opacity:1"
     id="rect3772"
     y="18.5"
     x="4"
     ry="4"
     rx="4"
     height="23"
     width="40" />
  <path
     id="rect5505-21-1"
     style="display:inline;overflow:visible;opacity:1;vector-effect:none;fill:url(#linearGradient930-9-2);stroke-width:1;stroke-opacity:0.5;marker:none;enable-background:accumulate;stop-color:#000000;stop-opacity:1;font-variation-settings:normal;fill-opacity:1;stroke:#7239b3;stroke-linecap:butt;stroke-linejoin:miter;stroke-miterlimit:4;stroke-dasharray:none;stroke-dashoffset:0;-inkscape-stroke:none"
     d="m 6.25,21.499998 h 35.5 c 2.216,0 4.184029,1.791655 4,4 l -1.25,15 c -0.184029,2.208345 -1.784,4 -4,4 h -33 c -2.216,0 -3.8159712,-1.791655 -4,-4 l -1.25,-15 c -0.1840288,-2.208345 1.784,-4 4,-4 z" />
  <path
     style="color:#000000;opacity:0.3;fill:url(#linearGradient1192);stroke-linecap:round;stroke-linejoin:round;-inkscape-stroke:none"
     d="m 6.25,22 c -1.9303487,0 -3.6603068,1.576318 -3.5,3.5 L 4,40.5 C 4.1603068,42.423682 5.5696513,44 7.5,44 h 33 c 1.930349,0 3.339693,-1.576318 3.5,-3.5 l 1.25,-15 C 45.410307,23.576318 43.680349,22 41.75,22 Z m 0,1 h 35.5 c 1.393648,0 2.615736,1.111166 2.5,2.5 L 43,40.5 C 42.884264,41.888833 41.893648,43 40.5,43 H 7.5 C 6.106352,43 5.1157361,41.888834 5,40.5 L 3.75,25.5 C 3.6342639,24.111166 4.856352,23 6.25,23 Z"
     id="rect6741-2" />
  <path
     id="path4193-6"
     d="m 19.973817,38.831223 c 2.086517,-1.319156 3.992896,-2.690595 4.236394,-3.047642 0.243503,-0.357047 1.203575,-1.062082 2.133495,-1.566746 2.434132,-1.320992 3.854333,-1.217341 5.076452,0.370497 0.311375,0.404557 0.73994,0.735558 0.952362,0.735558 0.485877,0 2.726465,-1.324542 2.726465,-1.611773 0,-0.372116 -1.149666,-1.013472 -1.816702,-1.013472 -0.703306,0 -1.376847,-0.613367 -1.376847,-1.253841 0,-0.485346 -2.19998,-1.836407 -3.796894,-2.331764 -0.760909,-0.236031 -2.071152,-0.35226 -3.970993,-0.35226 -2.871934,0 -4.072351,0.288996 -2.234279,0.537895 0.552213,0.07478 1.59151,0.434519 2.309548,0.799426 1.848843,0.939581 1.77432,1.64552 -0.334355,3.167271 -0.901932,0.65089 -1.860985,1.183437 -2.131224,1.183437 -0.59764,0 -8.648254,4.545597 -8.648254,4.883039 0,0.254769 2.47154,1.898842 2.854533,1.898842 0.124645,0 1.933781,-1.079311 4.020299,-2.398467 z"
     style="color:#000000;font-variation-settings:normal;clip-rule:nonzero;display:inline;overflow:visible;visibility:visible;opacity:0.3;isolation:auto;mix-blend-mode:normal;color-interpolation:sRGB;color-interpolation-filters:linearRGB;solid-color:#000000;solid-opacity:1;vector-effect:none;fill:#7239b3;fill-opacity:1;fill-rule:nonzero;stroke:none;stroke-width:1;stroke-linecap:butt;stroke-linejoin:miter;stroke-miterlimit:4;stroke-dasharray:none;stroke-dashoffset:0;stroke-opacity:1;-inkscape-stroke:none;marker:none;color-rendering:auto;image-rendering:auto;shape-rendering:auto;text-rendering:auto;enable-background:accumulate;stop-color:#000000" />
  <path
     id="path4193"
     d="m 19.973817,38.053046 c 2.086517,-1.319155 3.992896,-2.690595 4.236394,-3.047641 0.243503,-0.357048 1.203575,-1.062083 2.133495,-1.566747 2.434132,-1.320992 3.854333,-1.217341 5.076452,0.370497 0.311375,0.404558 0.73994,0.735559 0.952362,0.735559 0.485877,0 2.726465,-1.324543 2.726465,-1.611774 0,-0.372116 -1.149666,-1.013472 -1.816702,-1.013472 -0.703306,0 -1.376847,-0.613367 -1.376847,-1.25384 0,-0.485347 -2.19998,-1.836407 -3.796894,-2.331765 -0.760909,-0.236031 -2.071152,-0.35226 -3.970993,-0.35226 -2.871934,0 -4.072351,0.288996 -2.234279,0.537896 0.552213,0.07477 1.59151,0.434518 2.309548,0.799425 1.848843,0.939582 1.77432,1.645521 -0.334355,3.167271 -0.901932,0.65089 -1.860985,1.183437 -2.131224,1.183437 -0.59764,0 -8.648254,4.545597 -8.648254,4.883039 0,0.254769 2.47154,1.898842 2.854533,1.898842 0.124645,0 1.933781,-1.07931 4.020299,-2.398467 z"
     style="color:#000000;font-variation-settings:normal;clip-rule:nonzero;display:inline;overflow:visible;visibility:visible;isolation:auto;mix-blend-mode:normal;color-interpolation:sRGB;color-interpolation-filters:linearRGB;solid-color:#000000;solid-opacity:1;vector-effect:none;fill:#ffffff;fill-opacity:1;fill-rule:nonzero;stroke:none;stroke-width:1;stroke-linecap:butt;stroke-linejoin:miter;stroke-miterlimit:4;stroke-dasharray:none;stroke-dashoffset:0;stroke-opacity:1;-inkscape-stroke:none;marker:none;color-rendering:auto;image-rendering:auto;shape-rendering:auto;text-rendering:auto;enable-background:accumulate;stop-color:#000000" />
  <path
     id="path4193-5"
     style="color:#000000;font-variation-settings:normal;clip-rule:nonzero;display:inline;overflow:visible;visibility:visible;opacity:0.15;isolation:auto;mix-blend-mode:normal;color-interpolation:sRGB;color-interpolation-filters:linearRGB;solid-color:#000000;solid-opacity:1;vector-effect:none;fill:#7239b3;fill-opacity:1;fill-rule:nonzero;stroke:none;stroke-width:1;stroke-linecap:butt;stroke-linejoin:miter;stroke-miterlimit:4;stroke-dasharray:none;stroke-dashoffset:0;stroke-opacity:1;-inkscape-stroke:none;marker:none;color-rendering:auto;image-rendering:auto;shape-rendering:auto;text-rendering:auto;enable-background:accumulate;stop-color:#000000"
     d="m 22.692735,28.014482 c -1.755178,0.08017 -2.272143,0.304544 -0.789062,0.505373 0.552212,0.07477 1.590556,0.433947 2.308593,0.798853 0.651746,0.331217 1.059646,0.634389 1.228516,0.95351 0.284436,-0.614325 -0.128896,-1.092462 -1.228516,-1.651288 -0.44697,-0.227151 -1.01857,-0.45079 -1.519531,-0.606448 z m 6.332031,3.816475 c -0.745106,0.02758 -1.616709,0.331737 -2.68164,0.90967 -0.929919,0.504664 -1.88931,1.210217 -2.132813,1.567263 -0.243498,0.357047 -2.149813,1.728911 -4.236328,3.048065 -2.086516,1.319155 -3.894886,2.397779 -4.019531,2.397779 -0.291888,0 -1.790753,-0.951465 -2.490235,-1.518553 -0.23009,0.161992 -0.365234,0.274765 -0.365234,0.317837 0,0.254769 2.472476,1.898495 2.855469,1.898495 0.124645,0 1.933015,-1.079841 4.019531,-2.398996 2.086515,-1.319154 3.99283,-2.689801 4.236328,-3.046847 0.243503,-0.357047 1.202894,-1.0626 2.132813,-1.567264 2.434129,-1.32099 3.854054,-1.217635 5.076171,0.370201 0.311375,0.404557 0.740704,0.73553 0.953126,0.73553 0.485876,0 2.726562,-1.323872 2.726562,-1.611103 0,-0.112866 -0.113312,-0.250253 -0.279297,-0.387249 -0.613745,0.49027 -2.066702,1.30179 -2.447265,1.30179 -0.212422,0 -0.641751,-0.330972 -0.953126,-0.735529 -0.687441,-0.893158 -1.436537,-1.316545 -2.394531,-1.281089 z" />
</svg>
