<?xml version="1.0" encoding="UTF-8" standalone="no"?>
<svg
   xmlns:dc="http://purl.org/dc/elements/1.1/"
   xmlns:cc="http://creativecommons.org/ns#"
   xmlns:rdf="http://www.w3.org/1999/02/22-rdf-syntax-ns#"
   xmlns:svg="http://www.w3.org/2000/svg"
   xmlns="http://www.w3.org/2000/svg"
   xmlns:xlink="http://www.w3.org/1999/xlink"
   version="1.1"
   width="24"
   height="24"
   id="svg3816">
  <defs
     id="defs3818">
    <linearGradient
       id="linearGradient4482">
      <stop
         offset="0"
         style="stop-color:#ffffff;stop-opacity:1"
         id="stop4484" />
      <stop
         offset="0"
         style="stop-color:#ffffff;stop-opacity:0.23529412"
         id="stop4486" />
      <stop
         offset="1"
         style="stop-color:#ffffff;stop-opacity:0.15686275"
         id="stop4488" />
      <stop
         offset="1"
         style="stop-color:#ffffff;stop-opacity:0.39215687"
         id="stop4490" />
    </linearGradient>
    <linearGradient
       xlink:href="#linearGradient4482"
       id="linearGradient3297"
       gradientUnits="userSpaceOnUse"
       gradientTransform="matrix(0.48648651,0,0,0.37837838,-1.175671,5.4189213)"
       x1="22.972212"
       y1="-3.7500062"
       x2="22.972212"
       y2="41.178566" />
    <linearGradient
       xlink:href="#linearGradient4337"
       id="linearGradient3300"
       gradientUnits="userSpaceOnUse"
       gradientTransform="matrix(0.57142725,0,0,0.34765344,-3.214255,5.622975)"
       x1="25.132275"
       y1="0.98520643"
       x2="25.132275"
       y2="47.013336" />
    <linearGradient
       x1="302.85715"
       y1="366.64789"
       x2="302.85715"
       y2="609.50507"
       id="linearGradient3028"
       xlink:href="#linearGradient5048"
       gradientUnits="userSpaceOnUse"
       gradientTransform="matrix(0.03279364,0,0,0.01512557,-39.852554,14.28089)" />
    <linearGradient
       id="linearGradient5048">
      <stop
         id="stop5050"
         style="stop-color:#000000;stop-opacity:0"
         offset="0" />
      <stop
         id="stop5056"
         style="stop-color:#000000;stop-opacity:1"
         offset="0.5" />
      <stop
         id="stop5052"
         style="stop-color:#000000;stop-opacity:0"
         offset="1" />
    </linearGradient>
    <radialGradient
       cx="605.71429"
       cy="486.64789"
       r="117.14286"
       fx="605.71429"
       fy="486.64789"
       id="radialGradient3030"
       xlink:href="#linearGradient5060"
       gradientUnits="userSpaceOnUse"
       gradientTransform="matrix(0.03279364,0,0,0.01512557,-43.8461,14.28089)" />
    <linearGradient
       id="linearGradient5060">
      <stop
         id="stop5062"
         style="stop-color:#000000;stop-opacity:1"
         offset="0" />
      <stop
         id="stop5064"
         style="stop-color:#000000;stop-opacity:0"
         offset="1" />
    </linearGradient>
    <radialGradient
       cx="605.71429"
       cy="486.64789"
       r="117.14286"
       fx="605.71429"
       fy="486.64789"
       id="radialGradient3032"
       xlink:href="#linearGradient5060"
       gradientUnits="userSpaceOnUse"
       gradientTransform="matrix(-0.03279364,0,0,0.01512557,-16.153887,14.28089)" />
    <linearGradient
       x1="17.231043"
       y1="-2.1010971"
       x2="26.444973"
       y2="55.173134"
       id="linearGradient3192-0-3"
       xlink:href="#linearGradient5736"
       gradientUnits="userSpaceOnUse"
       gradientTransform="matrix(0.5531492,0.14755837,-0.08960859,0.33296082,3.512713,-0.5401365)" />
    <linearGradient
       id="linearGradient5736">
      <stop
         id="stop5738"
         style="stop-color:#586e75;stop-opacity:1"
         offset="0" />
      <stop
         id="stop5740"
         style="stop-color:#073642;stop-opacity:1"
         offset="1" />
    </linearGradient>
    <linearGradient
       id="linearGradient4337">
      <stop
         id="stop4339"
         style="stop-color:#fdf6e3;stop-opacity:1"
         offset="0" />
      <stop
         id="stop4341"
         style="stop-color:#eee8d5;stop-opacity:1"
         offset="1" />
    </linearGradient>
    <linearGradient
       y2="47.013336"
       x2="25.132275"
       y1="0.98520643"
       x1="25.132275"
       gradientTransform="matrix(0.56274599,-0.0992273,0.06036938,0.3423718,-25.066009,7.8402573)"
       gradientUnits="userSpaceOnUse"
       id="linearGradient4528"
       xlink:href="#linearGradient5736" />
    <linearGradient
       y2="41.178566"
       x2="22.972212"
       y1="-3.7500062"
       x1="22.972212"
       gradientTransform="matrix(0.47909569,-0.08447749,0.06570472,0.37262997,-23.058977,7.2906727)"
       gradientUnits="userSpaceOnUse"
       id="linearGradient4532"
       xlink:href="#linearGradient4482" />
  </defs>
  <metadata
     id="metadata3821">
    <rdf:RDF>
      <cc:Work
         rdf:about="">
        <dc:format>image/svg+xml</dc:format>
        <dc:type
           rdf:resource="http://purl.org/dc/dcmitype/StillImage" />
        <dc:title />
      </cc:Work>
    </rdf:RDF>
  </metadata>
  <g
     transform="rotate(5,1.5980012,240.87896)"
     id="g4673">
    <path
       style="display:inline;fill:url(#linearGradient4528);fill-opacity:1;stroke:#001921;stroke-linejoin:round;stroke-opacity:0.49803922"
       id="path4526"
       d="M -18.01125,3.4251612 C -13.497862,2.6293289 -1.2693699,0.47413137 -1.2693699,0.47413137 L 2.203445,20.169297 -14.538287,23.121316 -18.011247,3.4251758 Z" />
    <path
       style="opacity:0.3;fill:none;stroke:url(#linearGradient4532);stroke-width:1;stroke-linecap:round;stroke-linejoin:miter;stroke-miterlimit:4;stroke-dasharray:none;stroke-dashoffset:0;stroke-opacity:1"
       id="path4530"
       d="M 1.0798436,19.363501 -13.692274,21.968224 -16.817941,4.2416848 -2.0458242,1.6369621 Z" />
  </g>
  <g
     transform="translate(43,1)"
     id="g4541">
    <path
       style="display:inline;overflow:visible;visibility:visible;opacity:0.4;fill:url(#linearGradient3028);fill-opacity:1;fill-rule:nonzero;stroke:none;stroke-width:104.96237946;stroke-miterlimit:4;stroke-dasharray:none;marker:none"
       d="m -35.917316,19.826649 h 11.834642 v 3.673352 h -11.834642 z"
       id="rect4173-4" />
    <path
       style="display:inline;overflow:visible;visibility:visible;opacity:0.4;fill:url(#radialGradient3030);fill-opacity:1;fill-rule:nonzero;stroke:none;stroke-width:104.96237946;stroke-miterlimit:4;stroke-dasharray:none;marker:none"
       id="path5058-9"
       d="m -24.082674,19.826774 c 0,0 0,3.67315 0,3.67315 1.688791,0.0069 4.082675,-0.822966 4.082674,-1.836811 0,-1.013845 -1.884564,-1.836339 -4.082674,-1.836339 z" />
    <path
       style="display:inline;overflow:visible;visibility:visible;opacity:0.4;fill:url(#radialGradient3032);fill-opacity:1;fill-rule:nonzero;stroke:none;stroke-width:104.96237946;stroke-miterlimit:4;stroke-dasharray:none;marker:none"
       id="path5018-53"
       d="m -35.917317,19.826774 c 0,0 0,3.67315 0,3.67315 -1.688791,0.0069 -4.082675,-0.822966 -4.082675,-1.836811 0,-1.013845 1.884564,-1.836339 4.082675,-1.836339 z" />
  </g>
  <path
     style="display:inline;fill:url(#linearGradient3300);fill-opacity:1;stroke:#aa8e37;stroke-linejoin:round;stroke-opacity:0.49803922"
     id="path4160-9-1"
     d="m 4.5,2.5 c 4.583015,0 16.999975,10e-4 16.999975,10e-4 L 21.5,22.5 H 4.5 V 2.500015 Z" />
  <path
     style="fill:none;stroke:url(#linearGradient3297);stroke-width:1;stroke-linecap:round;stroke-linejoin:miter;stroke-miterlimit:4;stroke-dasharray:none;stroke-dashoffset:0;stroke-opacity:1"
     id="rect6741-1-2-1"
     d="m 20.500001,21.499999 h -15 v -18 h 15 z" />
  <g
     transform="matrix(1.0195441,0,0,1,33.167124,7.7733386)"
     id="g4198"
     style="fill:#aa8e37;fill-opacity:1;opacity:0.2">
    <path
       d="m -25.665515,-2.7733386 h 1.124072 v 1 h -1.124072 z"
       id="path6035"
       style="display:inline;opacity:0.7;fill:#aa8e37;fill-opacity:1;stroke:none" />
    <path
       d="m -24.388326,-2.7733386 h 1.060612 v 1 h -1.060612 z"
       id="path6033"
       style="display:inline;opacity:0.7;fill:#aa8e37;fill-opacity:1;stroke:none" />
    <path
       d="m -23.174597,-2.7733386 h 0.933684 v 1 h -0.933684 z"
       id="path6031"
       style="display:inline;opacity:0.7;fill:#aa8e37;fill-opacity:1;stroke:none" />
    <path
       d="m -22.087797,-2.7733386 h 0.410114 v 1 h -0.410114 z"
       id="path6029"
       style="display:inline;opacity:0.7;fill:#aa8e37;fill-opacity:1;stroke:none" />
    <path
       d="m -21.524561,-2.7733386 h 0.917815 v 1 h -0.917815 z"
       id="path6027"
       style="display:inline;opacity:0.7;fill:#aa8e37;fill-opacity:1;stroke:none" />
    <path
       d="m -20.453624,-2.7733386 h 2.377462 v 1 h -2.377462 z"
       id="path6025"
       style="display:inline;opacity:0.7;fill:#aa8e37;fill-opacity:1;stroke:none" />
    <path
       d="m -17.923045,-2.7733386 h 1.806297 v 1 h -1.806297 z"
       id="path6023"
       style="display:inline;opacity:0.7;fill:#aa8e37;fill-opacity:1;stroke:none" />
    <path
       d="m -25.665515,3.2266614 h 1.124072 v 1 h -1.124072 z"
       id="path6017"
       style="display:inline;opacity:0.7;fill:#aa8e37;fill-opacity:1;stroke:none" />
    <path
       d="m -24.388327,3.2266614 h 1.060612 v 1 h -1.060612 z"
       id="path6015"
       style="display:inline;opacity:0.7;fill:#aa8e37;fill-opacity:1;stroke:none" />
    <path
       d="m -23.174598,3.2266614 h 0.933683 v 1 h -0.933683 z"
       id="path6013"
       style="display:inline;opacity:0.7;fill:#aa8e37;fill-opacity:1;stroke:none" />
    <path
       d="m -22.087799,3.2266614 h 0.410114 v 1 h -0.410114 z"
       id="path6011"
       style="display:inline;opacity:0.7;fill:#aa8e37;fill-opacity:1;stroke:none" />
    <path
       d="m -21.524563,3.2266614 h 0.917814 v 1 h -0.917814 z"
       id="path6009"
       style="display:inline;opacity:0.7;fill:#aa8e37;fill-opacity:1;stroke:none" />
    <path
       d="m -20.453627,3.2266614 h 2.377461 v 1 h -2.377461 z"
       id="path6007"
       style="display:inline;opacity:0.7;fill:#aa8e37;fill-opacity:1;stroke:none" />
    <path
       d="m -17.923049,3.2266614 h 1.806296 v 1 h -1.806296 z"
       id="path6005"
       style="display:inline;opacity:0.7;fill:#aa8e37;fill-opacity:1;stroke:none" />
    <path
       d="m -15.963631,3.2266614 h 0.552901 v 1 h -0.552901 z"
       id="path6003"
       style="display:inline;opacity:0.7;fill:#aa8e37;fill-opacity:1;stroke:none" />
    <path
       d="m -15.257608,3.2266614 h 1.092339 v 1 h -1.092339 z"
       id="path6001"
       style="display:inline;opacity:0.7;fill:#aa8e37;fill-opacity:1;stroke:none" />
    <path
       d="m -25.665515,-0.77333856 h 1.742834 v 1 h -1.742834 z"
       id="path5999"
       style="display:inline;opacity:0.7;fill:#aa8e37;fill-opacity:1;stroke:none" />
    <path
       d="m -23.76361,-0.77333856 h 0.838487 v 1 h -0.838487 z"
       id="path5997"
       style="display:inline;opacity:0.7;fill:#aa8e37;fill-opacity:1;stroke:none" />
    <path
       d="m -22.766052,-0.77333856 h 0.394245 v 1 h -0.394245 z"
       id="path5995"
       style="display:inline;opacity:0.7;fill:#aa8e37;fill-opacity:1;stroke:none" />
    <path
       d="m -22.212735,-0.77333856 h 0.759159 v 1 h -0.759159 z"
       id="path5993"
       style="display:inline;opacity:0.7;fill:#aa8e37;fill-opacity:1;stroke:none" />
    <path
       d="m -21.29451,-0.77333856 h 0.759159 v 1 h -0.759159 z"
       id="path5991"
       style="display:inline;opacity:0.7;fill:#aa8e37;fill-opacity:1;stroke:none" />
    <path
       d="m -20.376281,-0.77333856 h 1.219264 v 1 h -1.219264 z"
       id="path5989"
       style="display:inline;opacity:0.7;fill:#aa8e37;fill-opacity:1;stroke:none" />
    <path
       d="m -18.99795,-0.77333856 h 1.600045 v 1 h -1.600045 z"
       id="path5987"
       style="display:inline;opacity:0.7;fill:#aa8e37;fill-opacity:1;stroke:none" />
    <path
       d="m -17.238834,-0.77333856 h 1.076471 v 1 h -1.076471 z"
       id="path5985"
       style="display:inline;opacity:0.7;fill:#aa8e37;fill-opacity:1;stroke:none" />
    <path
       d="m -16.003291,-0.77333856 h 0.251453 v 1 h -0.251453 z"
       id="path5983"
       style="display:inline;opacity:0.7;fill:#aa8e37;fill-opacity:1;stroke:none" />
    <path
       d="m -25.665515,1.2266614 h 1.996685 v 1 h -1.996685 z"
       id="path5981"
       style="display:inline;opacity:0.7;fill:#aa8e37;fill-opacity:1;stroke:none" />
    <path
       d="m -23.512309,1.2266614 h 2.139471 v 1 h -2.139471 z"
       id="path5979"
       style="display:inline;opacity:0.7;fill:#aa8e37;fill-opacity:1;stroke:none" />
    <path
       d="m -21.216317,1.2266614 h 0.854355 v 1 h -0.854355 z"
       id="path5977"
       style="display:inline;opacity:0.7;fill:#aa8e37;fill-opacity:1;stroke:none" />
    <path
       d="m -20.205441,1.2266614 h 2.012548 v 1 h -2.012548 z"
       id="path5975"
       style="display:inline;opacity:0.7;fill:#aa8e37;fill-opacity:1;stroke:none" />
    <path
       d="m -16.501932,1.2266614 h 0.537037 v 1 h -0.537037 z"
       id="path5973"
       style="display:inline;opacity:0.7;fill:#aa8e37;fill-opacity:1;stroke:none" />
    <path
       d="m -18.036372,1.2266614 h 1.377919 v 1 h -1.377919 z"
       id="path5971"
       style="display:inline;opacity:0.7;fill:#aa8e37;fill-opacity:1;stroke:none" />
    <path
       d="m -15.808375,1.2266614 h 0.314918 v 1 h -0.314918 z"
       id="path5969"
       style="display:inline;opacity:0.7;fill:#aa8e37;fill-opacity:1;stroke:none" />
    <path
       d="m -15.336936,1.2266614 h 0.854355 v 1 h -0.854355 z"
       id="path5967"
       style="display:inline;opacity:0.7;fill:#aa8e37;fill-opacity:1;stroke:none" />
    <path
       d="m -25.665515,9.2266614 h 1.996686 v 0.9999996 h -1.996686 z"
       id="path5965"
       style="display:inline;opacity:0.7;fill:#aa8e37;fill-opacity:1;stroke:none" />
    <path
       d="m -23.512309,9.2266614 h 2.139473 v 0.9999996 h -2.139473 z"
       id="path5963"
       style="display:inline;opacity:0.7;fill:#aa8e37;fill-opacity:1;stroke:none" />
    <path
       d="m -21.216315,9.2266614 h 0.854355 v 0.9999996 h -0.854355 z"
       id="path5961"
       style="display:inline;opacity:0.7;fill:#aa8e37;fill-opacity:1;stroke:none" />
    <path
       d="m -20.205439,9.2266614 h 2.012549 v 0.9999996 h -2.012549 z"
       id="path5959"
       style="display:inline;opacity:0.7;fill:#aa8e37;fill-opacity:1;stroke:none" />
    <path
       d="m -16.501929,9.2266614 h 0.537037 v 0.9999996 h -0.537037 z"
       id="path5957"
       style="display:inline;opacity:0.7;fill:#aa8e37;fill-opacity:1;stroke:none" />
    <path
       d="m -18.036369,9.2266614 h 1.377919 v 0.9999996 h -1.377919 z"
       id="path5955"
       style="display:inline;opacity:0.7;fill:#aa8e37;fill-opacity:1;stroke:none" />
    <path
       d="m -15.808371,9.2266614 h 0.314918 v 0.9999996 h -0.314918 z"
       id="path5953"
       style="display:inline;opacity:0.7;fill:#aa8e37;fill-opacity:1;stroke:none" />
    <path
       d="m -15.336932,9.2266614 h 0.854355 v 0.9999996 h -0.854355 z"
       id="path5951"
       style="display:inline;opacity:0.7;fill:#aa8e37;fill-opacity:1;stroke:none" />
    <path
       d="m -25.665515,5.2266614 h 1.441384 v 1 h -1.441384 z"
       id="path5949"
       style="display:inline;opacity:0.7;fill:#aa8e37;fill-opacity:1;stroke:none" />
    <path
       d="m -24.071009,5.2266614 h 2.393326 v 1 h -2.393326 z"
       id="path5947"
       style="display:inline;opacity:0.7;fill:#aa8e37;fill-opacity:1;stroke:none" />
    <path
       d="m -21.524561,5.2266614 h 1.155799 v 1 h -1.155799 z"
       id="path5945"
       style="display:inline;opacity:0.7;fill:#aa8e37;fill-opacity:1;stroke:none" />
    <path
       d="m -18.986049,5.2266614 h 0.917816 v 1 h -0.917816 z"
       id="path5943"
       style="display:inline;opacity:0.7;fill:#aa8e37;fill-opacity:1;stroke:none" />
    <path
       d="m -17.915112,5.2266614 h 1.473117 v 1 h -1.473117 z"
       id="path5941"
       style="display:inline;opacity:0.7;fill:#aa8e37;fill-opacity:1;stroke:none" />
    <path
       d="m -16.288879,5.2266614 h 2.393331 v 1 h -2.393331 z"
       id="path5939"
       style="display:inline;opacity:0.7;fill:#aa8e37;fill-opacity:1;stroke:none" />
    <path
       d="m -20.215641,5.2266614 h 1.076476 v 1 h -1.076476 z"
       id="path5937"
       style="display:inline;opacity:0.7;fill:#aa8e37;fill-opacity:1;stroke:none" />
    <path
       d="m -25.665515,7.2266614 h 1.806297 v 1 h -1.806297 z"
       id="path5935"
       style="display:inline;opacity:0.7;fill:#aa8e37;fill-opacity:1;stroke:none" />
    <path
       d="m -23.710065,7.2266614 h 0.56877 v 1 h -0.56877 z"
       id="path5933"
       style="display:inline;opacity:0.7;fill:#aa8e37;fill-opacity:1;stroke:none" />
    <path
       d="m -22.992143,7.2266614 h 1.298596 v 1 h -1.298596 z"
       id="path5931"
       style="display:inline;opacity:0.7;fill:#aa8e37;fill-opacity:1;stroke:none" />
    <path
       d="m -21.544395,7.2266614 h 0.886087 v 1 h -0.886087 z"
       id="path5929"
       style="display:inline;opacity:0.7;fill:#aa8e37;fill-opacity:1;stroke:none" />
    <path
       d="m -20.509155,7.2266614 h 0.886082 v 1 h -0.886082 z"
       id="path5927"
       style="display:inline;opacity:0.7;fill:#aa8e37;fill-opacity:1;stroke:none" />
    <path
       d="m -19.473916,7.2266614 h 1.282728 v 1 h -1.282728 z"
       id="path5925"
       style="display:inline;opacity:0.7;fill:#aa8e37;fill-opacity:1;stroke:none" />
    <path
       d="m -18.042041,7.2266614 h 0.267326 v 1 h -0.267326 z"
       id="path5923"
       style="display:inline;opacity:0.7;fill:#aa8e37;fill-opacity:1;stroke:none" />
    <path
       d="m -17.625563,7.2266614 h 1.663505 v 1 h -1.663505 z"
       id="path5921"
       style="display:inline;opacity:0.7;fill:#aa8e37;fill-opacity:1;stroke:none" />
    <path
       d="m -15.812906,7.2266614 h 0.886087 v 1 h -0.886087 z"
       id="path5919"
       style="display:inline;opacity:0.7;fill:#aa8e37;fill-opacity:1;stroke:none" />
    <path
       d="m -25.665515,11.226661 h 0.727427 v 1 h -0.727427 z"
       id="path5917"
       style="display:inline;opacity:0.7;fill:#aa8e37;fill-opacity:1;stroke:none" />
    <path
       d="m -24.749835,11.226661 h 2.647178 v 1 h -2.647178 z"
       id="path5915"
       style="display:inline;opacity:0.7;fill:#aa8e37;fill-opacity:1;stroke:none" />
    <path
       d="m -18.374424,11.226661 h -0.727427 v 1 h 0.727427 z"
       id="path6838"
       style="display:inline;opacity:0.7;fill:#aa8e37;fill-opacity:1;stroke:none" />
    <path
       d="m -19.290104,11.226661 h -2.647178 v 1 h 2.647178 z"
       id="path6840"
       style="display:inline;opacity:0.7;fill:#aa8e37;fill-opacity:1;stroke:none" />
  </g>
  <path
     style="color:#000000;font-style:normal;font-variant:normal;font-weight:600;font-stretch:normal;font-size:19px;line-height:125%;font-family:'Open Sans';-inkscape-font-specification:'Open Sans Semi-Bold';text-align:start;letter-spacing:0px;word-spacing:0px;writing-mode:lr-tb;text-anchor:start;clip-rule:nonzero;display:inline;overflow:visible;visibility:visible;opacity:1;isolation:auto;mix-blend-mode:normal;color-interpolation:sRGB;color-interpolation-filters:linearRGB;solid-color:#000000;solid-opacity:1;fill:url(#linearGradient3192-0-3);fill-opacity:1;fill-rule:nonzero;stroke:none;stroke-width:1;stroke-linecap:butt;stroke-linejoin:miter;stroke-miterlimit:4;stroke-dasharray:none;stroke-dashoffset:0;stroke-opacity:1;marker:none;color-rendering:auto;image-rendering:auto;shape-rendering:auto;text-rendering:auto;enable-background:accumulate"
     d="m 11,7.9945825 c -0.722684,7e-6 -1.105747,0.107062 -1.46875,0.328125 C 9.171573,8.5407955 9,8.8879255 9,9.353958 v 1.512159 C 9,12 8.013864,11.992553 8.013864,11.992553 v 1.042623 C 8.89973,13.035178 9,13.61053 9,14.166188 v 1.365062 c 0,0.510849 0.163635,0.897955 0.5,1.125 C 9.839692,16.88628 10.230691,16.994024 11,17 v -1.000325 c -0.382991,-0.006 -0.580157,-0.07765 -0.75,-0.203125 C 10.08015,15.671079 10,15.494643 10,15.249675 v -1.605512 c 0,-0.60047 -0.781313,-1.178971 -0.781313,-1.178971 0,0 0.781313,-0.557569 0.781313,-1.152069 V 9.767005 c 0,-0.244964 0.08015,-0.40876 0.25,-0.53125 0.173174,-0.125466 0.37034,-0.203807 0.75,-0.21875 z m 4,0 v 0.9782282 c 0.379661,0.01495 0.576826,0.09328 0.75,0.2187503 0.16985,0.12249 0.25,0.286286 0.25,0.53125 v 1.666907 c 0,0.5945 0.726602,1.075474 0.726602,1.075474 0,0 -0.726602,0.633212 -0.726602,1.233682 v 1.528704 c 0,0.244968 -0.08015,0.421404 -0.25,0.546875 -0.169843,0.125471 -0.367009,0.19715 -0.75,0.203125 V 17 c 0.769309,-0.006 1.160309,-0.11372 1.5,-0.34375 0.336365,-0.227045 0.5,-0.614151 0.5,-1.125 v -1.365062 c 0,-0.555658 0.133416,-1.13101 1.019282,-1.131012 V 11.992553 C 17.776838,11.816877 17,12 17,10.866117 V 9.353958 C 17,8.8879255 16.828427,8.5407955 16.46875,8.3227075 16.105747,8.1016445 15.722685,7.9945895 15,7.9945825 Z"
     id="path3873-9" />
</svg>
