<?xml version="1.0" encoding="UTF-8" standalone="no"?>
<svg
   xmlns:dc="http://purl.org/dc/elements/1.1/"
   xmlns:cc="http://creativecommons.org/ns#"
   xmlns:rdf="http://www.w3.org/1999/02/22-rdf-syntax-ns#"
   xmlns:svg="http://www.w3.org/2000/svg"
   xmlns="http://www.w3.org/2000/svg"
   xmlns:xlink="http://www.w3.org/1999/xlink"
   id="svg3816"
   height="24"
   width="24"
   version="1.1">
  <defs
     id="defs3818">
    <linearGradient
       id="linearGradient4482">
      <stop
         id="stop4484"
         style="stop-color:#ffffff;stop-opacity:1"
         offset="0" />
      <stop
         id="stop4486"
         style="stop-color:#ffffff;stop-opacity:0.23529412"
         offset="0" />
      <stop
         id="stop4488"
         style="stop-color:#ffffff;stop-opacity:0.15686275"
         offset="1" />
      <stop
         id="stop4490"
         style="stop-color:#ffffff;stop-opacity:0.39215687"
         offset="1" />
    </linearGradient>
    <linearGradient
       id="linearGradient3977-7-61">
      <stop
         offset="0"
         style="stop-color:#ffffff;stop-opacity:1"
         id="stop3979-6-49" />
      <stop
         offset="0"
         style="stop-color:#ffffff;stop-opacity:0.23529412"
         id="stop3981-3-78" />
      <stop
         offset="1"
         style="stop-color:#ffffff;stop-opacity:0.15686275"
         id="stop3983-8-86" />
      <stop
         offset="1"
         style="stop-color:#ffffff;stop-opacity:0.39215687"
         id="stop3985-2-07" />
    </linearGradient>
    <linearGradient
       y2="41.178566"
       x2="23.99999"
       y1="6.8214221"
       x1="23.99999"
       gradientTransform="matrix(0.48648651,0,0,0.37837838,-0.17567104,4.4189213)"
       gradientUnits="userSpaceOnUse"
       id="linearGradient3297"
       xlink:href="#linearGradient4482" />
    <linearGradient
       y2="47.013336"
       x2="25.132275"
       y1="0.98520643"
       x1="25.132275"
       gradientTransform="matrix(0.57142725,0,0,0.34765344,-2.2142546,4.622975)"
       gradientUnits="userSpaceOnUse"
       id="linearGradient3300"
       xlink:href="#linearGradient4337" />
    <linearGradient
       y2="47.013336"
       x2="25.132275"
       y1="0.98520643"
       x1="25.132275"
       gradientTransform="matrix(0.55800386,0.12377147,-0.07518145,0.33929763,0.50757433,0.43113536)"
       gradientUnits="userSpaceOnUse"
       id="linearGradient4204"
       xlink:href="#linearGradient5736" />
    <linearGradient
       y2="41.182056"
       x2="24.081152"
       y1="6.8029418"
       x1="24.008398"
       gradientTransform="matrix(0.47495484,0.10529495,-0.08189607,0.3694093,2.5610785,0.63233006)"
       gradientUnits="userSpaceOnUse"
       id="linearGradient4206"
       xlink:href="#linearGradient3977-7-61" />
    <linearGradient
       gradientTransform="matrix(0.03279364,0,0,0.01512557,0.14744624,14.28089)"
       gradientUnits="userSpaceOnUse"
       xlink:href="#linearGradient5048"
       id="linearGradient3028"
       y2="609.50507"
       x2="302.85715"
       y1="366.64789"
       x1="302.85715" />
    <linearGradient
       id="linearGradient5048">
      <stop
         offset="0"
         style="stop-color:#000000;stop-opacity:0"
         id="stop5050" />
      <stop
         offset="0.5"
         style="stop-color:#000000;stop-opacity:1"
         id="stop5056" />
      <stop
         offset="1"
         style="stop-color:#000000;stop-opacity:0"
         id="stop5052" />
    </linearGradient>
    <radialGradient
       gradientTransform="matrix(0.03279364,0,0,0.01512557,0.15390003,14.28089)"
       gradientUnits="userSpaceOnUse"
       xlink:href="#linearGradient5060"
       id="radialGradient3030"
       fy="486.64789"
       fx="605.71429"
       r="117.14286"
       cy="486.64789"
       cx="605.71429" />
    <linearGradient
       id="linearGradient5060">
      <stop
         offset="0"
         style="stop-color:#000000;stop-opacity:1"
         id="stop5062" />
      <stop
         offset="1"
         style="stop-color:#000000;stop-opacity:0"
         id="stop5064" />
    </linearGradient>
    <radialGradient
       gradientTransform="matrix(-0.03279364,0,0,0.01512557,23.846113,14.28089)"
       gradientUnits="userSpaceOnUse"
       xlink:href="#linearGradient5060"
       id="radialGradient3032"
       fy="486.64789"
       fx="605.71429"
       r="117.14286"
       cy="486.64789"
       cx="605.71429" />
    <linearGradient
       gradientTransform="matrix(0.5531492,0.14755837,-0.08960859,0.33296082,0.512713,0.4598635)"
       gradientUnits="userSpaceOnUse"
       xlink:href="#linearGradient5736"
       id="linearGradient3192-0-3"
       y2="55.173134"
       x2="26.444973"
       y1="-2.1010971"
       x1="17.231043" />
    <linearGradient
       id="linearGradient5736">
      <stop
         offset="0"
         style="stop-color:#586e75;stop-opacity:1"
         id="stop5738" />
      <stop
         offset="1"
         style="stop-color:#073642;stop-opacity:1"
         id="stop5740" />
    </linearGradient>
    <linearGradient
       id="linearGradient4337">
      <stop
         offset="0"
         style="stop-color:#fdf6e3;stop-opacity:1"
         id="stop4339" />
      <stop
         offset="1"
         style="stop-color:#eee8d5;stop-opacity:1"
         id="stop4341" />
    </linearGradient>
  </defs>
  <metadata
     id="metadata3821">
    <rdf:RDF>
      <cc:Work
         rdf:about="">
        <dc:format>image/svg+xml</dc:format>
        <dc:type
           rdf:resource="http://purl.org/dc/dcmitype/StillImage" />
        <dc:title></dc:title>
      </cc:Work>
    </rdf:RDF>
  </metadata>
  <path
     style="display:inline;fill:url(#linearGradient4204);fill-opacity:1;stroke:none"
     id="path4153"
     d="m 3.9449172,2.0915913 c 4.475355,0.9926831 19.5299398,4.332981 19.5299398,4.332981 L 20.015033,22.039044 c 0,0 -13.020122,-2.888008 -19.53018009,-4.332012 C 1.6382068,12.501888 2.7915604,7.2967448 3.9449138,2.091605 Z" />
  <path
     style="opacity:0.2;fill:none;stroke:url(#linearGradient4206);stroke-width:1;stroke-linecap:round;stroke-linejoin:miter;stroke-miterlimit:4;stroke-dasharray:none;stroke-dashoffset:0;stroke-opacity:1"
     id="path4155"
     d="M 19.266073,20.807257 1.6927442,16.911344 4.7228987,3.2432001 22.296228,7.1391132 Z" />
  <path
     style="color:#000000;clip-rule:nonzero;display:inline;overflow:visible;visibility:visible;opacity:0.5;isolation:auto;mix-blend-mode:normal;color-interpolation:sRGB;color-interpolation-filters:linearRGB;solid-color:#000000;solid-opacity:1;fill:none;fill-opacity:1;fill-rule:nonzero;stroke:#001921;stroke-width:0.99992186;stroke-linecap:butt;stroke-linejoin:round;stroke-miterlimit:4;stroke-dasharray:none;stroke-dashoffset:0;stroke-opacity:1;marker:none;color-rendering:auto;image-rendering:auto;shape-rendering:auto;text-rendering:auto;enable-background:accumulate"
     id="path4151"
     d="M 20.025957,22.000039 0.49996095,17.671231 3.9630116,2.0504181 23.489008,6.3792271 Z" />
  <g
     id="g4533">
    <rect
       width="15.834642"
       height="3.6733527"
       x="4.0826831"
       y="19.826649"
       id="rect4173-4"
       style="display:inline;overflow:visible;visibility:visible;opacity:0.4;fill:url(#linearGradient3028);fill-opacity:1;fill-rule:nonzero;stroke:none;stroke-width:104.96237946;stroke-miterlimit:4;stroke-dasharray:none;marker:none" />
    <path
       d="m 19.917326,19.826774 c 0,0 0,3.67315 0,3.67315 1.688791,0.0069 4.082675,-0.822966 4.082674,-1.836811 0,-1.013845 -1.884564,-1.836339 -4.082674,-1.836339 z"
       id="path5058-9"
       style="display:inline;overflow:visible;visibility:visible;opacity:0.4;fill:url(#radialGradient3030);fill-opacity:1;fill-rule:nonzero;stroke:none;stroke-width:104.96237946;stroke-miterlimit:4;stroke-dasharray:none;marker:none" />
    <path
       d="m 4.0826831,19.826774 c 0,0 0,3.67315 0,3.67315 C 2.3938915,23.506839 7.845175e-6,22.676958 7.845175e-6,21.663113 7.845175e-6,20.649268 1.8845715,19.826774 4.0826831,19.826774 Z"
       id="path5018-53"
       style="display:inline;overflow:visible;visibility:visible;opacity:0.4;fill:url(#radialGradient3032);fill-opacity:1;fill-rule:nonzero;stroke:none;stroke-width:104.96237946;stroke-miterlimit:4;stroke-dasharray:none;marker:none" />
  </g>
  <path
     d="m 1.5,5.5 c 4.5830147,0 19.999975,0.001 19.999975,0.001 L 21.5,21.5 c 0,0 -13.3333347,0 -20,0 0,-5.33333 0,-10.66666 0,-15.999985 z"
     id="path4160-9-1"
     style="display:inline;fill:url(#linearGradient3300);fill-opacity:1;stroke:none" />
  <path
     d="m 20.500001,20.499999 -18.0000001,0 0,-14 18.0000001,0 z"
     id="rect6741-1-2-1"
     style="fill:none;stroke:url(#linearGradient3297);stroke-width:1;stroke-linecap:round;stroke-linejoin:miter;stroke-miterlimit:4;stroke-dasharray:none;stroke-dashoffset:0;stroke-opacity:1" />
  <path
     id="path3873-9"
     d="m 9,8.9945825 c -0.722684,7e-6 -1.105747,0.107062 -1.46875,0.328125 C 7.171573,9.5407955 7,9.8879255 7,10.353958 l 0,1.512159 c 0,0.277834 -0.12395,0.471958 -0.34375,0.609375 -0.216473,0.134438 -1.1927919,0.517064 -1.6423859,0.517061 l 0,1.042623 C 5.8997301,14.035178 7,14.61053 7,15.166188 l 0,1.365062 c 0,0.510849 0.163635,0.897955 0.5,1.125 C 7.839692,17.88628 8.230691,17.994024 9,18 L 9,16.999675 C 8.617009,16.993675 8.419843,16.922025 8.25,16.79655 8.08015,16.671079 8,16.494643 8,16.249675 L 8,14.994313 C 8,14.393843 7.700143,13.608469 6.9375,13.50092 l 0,-0.0625 C 7.700143,13.321914 8,12.601242 8,12.006742 l 0,-1.239737 c 0,-0.244964 0.08015,-0.40876 0.25,-0.53125 0.173174,-0.125466 0.37034,-0.203807 0.75,-0.21875 z m 5,0 0,0.9782282 c 0.379661,0.01495 0.576826,0.09328 0.75,0.2187503 0.16985,0.12249 0.25,0.286286 0.25,0.53125 l 0,1.283931 c 0,0.5945 0.299857,1.315172 1.0625,1.431678 l 0,0.0625 C 15.299857,13.608469 15,14.393843 15,14.994313 l 0,1.233265 c 0,0.244968 -0.08015,0.421404 -0.25,0.546875 -0.169843,0.125471 -0.367009,0.19715 -0.75,0.203125 L 14,18 c 0.769309,-0.006 1.160309,-0.11372 1.5,-0.34375 0.336365,-0.227045 0.5,-0.614151 0.5,-1.125 l 0,-1.365062 c 0,-0.555658 1.133416,-1.13101 2.019282,-1.131012 l 0,-1.042623 c -0.449594,3e-6 -1.459059,-0.382621 -1.675532,-0.517061 C 16.12395,12.338075 16,12.143951 16,11.866117 l 0,-1.512159 C 16,9.8879255 15.828427,9.5407955 15.46875,9.3227075 15.105747,9.1016445 14.722685,8.9945895 14,8.9945825 Z"
     style="color:#000000;font-style:normal;font-variant:normal;font-weight:600;font-stretch:normal;font-size:19px;line-height:125%;font-family:'Open Sans';-inkscape-font-specification:'Open Sans Semi-Bold';text-align:start;letter-spacing:0px;word-spacing:0px;writing-mode:lr-tb;text-anchor:start;clip-rule:nonzero;display:inline;overflow:visible;visibility:visible;opacity:1;isolation:auto;mix-blend-mode:normal;color-interpolation:sRGB;color-interpolation-filters:linearRGB;solid-color:#000000;solid-opacity:1;fill:url(#linearGradient3192-0-3);fill-opacity:1;fill-rule:nonzero;stroke:none;stroke-width:1;stroke-linecap:butt;stroke-linejoin:miter;stroke-miterlimit:4;stroke-dasharray:none;stroke-dashoffset:0;stroke-opacity:1;marker:none;color-rendering:auto;image-rendering:auto;shape-rendering:auto;text-rendering:auto;enable-background:accumulate" />
  <path
     d="m 21.500039,21.500039 -20.0000781,0 0,-16.0000778 20.0000781,0 z"
     id="rect6741-1-2-0-3"
     style="color:#000000;clip-rule:nonzero;display:inline;overflow:visible;visibility:visible;opacity:0.5;isolation:auto;mix-blend-mode:normal;color-interpolation:sRGB;color-interpolation-filters:linearRGB;solid-color:#000000;solid-opacity:1;fill:none;fill-opacity:1;fill-rule:nonzero;stroke:#aa8e37;stroke-width:0.99992174;stroke-linecap:butt;stroke-linejoin:round;stroke-miterlimit:4;stroke-dasharray:none;stroke-dashoffset:0;stroke-opacity:1;marker:none;color-rendering:auto;image-rendering:auto;shape-rendering:auto;text-rendering:auto;enable-background:accumulate" />
</svg>
