<?xml version="1.0" encoding="UTF-8" standalone="no"?>
<svg
   xmlns:dc="http://purl.org/dc/elements/1.1/"
   xmlns:cc="http://creativecommons.org/ns#"
   xmlns:rdf="http://www.w3.org/1999/02/22-rdf-syntax-ns#"
   xmlns:svg="http://www.w3.org/2000/svg"
   xmlns="http://www.w3.org/2000/svg"
   xmlns:xlink="http://www.w3.org/1999/xlink"
   version="1.1"
   width="24"
   height="24"
   id="svg3816">
  <defs
     id="defs3818">
    <linearGradient
       id="linearGradient4482">
      <stop
         offset="0"
         style="stop-color:#ffffff;stop-opacity:1"
         id="stop4484" />
      <stop
         offset="0"
         style="stop-color:#ffffff;stop-opacity:0.23529412"
         id="stop4486" />
      <stop
         offset="1"
         style="stop-color:#ffffff;stop-opacity:0.15686275"
         id="stop4488" />
      <stop
         offset="1"
         style="stop-color:#ffffff;stop-opacity:0.39215687"
         id="stop4490" />
    </linearGradient>
    <linearGradient
       id="linearGradient3977-7-61">
      <stop
         id="stop3979-6-49"
         style="stop-color:#ffffff;stop-opacity:1"
         offset="0" />
      <stop
         id="stop3981-3-78"
         style="stop-color:#ffffff;stop-opacity:0.23529412"
         offset="0" />
      <stop
         id="stop3983-8-86"
         style="stop-color:#ffffff;stop-opacity:0.15686275"
         offset="1" />
      <stop
         id="stop3985-2-07"
         style="stop-color:#ffffff;stop-opacity:0.39215687"
         offset="1" />
    </linearGradient>
    <linearGradient
       xlink:href="#linearGradient4482"
       id="linearGradient3297"
       gradientUnits="userSpaceOnUse"
       gradientTransform="matrix(0.48648651,0,0,0.37837838,-0.17567104,4.4189213)"
       x1="23.99999"
       y1="6.8214221"
       x2="23.99999"
       y2="41.178566" />
    <linearGradient
       xlink:href="#linearGradient4337"
       id="linearGradient3300"
       gradientUnits="userSpaceOnUse"
       gradientTransform="matrix(0.57142725,0,0,0.34765344,-2.2142546,4.622975)"
       x1="25.132275"
       y1="0.98520643"
       x2="25.132275"
       y2="47.013336" />
    <linearGradient
       xlink:href="#linearGradient5736"
       id="linearGradient4204"
       gradientUnits="userSpaceOnUse"
       gradientTransform="matrix(0.55800386,0.12377147,-0.07518145,0.33929763,0.50757433,0.43113536)"
       x1="25.132275"
       y1="0.98520643"
       x2="25.132275"
       y2="47.013336" />
    <linearGradient
       xlink:href="#linearGradient3977-7-61"
       id="linearGradient4206"
       gradientUnits="userSpaceOnUse"
       gradientTransform="matrix(0.47495484,0.10529495,-0.08189607,0.3694093,2.5610785,0.63233006)"
       x1="24.008398"
       y1="6.8029418"
       x2="24.081152"
       y2="41.182056" />
    <linearGradient
       x1="302.85715"
       y1="366.64789"
       x2="302.85715"
       y2="609.50507"
       id="linearGradient3028"
       xlink:href="#linearGradient5048"
       gradientUnits="userSpaceOnUse"
       gradientTransform="matrix(0.03279364,0,0,0.01512557,0.14744624,14.28089)" />
    <linearGradient
       id="linearGradient5048">
      <stop
         id="stop5050"
         style="stop-color:#000000;stop-opacity:0"
         offset="0" />
      <stop
         id="stop5056"
         style="stop-color:#000000;stop-opacity:1"
         offset="0.5" />
      <stop
         id="stop5052"
         style="stop-color:#000000;stop-opacity:0"
         offset="1" />
    </linearGradient>
    <radialGradient
       cx="605.71429"
       cy="486.64789"
       r="117.14286"
       fx="605.71429"
       fy="486.64789"
       id="radialGradient3030"
       xlink:href="#linearGradient5060"
       gradientUnits="userSpaceOnUse"
       gradientTransform="matrix(0.03279364,0,0,0.01512557,0.15390003,14.28089)" />
    <linearGradient
       id="linearGradient5060">
      <stop
         id="stop5062"
         style="stop-color:#000000;stop-opacity:1"
         offset="0" />
      <stop
         id="stop5064"
         style="stop-color:#000000;stop-opacity:0"
         offset="1" />
    </linearGradient>
    <radialGradient
       cx="605.71429"
       cy="486.64789"
       r="117.14286"
       fx="605.71429"
       fy="486.64789"
       id="radialGradient3032"
       xlink:href="#linearGradient5060"
       gradientUnits="userSpaceOnUse"
       gradientTransform="matrix(-0.03279364,0,0,0.01512557,23.846113,14.28089)" />
    <linearGradient
       id="linearGradient5736">
      <stop
         id="stop5738"
         style="stop-color:#586e75;stop-opacity:1"
         offset="0" />
      <stop
         id="stop5740"
         style="stop-color:#073642;stop-opacity:1"
         offset="1" />
    </linearGradient>
    <linearGradient
       id="linearGradient4337">
      <stop
         id="stop4339"
         style="stop-color:#fdf6e3;stop-opacity:1"
         offset="0" />
      <stop
         id="stop4341"
         style="stop-color:#eee8d5;stop-opacity:1"
         offset="1" />
    </linearGradient>
    <linearGradient
       xlink:href="#linearGradient5736"
       id="linearGradient4496"
       gradientUnits="userSpaceOnUse"
       gradientTransform="matrix(0.80384891,0.14170306,-0.08623413,0.48892969,-4.4871134,-4.641885)"
       x1="20.384232"
       y1="2.7534974"
       x2="25.581266"
       y2="51.198704" />
  </defs>
  <metadata
     id="metadata3821">
    <rdf:RDF>
      <cc:Work
         rdf:about="">
        <dc:format>image/svg+xml</dc:format>
        <dc:type
           rdf:resource="http://purl.org/dc/dcmitype/StillImage" />
        <dc:title></dc:title>
      </cc:Work>
    </rdf:RDF>
  </metadata>
  <path
     d="m 3.9449172,2.0915913 c 4.475355,0.9926831 19.5299398,4.332981 19.5299398,4.332981 L 20.015033,22.039044 c 0,0 -13.020122,-2.888008 -19.53018009,-4.332012 C 1.6382068,12.501888 2.7915604,7.2967448 3.9449138,2.091605 Z"
     id="path4153"
     style="display:inline;fill:url(#linearGradient4204);fill-opacity:1;stroke:none" />
  <path
     d="M 19.266073,20.807257 1.6927442,16.911344 4.7228987,3.2432001 22.296228,7.1391132 Z"
     id="path4155"
     style="opacity:0.2;fill:none;stroke:url(#linearGradient4206);stroke-width:1;stroke-linecap:round;stroke-linejoin:miter;stroke-miterlimit:4;stroke-dasharray:none;stroke-dashoffset:0;stroke-opacity:1" />
  <path
     d="M 20.025957,22.000039 0.49996095,17.671231 3.9630116,2.0504181 23.489008,6.3792271 Z"
     id="path4151"
     style="color:#000000;clip-rule:nonzero;display:inline;overflow:visible;visibility:visible;opacity:0.5;isolation:auto;mix-blend-mode:normal;color-interpolation:sRGB;color-interpolation-filters:linearRGB;solid-color:#000000;solid-opacity:1;fill:none;fill-opacity:1;fill-rule:nonzero;stroke:#001921;stroke-width:0.99992186;stroke-linecap:butt;stroke-linejoin:round;stroke-miterlimit:4;stroke-dasharray:none;stroke-dashoffset:0;stroke-opacity:1;marker:none;color-rendering:auto;image-rendering:auto;shape-rendering:auto;text-rendering:auto;enable-background:accumulate" />
  <g
     id="g4533">
    <rect
       style="display:inline;overflow:visible;visibility:visible;opacity:0.4;fill:url(#linearGradient3028);fill-opacity:1;fill-rule:nonzero;stroke:none;stroke-width:104.96237946;stroke-miterlimit:4;stroke-dasharray:none;marker:none"
       id="rect4173-4"
       y="19.826649"
       x="4.0826831"
       height="3.6733527"
       width="15.834642" />
    <path
       style="display:inline;overflow:visible;visibility:visible;opacity:0.4;fill:url(#radialGradient3030);fill-opacity:1;fill-rule:nonzero;stroke:none;stroke-width:104.96237946;stroke-miterlimit:4;stroke-dasharray:none;marker:none"
       id="path5058-9"
       d="m 19.917326,19.826774 c 0,0 0,3.67315 0,3.67315 1.688791,0.0069 4.082675,-0.822966 4.082674,-1.836811 0,-1.013845 -1.884564,-1.836339 -4.082674,-1.836339 z" />
    <path
       style="display:inline;overflow:visible;visibility:visible;opacity:0.4;fill:url(#radialGradient3032);fill-opacity:1;fill-rule:nonzero;stroke:none;stroke-width:104.96237946;stroke-miterlimit:4;stroke-dasharray:none;marker:none"
       id="path5018-53"
       d="m 4.0826831,19.826774 c 0,0 0,3.67315 0,3.67315 C 2.3938915,23.506839 7.845175e-6,22.676958 7.845175e-6,21.663113 7.845175e-6,20.649268 1.8845715,19.826774 4.0826831,19.826774 Z" />
  </g>
  <path
     style="display:inline;fill:url(#linearGradient3300);fill-opacity:1;stroke:none"
     id="path4160-9-1"
     d="m 1.5,5.5 c 4.5830147,0 19.999975,0.001 19.999975,0.001 L 21.5,21.5 c 0,0 -13.3333347,0 -20,0 0,-5.33333 0,-10.66666 0,-15.999985 z" />
  <path
     style="fill:none;stroke:url(#linearGradient3297);stroke-width:1;stroke-linecap:round;stroke-linejoin:miter;stroke-miterlimit:4;stroke-dasharray:none;stroke-dashoffset:0;stroke-opacity:1"
     id="rect6741-1-2-1"
     d="m 20.500001,20.499999 -18.0000001,0 0,-14 18.0000001,0 z" />
  <path
     style="color:#000000;clip-rule:nonzero;display:inline;overflow:visible;visibility:visible;opacity:0.5;isolation:auto;mix-blend-mode:normal;color-interpolation:sRGB;color-interpolation-filters:linearRGB;solid-color:#000000;solid-opacity:1;fill:none;fill-opacity:1;fill-rule:nonzero;stroke:#aa8e37;stroke-width:0.99992174;stroke-linecap:butt;stroke-linejoin:round;stroke-miterlimit:4;stroke-dasharray:none;stroke-dashoffset:0;stroke-opacity:1;marker:none;color-rendering:auto;image-rendering:auto;shape-rendering:auto;text-rendering:auto;enable-background:accumulate"
     id="rect6741-1-2-0-3"
     d="m 21.500039,21.500039 -20.0000781,0 0,-16.0000778 20.0000781,0 z" />
  <path
     id="path3826-5"
     d="m 9.5000001,8.984375 c -0.89872,9e-6 -1.8923241,0.160004 -2.34375,0.4375 -0.4472901,0.273761 -0.65625,0.696249 -0.65625,1.28125 l 0,1.28125 c 0,0.348759 -0.1641601,0.577502 -0.4375,0.75 -0.2692031,0.168756 -1.0033904,0.281254 -1.5625002,0.28125 l 0,1 C 5.601651,14.015627 6.5,14.380618 6.5,15.078125 l 0,1.09375 c 0,0.641256 0.2067,1.121244 0.625,1.40625 0.422435,0.288751 1.418299,0.429997 2.375,0.4375 l 0,-1.03125 c -0.476282,-0.0075 -1.476285,-0.0925 -1.6875,-0.25 C 7.601277,16.576874 7.5,16.354378 7.5,16.046875 l 0,-1.1875 c 0,-0.306801 -0.114087,-1.208745 -1.0625,-1.34375 l 0,-0.0625 C 7.385913,13.306877 7.5,12.579605 7.5,12.140625 l 0,-1.1875 c 0,-0.307498 0.101283,-0.502491 0.3125,-0.65625 0.2153571,-0.157495 1.21536,-0.262493 1.6875001,-0.28125 l 0,-1.03125 z m 3.9999999,0 0,1.03125 c 0.47214,0.01876 1.472143,0.123755 1.6875,0.28125 0.211217,0.153759 0.3125,0.348752 0.3125,0.65625 l 0,1.1875 c 0,0.43898 0.114087,1.166252 1.0625,1.3125 l 0,0.0625 C 15.614087,13.65063 15.5,14.552574 15.5,14.859375 l 0,1.1875 c 0,0.307503 -0.101277,0.529999 -0.3125,0.6875 -0.211215,0.157499 -1.211218,0.2425 -1.6875,0.25 l 0,1.03125 c 0.956701,-0.0075 1.952565,-0.148749 2.375,-0.4375 0.4183,-0.285006 0.625,-0.764994 0.625,-1.40625 l 0,-1.09375 c 0,-0.697507 0.898349,-1.062498 2,-1.0625 l 0,-1 c -0.55911,4e-6 -1.293297,-0.112494 -1.5625,-0.28125 -0.27334,-0.172498 -0.4375,-0.401241 -0.4375,-0.75 l 0,-1.28125 C 16.5,10.118124 16.29104,9.695636 15.84375,9.421875 15.392324,9.144379 14.39872,8.984384 13.5,8.984375 Z"
     style="color:#000000;font-style:normal;font-variant:normal;font-weight:600;font-stretch:normal;font-size:19px;line-height:125%;font-family:'Open Sans';-inkscape-font-specification:'Open Sans Semi-Bold';text-align:start;letter-spacing:0px;word-spacing:0px;writing-mode:lr-tb;text-anchor:start;clip-rule:nonzero;display:inline;overflow:visible;visibility:visible;opacity:1;isolation:auto;mix-blend-mode:normal;color-interpolation:sRGB;color-interpolation-filters:linearRGB;solid-color:#000000;solid-opacity:1;fill:url(#linearGradient4496);fill-opacity:1;fill-rule:nonzero;stroke:none;stroke-width:1;stroke-linecap:butt;stroke-linejoin:miter;stroke-miterlimit:4;stroke-dasharray:none;stroke-dashoffset:0;stroke-opacity:1;marker:none;color-rendering:auto;image-rendering:auto;shape-rendering:auto;text-rendering:auto;enable-background:accumulate" />
</svg>
