<?xml version="1.0" encoding="UTF-8" standalone="no"?>
<svg
   xmlns:dc="http://purl.org/dc/elements/1.1/"
   xmlns:cc="http://creativecommons.org/ns#"
   xmlns:rdf="http://www.w3.org/1999/02/22-rdf-syntax-ns#"
   xmlns:svg="http://www.w3.org/2000/svg"
   xmlns="http://www.w3.org/2000/svg"
   xmlns:xlink="http://www.w3.org/1999/xlink"
   id="svg3828"
   height="128"
   width="128"
   version="1.1">
  <defs
     id="defs3830">
    <linearGradient
       gradientTransform="matrix(2.891892,0,0,2.3243242,-5.4053886,12.716354)"
       gradientUnits="userSpaceOnUse"
       xlink:href="#linearGradient3977-7-8"
       id="linearGradient5157"
       y2="42.284828"
       x2="41.19519"
       y1="5.7150574"
       x1="41.19519" />
    <linearGradient
       id="linearGradient3977-7-8">
      <stop
         offset="0"
         style="stop-color:#ffffff;stop-opacity:1"
         id="stop3979-6-0" />
      <stop
         offset="0"
         style="stop-color:#ffffff;stop-opacity:0.23529412"
         id="stop3981-3-70" />
      <stop
         offset="0.99999994"
         style="stop-color:#ffffff;stop-opacity:0.15686275"
         id="stop3983-8-2" />
      <stop
         offset="1"
         style="stop-color:#ffffff;stop-opacity:0.39215687"
         id="stop3985-2-7" />
    </linearGradient>
    <linearGradient
       gradientTransform="matrix(3.1142792,0,0,1.9120949,-10.742693,19.676374)"
       gradientUnits="userSpaceOnUse"
       xlink:href="#linearGradient4337"
       id="linearGradient5165"
       y2="47.013336"
       x2="25.132275"
       y1="0.98520643"
       x1="25.132275" />
    <radialGradient
       gradientTransform="matrix(2.4655539,0,0,0.16715632,10.836737,106.23354)"
       gradientUnits="userSpaceOnUse"
       xlink:href="#linearGradient5071-7-3-5"
       id="radialGradient3846"
       fy="40.430397"
       fx="19.53446"
       r="23.929714"
       cy="40.430397"
       cx="19.53446" />
    <linearGradient
       id="linearGradient5071-7-3-5">
      <stop
         offset="0"
         style="stop-color:#000000;stop-opacity:1"
         id="stop5073-2-9-7" />
      <stop
         offset="1"
         style="stop-color:#000000;stop-opacity:0"
         id="stop5075-2-1-0" />
    </linearGradient>
    <linearGradient
       id="linearGradient3977-7-0-9">
      <stop
         offset="0"
         style="stop-color:#ffffff;stop-opacity:1"
         id="stop3979-6-4-1" />
      <stop
         offset="0.00515018"
         style="stop-color:#ffffff;stop-opacity:0.23529412"
         id="stop3981-3-7-3" />
      <stop
         offset="0.99146652"
         style="stop-color:#ffffff;stop-opacity:0.15686275"
         id="stop3983-8-8-6" />
      <stop
         offset="1"
         style="stop-color:#ffffff;stop-opacity:0.39215687"
         id="stop3985-2-0-9" />
    </linearGradient>
    <linearGradient
       gradientTransform="matrix(2.7703666,0.74708121,-0.59662897,2.2409388,11.832201,-6.7134967)"
       gradientUnits="userSpaceOnUse"
       xlink:href="#linearGradient3977-7-0-9"
       id="linearGradient3826"
       y2="42.37582"
       x2="41.19519"
       y1="5.5395665"
       x1="41.19519" />
    <linearGradient
       id="linearGradient5736">
      <stop
         id="stop5738"
         style="stop-color:#586e75;stop-opacity:1"
         offset="0" />
      <stop
         id="stop5740"
         style="stop-color:#073642;stop-opacity:1"
         offset="1" />
    </linearGradient>
    <linearGradient
       id="linearGradient4337">
      <stop
         id="stop4339"
         style="stop-color:#fdf6e3;stop-opacity:1"
         offset="0" />
      <stop
         id="stop4341"
         style="stop-color:#eee8d5;stop-opacity:1"
         offset="1" />
    </linearGradient>
    <linearGradient
       y2="54.477512"
       x2="26.343443"
       y1="-1.6629155"
       x1="17.233864"
       gradientTransform="matrix(2.9813606,0.79277801,-0.48877088,1.8105292,4.9284745,-4.3609206)"
       gradientUnits="userSpaceOnUse"
       id="linearGradient5857"
       xlink:href="#linearGradient5736" />
    <linearGradient
       gradientTransform="matrix(3.12379,0.8314754,-0.51639697,1.9149928,2.2390053,-3.8151992)"
       gradientUnits="userSpaceOnUse"
       xlink:href="#linearGradient5736"
       id="linearGradient4298-4-4-3"
       y2="53.809238"
       x2="26.233234"
       y1="-0.56293511"
       x1="17.266434" />
  </defs>
  <metadata
     id="metadata3833">
    <rdf:RDF>
      <cc:Work
         rdf:about="">
        <dc:format>image/svg+xml</dc:format>
        <dc:type
           rdf:resource="http://purl.org/dc/dcmitype/StillImage" />
        <dc:title></dc:title>
      </cc:Work>
    </rdf:RDF>
  </metadata>
  <path
     style="color:#000000;clip-rule:nonzero;display:inline;overflow:visible;visibility:visible;opacity:1;isolation:auto;mix-blend-mode:normal;color-interpolation:sRGB;color-interpolation-filters:linearRGB;solid-color:#000000;solid-opacity:1;fill:url(#linearGradient4298-4-4-3);fill-opacity:1;fill-rule:nonzero;stroke:none;stroke-width:1;stroke-linecap:butt;stroke-linejoin:miter;stroke-miterlimit:4;stroke-dasharray:none;stroke-dashoffset:0;stroke-opacity:1;color-rendering:auto;image-rendering:auto;shape-rendering:auto;text-rendering:auto;enable-background:accumulate"
     id="path4160-9-9"
     d="M 23.092303,8.5174688 C 47.021688,14.970578 127.51717,36.683668 127.51717,36.683668 l -22.59349,84.860322 c 0,0 -69.617586,-18.77397 -104.42638685,-28.160964 C 8.0289605,65.094526 15.56063,36.806017 23.092294,8.5175026 Z" />
  <path
     style="opacity:0.2;fill:none;stroke:url(#linearGradient3826);stroke-width:1;stroke-linecap:round;stroke-linejoin:miter;stroke-miterlimit:4;stroke-dasharray:none;stroke-dashoffset:0;stroke-opacity:1"
     id="rect6741-1-2-03"
     d="M 104.21604,120.27733 1.7124732,92.63533 23.787748,9.7205874 126.29131,37.362592 Z" />
  <path
     style="color:#000000;clip-rule:nonzero;display:inline;overflow:visible;visibility:visible;opacity:0.5;isolation:auto;mix-blend-mode:normal;color-interpolation:sRGB;color-interpolation-filters:linearRGB;solid-color:#000000;solid-opacity:1;fill:none;fill-opacity:1;fill-rule:nonzero;stroke:#001921;stroke-width:0.99992186;stroke-linecap:butt;stroke-linejoin:round;stroke-miterlimit:4;stroke-dasharray:none;stroke-dashoffset:0;stroke-opacity:1;marker:none;color-rendering:auto;image-rendering:auto;shape-rendering:auto;text-rendering:auto;enable-background:accumulate"
     id="rect6741-1-2-0-8"
     d="M 104.91955,121.49178 0.49996264,93.333085 23.088682,8.4898412 127.50827,36.648537 Z" />
  <path
     d="m 118,112.99172 a 59.000002,4.0000031 0 0 1 -117.999999,0 59.000002,4.0000031 0 1 1 117.999999,0 z"
     id="path5050-4"
     style="color:#000000;display:inline;overflow:visible;visibility:visible;opacity:0.2;fill:url(#radialGradient3846);fill-opacity:1;fill-rule:nonzero;stroke:none;stroke-width:0.99992174;marker:none;enable-background:accumulate" />
  <path
     d="m 9.5,24.5 c 24.977435,0 108.99988,0.0055 108.99988,0.0055 L 118.5,112.5 c 0,0 -72.666657,0 -109,0 0,-29.333315 0,-58.666634 0,-87.999965 z"
     id="path4160-9-6"
     style="display:inline;fill:url(#linearGradient5165);fill-opacity:1;stroke:none" />
  <path
     d="m 117.5,111.5001 -106.999999,0 0,-85.999984 106.999999,0 z"
     id="rect6741-1-2-83"
     style="fill:none;stroke:url(#linearGradient5157);stroke-width:0.99999994;stroke-linecap:round;stroke-linejoin:miter;stroke-miterlimit:4;stroke-dasharray:none;stroke-dashoffset:0;stroke-opacity:1" />
  <path
     d="m 118.50009,112.49177 -109.0000731,0 0,-88.000252 109.0000731,0 z"
     id="rect6741-1-2-0-1"
     style="color:#000000;clip-rule:nonzero;display:inline;overflow:visible;visibility:visible;opacity:0.5;isolation:auto;mix-blend-mode:normal;color-interpolation:sRGB;color-interpolation-filters:linearRGB;solid-color:#000000;solid-opacity:1;fill:none;fill-opacity:1;fill-rule:nonzero;stroke:#aa8e37;stroke-width:0.99992174;stroke-linecap:butt;stroke-linejoin:round;stroke-miterlimit:4;stroke-dasharray:none;stroke-dashoffset:0;stroke-opacity:1;marker:none;color-rendering:auto;image-rendering:auto;shape-rendering:auto;text-rendering:auto;enable-background:accumulate" />
  <path
     style="color:#000000;font-style:normal;font-variant:normal;font-weight:600;font-stretch:normal;font-size:19px;line-height:125%;font-family:'Open Sans';-inkscape-font-specification:'Open Sans Semi-Bold';text-align:start;letter-spacing:0px;word-spacing:0px;writing-mode:lr-tb;text-anchor:start;clip-rule:nonzero;display:inline;overflow:visible;visibility:visible;opacity:1;isolation:auto;mix-blend-mode:normal;color-interpolation:sRGB;color-interpolation-filters:linearRGB;solid-color:#000000;solid-opacity:1;fill:url(#linearGradient5857);fill-opacity:1;fill-rule:nonzero;stroke:none;stroke-width:1;stroke-linecap:butt;stroke-linejoin:miter;stroke-miterlimit:4;stroke-dasharray:none;stroke-dashoffset:0;stroke-opacity:1;marker:none;color-rendering:auto;image-rendering:auto;shape-rendering:auto;text-rendering:auto;enable-background:accumulate"
     d="m 54,53 c -2.89074,2.8e-5 -4.42298,0.428249 -5.874999,1.3125 C 46.68628,55.184851 46,56.573372 46,58.4375 L 46,64 c 0,1.111334 -0.495799,1.88783 -1.375,2.4375 -0.86588,0.537751 -2.82662,0.875011 -4.625,0.875 l 0,3.375 c 3.54346,8e-6 6,1.152366 6,3.375 l 0,5.0625 c 0,2.043394 0.65454,3.591819 2,4.5 1.35876,0.920118 2.92276,1.351094 6,1.375 l 0,-3.25 C 52.468041,81.7261 51.67938,81.439383 51.000001,80.9375 50.3206,80.435614 50,79.729873 50,78.75 l 0,-5.375 c 0,-2.401881 -1.19942,-3.819803 -4.25,-4.25 l 0,-0.25 C 48.80058,68.408974 50,66.940502 50,64.5625 L 50,59.25 c 0,-0.979855 0.3206,-1.635041 1.000001,-2.125 C 51.6927,56.623136 52.48136,56.30977 54,56.25 L 54,53 Z m 20,0 0,3.25 c 1.51864,0.05978 2.3073,0.373136 2.999999,0.875 C 77.6794,57.61496 78,58.270145 78,59.25 l 0,5.3125 c 0,2.378002 1.19942,3.846474 4.25,4.3125 l 0,0.25 C 79.19942,69.555197 78,70.973119 78,73.375 l 0,5.375 c 0,0.979873 -0.3206,1.685614 -1.000001,2.1875 C 76.32062,81.439383 75.531959,81.7261 74,81.75 L 74,85 c 3.07724,-0.0239 4.64124,-0.454882 6,-1.375 1.34546,-0.908181 2,-2.456606 2,-4.5 l 0,-5.0625 c 0,-2.222634 2.45654,-3.374992 6,-3.375 l 0,-3.375 c -1.79838,1.2e-5 -3.75912,-0.337249 -4.625,-0.875 C 82.495799,65.88783 82,65.111334 82,64 l 0,-5.5625 C 82,56.573372 81.313699,55.184851 79.874999,54.3125 78.42298,53.428249 76.89074,53.000028 74,53 Z"
     id="path3873-9" />
</svg>
