<?xml version="1.0" encoding="UTF-8" standalone="no"?>
<svg
   xmlns:dc="http://purl.org/dc/elements/1.1/"
   xmlns:cc="http://creativecommons.org/ns#"
   xmlns:rdf="http://www.w3.org/1999/02/22-rdf-syntax-ns#"
   xmlns:svg="http://www.w3.org/2000/svg"
   xmlns="http://www.w3.org/2000/svg"
   xmlns:xlink="http://www.w3.org/1999/xlink"
   xmlns:sodipodi="http://sodipodi.sourceforge.net/DTD/sodipodi-0.dtd"
   xmlns:inkscape="http://www.inkscape.org/namespaces/inkscape"
   version="1.1"
   width="16"
   height="16"
   id="svg3508"
   inkscape:version="0.91 r13725"
   sodipodi:docname="io.elementary.code.svg">
  <sodipodi:namedview
     pagecolor="#ffffff"
     bordercolor="#666666"
     borderopacity="1"
     objecttolerance="10"
     gridtolerance="10"
     guidetolerance="10"
     inkscape:pageopacity="0"
     inkscape:pageshadow="2"
     inkscape:window-width="1920"
     inkscape:window-height="1017"
     id="namedview53"
     showgrid="false"
     inkscape:zoom="1"
     inkscape:cx="-29.69642"
     inkscape:cy="-35.029337"
     inkscape:window-x="0"
     inkscape:window-y="30"
     inkscape:window-maximized="1"
     inkscape:current-layer="svg3508" />
  <defs
     id="defs3510">
    <linearGradient
       id="linearGradient4181">
      <stop
         offset="0"
         style="stop-color:#7a36b1;stop-opacity:1"
         id="stop4183" />
      <stop
         offset="1"
         style="stop-color:#4c158a;stop-opacity:1"
         id="stop4185" />
    </linearGradient>
    <linearGradient
       x1="23.995657"
       y1="-0.66665286"
       x2="23.99999"
       y2="40.444462"
       id="linearGradient3174-3"
       xlink:href="#linearGradient3977-7-7"
       gradientUnits="userSpaceOnUse"
       gradientTransform="matrix(0.29729729,0,0,0.24324323,1.8661564,3.1621588)" />
    <linearGradient
       id="linearGradient3977-7-7">
      <stop
         id="stop3979-6-6"
         style="stop-color:#ffffff;stop-opacity:1"
         offset="0" />
      <stop
         id="stop3981-3-44"
         style="stop-color:#ffffff;stop-opacity:0.23529412"
         offset="0" />
      <stop
         id="stop3983-8-5"
         style="stop-color:#ffffff;stop-opacity:0.15686275"
         offset="0.99999994" />
      <stop
         id="stop3985-2-08"
         style="stop-color:#ffffff;stop-opacity:0.39215687"
         offset="1" />
    </linearGradient>
    <linearGradient
       x1="25.132275"
       y1="0.98520643"
       x2="25.132275"
       y2="47.013336"
       id="linearGradient3182-5"
       xlink:href="#linearGradient4337"
       gradientUnits="userSpaceOnUse"
       gradientTransform="matrix(0.37142773,0,0,0.23901171,-1.9142624,2.8970461)" />
    <linearGradient
       id="linearGradient5736">
      <stop
         id="stop5738"
         style="stop-color:#ad65d6;stop-opacity:1"
         offset="0" />
      <stop
         id="stop5740"
         style="stop-color:#4c158a;stop-opacity:1"
         offset="1" />
    </linearGradient>
    <linearGradient
       id="linearGradient4337">
      <stop
         id="stop4339"
         style="stop-color:#fdf6e3;stop-opacity:1"
         offset="0" />
      <stop
         id="stop4341"
         style="stop-color:#eee8d5;stop-opacity:1"
         offset="1" />
    </linearGradient>
    <linearGradient
       gradientTransform="matrix(0.34025771,0.09076733,-0.05512078,0.20481361,1.2325009,-0.0196911)"
       gradientUnits="userSpaceOnUse"
       xlink:href="#linearGradient5736"
       id="linearGradient3192-0-3"
       y2="55.173134"
       x2="26.444973"
       y1="-2.1010971"
       x1="17.231043" />
    <linearGradient
       y2="47.013336"
       x2="25.132275"
       y1="0.98520643"
       x1="25.132275"
       gradientTransform="matrix(0.37142773,0,0,0.23901171,-1.9142624,2.8970461)"
       gradientUnits="userSpaceOnUse"
       id="linearGradient4526"
       xlink:href="#linearGradient4181" />
    <linearGradient
       y2="40.444462"
       x2="23.99999"
       y1="-0.66665286"
       x1="23.995657"
       gradientTransform="matrix(0.29729729,0,0,0.24324323,1.8661564,3.1621588)"
       gradientUnits="userSpaceOnUse"
       id="linearGradient4528"
       xlink:href="#linearGradient3977-7-7" />
  </defs>
  <metadata
     id="metadata3513">
    <rdf:RDF>
      <cc:Work
         rdf:about="">
        <dc:format>image/svg+xml</dc:format>
        <dc:type
           rdf:resource="http://purl.org/dc/dcmitype/StillImage" />
        <dc:title />
      </cc:Work>
    </rdf:RDF>
  </metadata>
  <g
     transform="rotate(-5,3.5012863,13.500005)"
     id="g4524">
    <path
       style="display:inline;fill:url(#linearGradient4526);fill-opacity:1;stroke:#260063;stroke-linejoin:round;stroke-opacity:0.49803922"
       id="path4520"
       d="m 2.5,1.5 c 2.9789608,0 10.999989,6.82e-4 10.999989,6.82e-4 L 13.5,14.5 H 2.5 V 1.500011 Z" />
    <path
       style="opacity:0.3;fill:none;stroke:url(#linearGradient4528);stroke-width:1;stroke-linecap:round;stroke-linejoin:miter;stroke-miterlimit:4;stroke-dasharray:none;stroke-dashoffset:0;stroke-opacity:1"
       id="path4522"
       d="M 12.501286,13.5 H 3.5012863 V 2.4999988 h 8.9999997 z" />
  </g>
  <g
     id="g4518">
    <path
       d="m 2.5,1.5 c 2.9789608,0 10.999989,6.82e-4 10.999989,6.82e-4 L 13.5,14.5 H 2.5 V 1.500011 Z"
       id="path4160-9-97"
       style="display:inline;fill:url(#linearGradient3182-5);fill-opacity:1;stroke:#aa8e37;stroke-linejoin:round;stroke-opacity:0.49803922" />
    <path
       d="M 12.501286,13.5 H 3.5012863 V 2.4999988 h 8.9999997 z"
       id="rect6741-1-2-2"
       style="fill:none;stroke:url(#linearGradient3174-3);stroke-width:1;stroke-linecap:round;stroke-linejoin:miter;stroke-miterlimit:4;stroke-dasharray:none;stroke-dashoffset:0;stroke-opacity:1" />
  </g>
  <g
     style="fill:#aa8e37;fill-opacity:1;opacity:0.2"
     id="g4198"
     transform="matrix(1.0195441,0,0,1,30.167124,4.7752921)">
    <path
       style="display:inline;opacity:0.7;fill:#aa8e37;fill-opacity:1;stroke:none"
       id="path6035"
       d="m -25.665515,-1.773339 h 1.124072 v 1 h -1.124072 z" />
    <path
       style="display:inline;opacity:0.7;fill:#aa8e37;fill-opacity:1;stroke:none"
       id="path6033"
       d="m -24.388326,-1.773339 h 1.060612 v 1 h -1.060612 z" />
    <path
       style="display:inline;opacity:0.7;fill:#aa8e37;fill-opacity:1;stroke:none"
       id="path6031"
       d="m -23.174597,-1.773339 h 0.933684 v 1 h -0.933684 z" />
    <path
       style="display:inline;opacity:0.7;fill:#aa8e37;fill-opacity:1;stroke:none"
       id="path6029"
       d="m -22.087797,-1.773339 h 0.410114 v 1 h -0.410114 z" />
    <path
       style="display:inline;opacity:0.7;fill:#aa8e37;fill-opacity:1;stroke:none"
       id="path6027"
       d="m -21.524561,-1.773339 h 0.917815 v 1 h -0.917815 z" />
    <path
       style="display:inline;opacity:0.7;fill:#aa8e37;fill-opacity:1;stroke:none"
       id="path6025"
       d="m -20.453624,-1.773339 h 2.377462 v 1 h -2.377462 z" />
    <path
       style="display:inline;opacity:0.7;fill:#aa8e37;fill-opacity:1;stroke:none"
       id="path6017"
       d="m -25.665515,4.226661 h 1.124072 v 1 h -1.124072 z" />
    <path
       style="display:inline;opacity:0.7;fill:#aa8e37;fill-opacity:1;stroke:none"
       id="path6015"
       d="m -24.388327,4.226661 h 1.060612 v 1 h -1.060612 z" />
    <path
       style="display:inline;opacity:0.7;fill:#aa8e37;fill-opacity:1;stroke:none"
       id="path6013"
       d="m -23.174598,4.226661 h 0.933683 v 1 h -0.933683 z" />
    <path
       style="display:inline;opacity:0.7;fill:#aa8e37;fill-opacity:1;stroke:none"
       id="path6011"
       d="m -22.087799,4.226661 h 0.410114 v 1 h -0.410114 z" />
    <path
       style="display:inline;opacity:0.7;fill:#aa8e37;fill-opacity:1;stroke:none"
       id="path6009"
       d="m -21.524563,4.226661 h 0.917814 v 1 h -0.917814 z" />
    <path
       style="display:inline;opacity:0.7;fill:#aa8e37;fill-opacity:1;stroke:none"
       id="path5999"
       d="m -25.665515,0.22666104 h 1.742834 V 1.226661 h -1.742834 z" />
    <path
       style="display:inline;opacity:0.7;fill:#aa8e37;fill-opacity:1;stroke:none"
       id="path5997"
       d="m -23.76361,0.22666104 h 0.838487 V 1.226661 h -0.838487 z" />
    <path
       style="display:inline;opacity:0.7;fill:#aa8e37;fill-opacity:1;stroke:none"
       id="path5995"
       d="m -22.766052,0.22666104 h 0.394245 V 1.226661 h -0.394245 z" />
    <path
       style="display:inline;opacity:0.7;fill:#aa8e37;fill-opacity:1;stroke:none"
       id="path5993"
       d="m -22.212735,0.22666104 h 0.759159 V 1.226661 h -0.759159 z" />
    <path
       style="display:inline;opacity:0.7;fill:#aa8e37;fill-opacity:1;stroke:none"
       id="path5991"
       d="m -21.29451,0.22666104 h 0.759159 V 1.226661 h -0.759159 z" />
    <path
       style="display:inline;opacity:0.7;fill:#aa8e37;fill-opacity:1;stroke:none"
       id="path5989"
       d="m -20.376281,0.22666104 h 1.219264 V 1.226661 h -1.219264 z" />
    <path
       style="display:inline;opacity:0.7;fill:#aa8e37;fill-opacity:1;stroke:none"
       id="path5981"
       d="m -25.665515,2.226661 h 1.996685 v 1 h -1.996685 z" />
    <path
       style="display:inline;opacity:0.7;fill:#aa8e37;fill-opacity:1;stroke:none"
       id="path5979"
       d="m -23.512309,2.226661 h 2.139471 v 1 h -2.139471 z" />
    <path
       style="display:inline;opacity:0.7;fill:#aa8e37;fill-opacity:1;stroke:none"
       id="path5977"
       d="m -21.216317,2.226661 h 0.854355 v 1 h -0.854355 z" />
    <path
       style="display:inline;opacity:0.7;fill:#aa8e37;fill-opacity:1;stroke:none"
       id="path5975"
       d="m -20.205441,2.226661 h 2.012548 v 1 h -2.012548 z" />
    <path
       style="display:inline;opacity:0.7;fill:#aa8e37;fill-opacity:1;stroke:none"
       id="path2916"
       d="m -25.665515,6.226661 h 1.124072 v 1 h -1.124072 z" />
    <path
       style="display:inline;opacity:0.7;fill:#aa8e37;fill-opacity:1;stroke:none"
       id="path2918"
       d="m -24.388327,6.226661 h 1.060612 v 1 h -1.060612 z" />
    <path
       style="display:inline;opacity:0.7;fill:#aa8e37;fill-opacity:1;stroke:none"
       id="path2920"
       d="m -23.174598,6.226661 h 0.933683 v 1 h -0.933683 z" />
  </g>
  <path
     style="color:#000000;font-style:normal;font-variant:normal;font-weight:600;font-stretch:normal;font-size:19px;line-height:125%;font-family:'Open Sans';-inkscape-font-specification:'Open Sans Semi-Bold';text-align:start;letter-spacing:0px;word-spacing:0px;writing-mode:lr-tb;text-anchor:start;clip-rule:nonzero;display:inline;overflow:visible;visibility:visible;opacity:1;isolation:auto;mix-blend-mode:normal;color-interpolation:sRGB;color-interpolation-filters:linearRGB;solid-color:#000000;solid-opacity:1;fill:url(#linearGradient3192-0-3);fill-opacity:1;fill-rule:nonzero;stroke:none;stroke-width:1;stroke-linecap:butt;stroke-linejoin:miter;stroke-miterlimit:4;stroke-dasharray:none;stroke-dashoffset:0;stroke-opacity:1;marker:none;color-rendering:auto;image-rendering:auto;shape-rendering:auto;text-rendering:auto;enable-background:accumulate"
     d="M 7.0117188,5.0019531 C 6.5671755,5.0019575 5.5533715,5.067143 5.3300781,5.203125 5.1088306,5.3372771 5.0019531,5.7797365 5.0019531,6.0664062 v 0.7519532 c 0,0.1709036 -0.075732,0.2904709 -0.2109375,0.375 C 4.6578569,7.2760564 4.278511,7.5117207 4.0019531,7.5117188 v 0.9550781 c 0.5449213,1.3e-6 1,0.3535115 1,0.6953121 v 0.705079 c 0,0.314237 0.1016857,0.747057 0.3085938,0.886718 0.2089542,0.141498 1.2279482,0.207262 1.7011719,0.210938 V 10.001953 C 6.7761303,9.998263 6.2490065,9.954137 6.1445312,9.876953 6.0400516,9.799773 5.9902344,9.691703 5.9902344,9.541016 V 8.9199219 c 0,-0.369366 -0.5562674,-0.8518123 -1.0253906,-0.9179688 V 7.9628906 C 5.433967,7.891225 5.9902344,7.4496781 5.9902344,7.0839844 V 6.4726562 c 0,-0.1506844 0.049818,-0.2508247 0.1542968,-0.3261718 0.1065245,-0.077177 0.633648,-0.1255737 0.8671876,-0.1347656 z m 1.9882812,0 v 1.0097657 c 0.23354,0.00919 0.7606635,0.057589 0.8671875,0.1347656 0.104482,0.075347 0.1542965,0.1754874 0.1542965,0.3261718 v 0.6113282 c 0,0.3656937 0.558221,0.8072406 1.027344,0.8789062 v 0.039063 c -0.469123,0.066156 -1.027344,0.5486028 -1.027344,0.9179688 V 9.541016 c 0,0.150687 -0.049816,0.258757 -0.1542965,0.335937 C 9.7627125,9.954141 9.235589,9.998253 9,10.001953 v 0.962891 c 0.473224,-0.0037 1.49417,-0.06944 1.703125,-0.210938 0.206908,-0.139661 0.306641,-0.572481 0.306641,-0.886718 V 9.162109 c 0,-0.3418006 0.457032,-0.6953108 1.001953,-0.6953121 V 7.5117188 c -0.276558,1.9e-6 -0.657857,-0.2356624 -0.791016,-0.3183594 -0.1352,-0.084529 -0.210937,-0.2040964 -0.210937,-0.375 V 6.0664062 c 0,-0.2866697 -0.104925,-0.7291291 -0.326172,-0.8632812 C 10.4603,5.0671431 9.444543,5.0019575 9,5.0019531 Z"
     id="path3873-9" />
</svg>
