<?xml version="1.0" encoding="UTF-8" standalone="no"?>
<svg
   xmlns:dc="http://purl.org/dc/elements/1.1/"
   xmlns:cc="http://creativecommons.org/ns#"
   xmlns:rdf="http://www.w3.org/1999/02/22-rdf-syntax-ns#"
   xmlns:svg="http://www.w3.org/2000/svg"
   xmlns="http://www.w3.org/2000/svg"
   xmlns:xlink="http://www.w3.org/1999/xlink"
   id="svg3508"
   height="16"
   width="16"
   version="1.1">
  <defs
     id="defs3510">
    <linearGradient
       gradientTransform="matrix(0.29729729,0,0,0.24324323,0.86615638,3.1621588)"
       gradientUnits="userSpaceOnUse"
       xlink:href="#linearGradient3977-7-7"
       id="linearGradient3174-3"
       y2="40.444462"
       x2="23.99999"
       y1="7.5555696"
       x1="23.99999" />
    <linearGradient
       id="linearGradient3977-7-7">
      <stop
         offset="0"
         style="stop-color:#ffffff;stop-opacity:1"
         id="stop3979-6-6" />
      <stop
         offset="0"
         style="stop-color:#ffffff;stop-opacity:0.23529412"
         id="stop3981-3-44" />
      <stop
         offset="0.99999994"
         style="stop-color:#ffffff;stop-opacity:0.15686275"
         id="stop3983-8-5" />
      <stop
         offset="1"
         style="stop-color:#ffffff;stop-opacity:0.39215687"
         id="stop3985-2-08" />
    </linearGradient>
    <linearGradient
       gradientTransform="matrix(0.37142773,0,0,0.23901171,-0.91426241,2.8970461)"
       gradientUnits="userSpaceOnUse"
       xlink:href="#linearGradient4337"
       id="linearGradient3182-5"
       y2="47.013336"
       x2="25.132275"
       y1="0.98520643"
       x1="25.132275" />
    <linearGradient
       gradientTransform="matrix(0.29013061,0.16750698,-0.10832675,0.18762743,3.8295399,-1.1574107)"
       gradientUnits="userSpaceOnUse"
       xlink:href="#linearGradient5736"
       id="linearGradient4056-1"
       y2="47.013336"
       x2="25.132275"
       y1="0.98520643"
       x1="25.132275" />
    <linearGradient
       id="linearGradient3977-7-1-5">
      <stop
         offset="0"
         style="stop-color:#ffffff;stop-opacity:1"
         id="stop3979-6-5-4" />
      <stop
         offset="0"
         style="stop-color:#ffffff;stop-opacity:0.23529412"
         id="stop3981-3-4-5" />
      <stop
         offset="1"
         style="stop-color:#ffffff;stop-opacity:0.15686275"
         id="stop3983-8-3-2" />
      <stop
         offset="1"
         style="stop-color:#ffffff;stop-opacity:0.39215687"
         id="stop3985-2-1-0" />
    </linearGradient>
    <linearGradient
       gradientTransform="matrix(0.22628434,0.13064532,-0.10661188,0.1846572,5.1283451,0.11973053)"
       gradientUnits="userSpaceOnUse"
       xlink:href="#linearGradient3977-7-1-5"
       id="linearGradient3506"
       y2="40.189606"
       x2="23.99999"
       y1="7.8686738"
       x1="23.99999" />
    <linearGradient
       id="linearGradient5736">
      <stop
         offset="0"
         style="stop-color:#586e75;stop-opacity:1"
         id="stop5738" />
      <stop
         offset="1"
         style="stop-color:#073642;stop-opacity:1"
         id="stop5740" />
    </linearGradient>
    <linearGradient
       id="linearGradient4337">
      <stop
         offset="0"
         style="stop-color:#fdf6e3;stop-opacity:1"
         id="stop4339" />
      <stop
         offset="1"
         style="stop-color:#eee8d5;stop-opacity:1"
         id="stop4341" />
    </linearGradient>
    <linearGradient
       x1="17.231043"
       y1="-2.1010971"
       x2="26.444973"
       y2="55.173134"
       id="linearGradient3192-0-3"
       xlink:href="#linearGradient5736"
       gradientUnits="userSpaceOnUse"
       gradientTransform="matrix(0.34025771,0.09076733,-0.05512078,0.20481361,1.2325009,0.98030894)" />
  </defs>
  <metadata
     id="metadata3513">
    <rdf:RDF>
      <cc:Work
         rdf:about="">
        <dc:format>image/svg+xml</dc:format>
        <dc:type
           rdf:resource="http://purl.org/dc/dcmitype/StillImage" />
        <dc:title></dc:title>
      </cc:Work>
    </rdf:RDF>
  </metadata>
  <path
     style="display:inline;fill:url(#linearGradient4056-1);fill-opacity:1;stroke:none"
     id="path4160-9-79"
     d="M 5.4421027,0.40470439 C 7.7690355,1.7481596 15.596375,6.2679955 15.596375,6.2679955 l -4.985183,8.6346155 c 0,0 -6.7697297,-3.908505 -10.15459442,-5.8627585 C 2.1184309,6.1614725 3.7802646,3.2830921 5.4420987,0.40471124 Z" />
  <path
     style="opacity:0.2;fill:none;stroke:url(#linearGradient3506);stroke-width:0.99999988;stroke-linecap:round;stroke-linejoin:miter;stroke-miterlimit:4;stroke-dasharray:none;stroke-dashoffset:0;stroke-opacity:1"
     id="rect6741-1-2-7"
     d="M 10.214424,13.520086 1.8419033,8.6862091 5.7865435,1.8538916 14.159064,6.6877686 Z" />
  <path
     style="color:#000000;clip-rule:nonzero;display:inline;overflow:visible;visibility:visible;opacity:0.5;isolation:auto;mix-blend-mode:normal;color-interpolation:sRGB;color-interpolation-filters:linearRGB;solid-color:#000000;solid-opacity:1;fill:none;fill-opacity:1;fill-rule:nonzero;stroke:#001921;stroke-width:0.99992186;stroke-linecap:butt;stroke-linejoin:round;stroke-miterlimit:4;stroke-dasharray:none;stroke-dashoffset:0;stroke-opacity:1;marker:none;color-rendering:auto;image-rendering:auto;shape-rendering:auto;text-rendering:auto;enable-background:accumulate"
     id="rect6741-1-2-0-0"
     d="M 10.578814,14.847262 0.49996113,9.0282337 5.4237598,0.49996424 15.502613,6.3189927 Z" />
  <g
     id="g4414">
    <path
       style="display:inline;fill:url(#linearGradient3182-5);fill-opacity:1.0;stroke:none"
       id="path4160-9-97"
       d="m 1.5,3.5 c 2.9789608,0 12.999989,6.82e-4 12.999989,6.82e-4 L 14.5,14.5 c 0,0 -8.6666667,0 -13,0 0,-3.666663 0,-7.3333264 0,-10.999989 z" />
    <path
       style="fill:none;stroke:url(#linearGradient3174-3);stroke-width:1;stroke-linecap:round;stroke-linejoin:miter;stroke-miterlimit:4;stroke-dasharray:none;stroke-dashoffset:0;stroke-opacity:1"
       id="rect6741-1-2-2"
       d="m 13.501286,13.5 -10.9999997,0 0,-9.0000012 10.9999997,0 z" />
    <path
       style="color:#000000;display:inline;overflow:visible;visibility:visible;fill:none;stroke:#aa8e37;stroke-width:0.99992174;stroke-linecap:butt;stroke-linejoin:round;stroke-miterlimit:4;stroke-dasharray:none;stroke-dashoffset:0;stroke-opacity:1;marker:none;enable-background:accumulate;clip-rule:nonzero;opacity:0.5;isolation:auto;mix-blend-mode:normal;color-interpolation:sRGB;color-interpolation-filters:linearRGB;solid-color:#000000;solid-opacity:1;fill-opacity:1;fill-rule:nonzero;filter-blend-mode:normal;filter-gaussianBlur-deviation:0;color-rendering:auto;image-rendering:auto;shape-rendering:auto;text-rendering:auto"
       id="rect6741-1-2-0-7"
       d="m 14.501326,14.50004 -13.0000797,0 0,-11.0000812 13.0000797,0 z" />
  </g>
  <path
     id="path3873-9"
     d="M 7.0117188 6.0019531 C 6.5671755 6.0019575 5.5533715 6.067143 5.3300781 6.203125 C 5.1088306 6.3372771 5.0019531 6.7797365 5.0019531 7.0664062 L 5.0019531 7.8183594 C 5.0019531 7.989263 4.926221 8.1088303 4.7910156 8.1933594 C 4.6578569 8.2760564 4.278511 8.5117207 4.0019531 8.5117188 L 4.0019531 9.4667969 C 4.5468744 9.4667982 5.0019531 9.8203084 5.0019531 10.162109 L 5.0019531 10.867188 C 5.0019531 11.181425 5.1036388 11.614245 5.3105469 11.753906 C 5.5195011 11.895404 6.5384951 11.961168 7.0117188 11.964844 L 7.0117188 11.001953 C 6.7761303 10.998263 6.2490065 10.954137 6.1445312 10.876953 C 6.0400516 10.799773 5.9902344 10.691703 5.9902344 10.541016 L 5.9902344 9.9199219 C 5.9902344 9.5505559 5.433967 9.0681096 4.9648438 9.0019531 L 4.9648438 8.9628906 C 5.433967 8.891225 5.9902344 8.4496781 5.9902344 8.0839844 L 5.9902344 7.4726562 C 5.9902344 7.3219718 6.0400522 7.2218315 6.1445312 7.1464844 C 6.2510557 7.0693074 6.7781792 7.0209107 7.0117188 7.0117188 L 7.0117188 6.0019531 z M 9 6.0019531 L 9 7.0117188 C 9.23354 7.0209107 9.7606635 7.0693074 9.8671875 7.1464844 C 9.9716695 7.2218315 10.021484 7.3219718 10.021484 7.4726562 L 10.021484 8.0839844 C 10.021484 8.4496781 10.579705 8.891225 11.048828 8.9628906 L 11.048828 9.0019531 C 10.579705 9.0681096 10.021484 9.5505559 10.021484 9.9199219 L 10.021484 10.541016 C 10.021484 10.691703 9.9716675 10.799773 9.8671875 10.876953 C 9.7627125 10.954141 9.235589 10.998253 9 11.001953 L 9 11.964844 C 9.473224 11.961168 10.49417 11.895404 10.703125 11.753906 C 10.910033 11.614245 11.009766 11.181425 11.009766 10.867188 L 11.009766 10.162109 C 11.009766 9.8203084 11.466798 9.4667982 12.011719 9.4667969 L 12.011719 8.5117188 C 11.735161 8.5117207 11.353862 8.2760564 11.220703 8.1933594 C 11.085503 8.1088303 11.009766 7.989263 11.009766 7.8183594 L 11.009766 7.0664062 C 11.009766 6.7797365 10.904841 6.3372771 10.683594 6.203125 C 10.4603 6.0671431 9.444543 6.0019575 9 6.0019531 z "
     style="color:#000000;font-style:normal;font-variant:normal;font-weight:600;font-stretch:normal;font-size:19px;line-height:125%;font-family:'Open Sans';-inkscape-font-specification:'Open Sans Semi-Bold';text-align:start;letter-spacing:0px;word-spacing:0px;writing-mode:lr-tb;text-anchor:start;clip-rule:nonzero;display:inline;overflow:visible;visibility:visible;opacity:1;isolation:auto;mix-blend-mode:normal;color-interpolation:sRGB;color-interpolation-filters:linearRGB;solid-color:#000000;solid-opacity:1;fill:url(#linearGradient3192-0-3);fill-opacity:1;fill-rule:nonzero;stroke:none;stroke-width:1;stroke-linecap:butt;stroke-linejoin:miter;stroke-miterlimit:4;stroke-dasharray:none;stroke-dashoffset:0;stroke-opacity:1;marker:none;color-rendering:auto;image-rendering:auto;shape-rendering:auto;text-rendering:auto;enable-background:accumulate" />
</svg>
