<?xml version="1.0" encoding="UTF-8" standalone="no"?>
<svg
   xmlns:dc="http://purl.org/dc/elements/1.1/"
   xmlns:cc="http://creativecommons.org/ns#"
   xmlns:rdf="http://www.w3.org/1999/02/22-rdf-syntax-ns#"
   xmlns:svg="http://www.w3.org/2000/svg"
   xmlns="http://www.w3.org/2000/svg"
   xmlns:xlink="http://www.w3.org/1999/xlink"
   id="svg2526"
   height="32"
   width="32"
   version="1.0">
  <metadata
     id="metadata58">
    <rdf:RDF>
      <cc:Work
         rdf:about="">
        <dc:format>image/svg+xml</dc:format>
        <dc:type
           rdf:resource="http://purl.org/dc/dcmitype/StillImage" />
        <dc:title></dc:title>
      </cc:Work>
    </rdf:RDF>
  </metadata>
  <defs
     id="defs2528">
    <linearGradient
       id="linearGradient4441">
      <stop
         offset="0"
         style="stop-color:#ffffff;stop-opacity:1"
         id="stop4443" />
      <stop
         offset="0"
         style="stop-color:#ffffff;stop-opacity:0.23529412"
         id="stop4445" />
      <stop
         offset="1"
         style="stop-color:#ffffff;stop-opacity:0.15686275"
         id="stop4447" />
      <stop
         offset="1"
         style="stop-color:#ffffff;stop-opacity:0.39215687"
         id="stop4449" />
    </linearGradient>
    <linearGradient
       id="linearGradient5060">
      <stop
         offset="0"
         style="stop-color:#000000;stop-opacity:1"
         id="stop5062" />
      <stop
         offset="1"
         style="stop-color:#000000;stop-opacity:0"
         id="stop5064" />
    </linearGradient>
    <linearGradient
       id="linearGradient5048">
      <stop
         offset="0"
         style="stop-color:#000000;stop-opacity:0"
         id="stop5050" />
      <stop
         offset="0.5"
         style="stop-color:#000000;stop-opacity:1"
         id="stop5056" />
      <stop
         offset="1"
         style="stop-color:#000000;stop-opacity:0"
         id="stop5052" />
    </linearGradient>
    <linearGradient
       gradientTransform="matrix(0.06045202,0,0,0.01647059,-4.754243,20.961096)"
       gradientUnits="userSpaceOnUse"
       xlink:href="#linearGradient5048"
       id="linearGradient3188"
       y2="609.50507"
       x2="302.85715"
       y1="366.64789"
       x1="302.85715" />
    <radialGradient
       gradientTransform="matrix(-0.02008098,0,0,0.01647059,14.60219,20.961131)"
       gradientUnits="userSpaceOnUse"
       xlink:href="#linearGradient5060"
       id="radialGradient3190"
       fy="486.64789"
       fx="605.71429"
       r="117.14286"
       cy="486.64789"
       cx="605.71429" />
    <radialGradient
       gradientTransform="matrix(0.02008097,0,0,0.01647059,17.397992,20.961131)"
       gradientUnits="userSpaceOnUse"
       xlink:href="#linearGradient5060"
       id="radialGradient3192"
       fy="486.64789"
       fx="605.71429"
       r="117.14286"
       cy="486.64789"
       cx="605.71429" />
    <linearGradient
       id="linearGradient3977-8">
      <stop
         id="stop3979-4"
         style="stop-color:#ffffff;stop-opacity:1"
         offset="0" />
      <stop
         id="stop3981-7"
         style="stop-color:#ffffff;stop-opacity:0.23529412"
         offset="0.00000001" />
      <stop
         id="stop3983-56"
         style="stop-color:#ffffff;stop-opacity:0.15686275"
         offset="1" />
      <stop
         id="stop3985-7"
         style="stop-color:#ffffff;stop-opacity:0.39215687"
         offset="1" />
    </linearGradient>
    <linearGradient
       y2="41.695648"
       x2="23.99999"
       y1="9.5217333"
       x1="23.99999"
       gradientTransform="matrix(0.7837838,0,0,0.6216216,-1.8108094,2.081085)"
       gradientUnits="userSpaceOnUse"
       id="linearGradient3296"
       xlink:href="#linearGradient4441" />
    <linearGradient
       y2="47.013336"
       x2="25.132275"
       y1="0.98520643"
       x1="25.132275"
       gradientTransform="matrix(0.88775301,0,0,0.54518426,-4.2703598,3.0337592)"
       gradientUnits="userSpaceOnUse"
       id="linearGradient3299"
       xlink:href="#linearGradient4337" />
    <linearGradient
       y2="51.198704"
       x2="25.581266"
       y1="2.7534974"
       x1="20.384232"
       gradientTransform="matrix(0.83258221,0.14676769,-0.09047962,0.5130025,-0.52156635,-1.4172907)"
       gradientUnits="userSpaceOnUse"
       id="linearGradient4694"
       xlink:href="#linearGradient5736" />
    <linearGradient
       y2="41.732712"
       x2="23.999945"
       y1="9.5244207"
       x1="23.998798"
       gradientTransform="matrix(0.73505278,0.12957563,-0.10279385,0.58281988,1.9292333,-1.869762)"
       gradientUnits="userSpaceOnUse"
       id="linearGradient4696"
       xlink:href="#linearGradient3977-8" />
    <linearGradient
       id="linearGradient5736">
      <stop
         offset="0"
         style="stop-color:#586e75;stop-opacity:1"
         id="stop5738" />
      <stop
         offset="1"
         style="stop-color:#073642;stop-opacity:1"
         id="stop5740" />
    </linearGradient>
    <linearGradient
       id="linearGradient4337">
      <stop
         offset="0"
         style="stop-color:#fdf6e3;stop-opacity:1"
         id="stop4339" />
      <stop
         offset="1"
         style="stop-color:#eee8d5;stop-opacity:1"
         id="stop4341" />
    </linearGradient>
    <linearGradient
       y2="51.198704"
       x2="25.581266"
       y1="2.7534974"
       x1="20.384232"
       gradientTransform="matrix(0.80384891,0.14170306,-0.08623413,0.48892969,0.01288353,0.34249016)"
       gradientUnits="userSpaceOnUse"
       id="linearGradient4496"
       xlink:href="#linearGradient5736" />
  </defs>
  <path
     d="M 4.3149228,2.7983251 C 10.992478,3.9754454 31.512372,7.5942466 31.512372,7.5942466 L 27.695558,29.235077 0.49781674,24.4406 Z"
     id="path4650"
     style="display:inline;fill:url(#linearGradient4694);fill-opacity:1;stroke:none" />
  <path
     d="M 26.924581,28.076401 1.6032823,23.612743 5.0759265,3.9235669 30.397225,8.3872235 Z"
     id="path4652"
     style="opacity:0.2;fill:none;stroke:url(#linearGradient4696);stroke-width:1;stroke-linecap:round;stroke-linejoin:miter;stroke-miterlimit:4;stroke-dasharray:none;stroke-dashoffset:0;stroke-opacity:1" />
  <path
     d="M 4.3034341,2.8206214 C 10.965454,3.9950071 31.500142,7.6165587 31.500142,7.6165587 L 27.697074,29.179346 0.5000549,24.384996 4.3034158,2.8207254 Z"
     id="path4678"
     style="color:#000000;clip-rule:nonzero;display:inline;overflow:visible;visibility:visible;opacity:0.5;isolation:auto;mix-blend-mode:normal;color-interpolation:sRGB;color-interpolation-filters:linearRGB;solid-color:#000000;solid-opacity:1;fill:none;fill-opacity:1;fill-rule:nonzero;stroke:#001921;stroke-width:0.99992186;stroke-linecap:butt;stroke-linejoin:round;stroke-miterlimit:4;stroke-dasharray:none;stroke-dashoffset:0;stroke-opacity:1;marker:none;color-rendering:auto;image-rendering:auto;shape-rendering:auto;text-rendering:auto;enable-background:accumulate" />
  <g
     style="opacity:0.4"
     id="g4468">
    <rect
       style="display:inline;overflow:visible;visibility:visible;fill:url(#linearGradient3188);fill-opacity:1;fill-rule:nonzero;stroke:none;stroke-width:1;marker:none"
       id="rect2879"
       y="27"
       x="2.5"
       height="4"
       width="27" />
    <path
       style="display:inline;overflow:visible;visibility:visible;fill:url(#radialGradient3190);fill-opacity:1;fill-rule:nonzero;stroke:none;stroke-width:1;marker:none"
       id="path2881"
       d="m 2.5001792,27.000173 c 0,0 0,3.99978 0,3.99978 -1.0341207,0.0075 -2.5,-0.896148 -2.5,-2.000148 0,-1.103997 1.1540005,-1.99963 2.5,-1.999632 z" />
    <path
       style="display:inline;overflow:visible;visibility:visible;fill:url(#radialGradient3192);fill-opacity:1;fill-rule:nonzero;stroke:none;stroke-width:1;marker:none"
       id="path2883"
       d="m 29.5,27.000173 c 0,0 0,3.99978 0,3.99978 1.034121,0.0075 2.5,-0.896148 2.5,-2.000148 0,-1.103997 -1.154001,-1.99963 -2.5,-1.999632 z" />
  </g>
  <path
     style="display:inline;fill:url(#linearGradient3299);fill-opacity:1;stroke:none"
     id="path4160"
     d="m 1.5000001,6.5 c 7.1200417,0 28.9999629,0.0016 28.9999629,0.0016 L 30.5,29.5 l -29,0 z" />
  <path
     style="fill:none;stroke:url(#linearGradient3296);stroke-width:0.99999994;stroke-linecap:round;stroke-linejoin:round;stroke-miterlimit:4;stroke-dasharray:none;stroke-dashoffset:0;stroke-opacity:1"
     id="rect6741-1"
     d="m 29.499996,28.499998 -26.9999985,0 0,-21 26.9999985,0 z" />
  <path
     style="color:#000000;font-style:normal;font-variant:normal;font-weight:600;font-stretch:normal;font-size:19px;line-height:125%;font-family:'Open Sans';-inkscape-font-specification:'Open Sans Semi-Bold';text-align:start;letter-spacing:0px;word-spacing:0px;writing-mode:lr-tb;text-anchor:start;clip-rule:nonzero;display:inline;overflow:visible;visibility:visible;opacity:1;isolation:auto;mix-blend-mode:normal;color-interpolation:sRGB;color-interpolation-filters:linearRGB;solid-color:#000000;solid-opacity:1;fill:url(#linearGradient4496);fill-opacity:1;fill-rule:nonzero;stroke:none;stroke-width:1;stroke-linecap:butt;stroke-linejoin:miter;stroke-miterlimit:4;stroke-dasharray:none;stroke-dashoffset:0;stroke-opacity:1;marker:none;color-rendering:auto;image-rendering:auto;shape-rendering:auto;text-rendering:auto;enable-background:accumulate"
     d="m 13.999997,13.96875 c -0.89872,9e-6 -1.892324,0.160004 -2.34375,0.4375 -0.44729,0.273761 -0.65625,0.696249 -0.65625,1.28125 l 0,1.28125 c 0,0.348759 -0.16416,0.577502 -0.4375,0.75 C 10.293294,17.887506 9.5591067,18.000004 8.9999969,18 l 0,1 c 1.1016511,2e-6 2.0000001,0.364993 2.0000001,1.0625 l 0,1.09375 c 0,0.641256 0.2067,1.121244 0.625,1.40625 0.422435,0.288751 1.418299,0.429997 2.375,0.4375 l 0,-1.03125 c -0.476282,-0.0075 -1.476285,-0.0925 -1.6875,-0.25 -0.211223,-0.157501 -0.3125,-0.379997 -0.3125,-0.6875 l 0,-1.1875 c 0,-0.306801 -0.114087,-1.208745 -1.0625,-1.34375 l 0,-0.0625 c 0.948413,-0.146248 1.0625,-0.87352 1.0625,-1.3125 l 0,-1.1875 c 0,-0.307498 0.101283,-0.502491 0.3125,-0.65625 0.215357,-0.157495 1.21536,-0.262493 1.6875,-0.28125 l 0,-1.03125 z m 4,0 0,1.03125 c 0.47214,0.01876 1.472143,0.123755 1.6875,0.28125 0.211217,0.153759 0.3125,0.348752 0.3125,0.65625 l 0,1.1875 c 0,0.43898 0.114087,1.166252 1.0625,1.3125 l 0,0.0625 c -0.948413,0.135005 -1.0625,1.036949 -1.0625,1.34375 l 0,1.1875 c 0,0.307503 -0.101277,0.529999 -0.3125,0.6875 -0.211215,0.157499 -1.211218,0.2425 -1.6875,0.25 l 0,1.03125 c 0.956701,-0.0075 1.952565,-0.148749 2.375,-0.4375 0.4183,-0.285006 0.625,-0.764994 0.625,-1.40625 l 0,-1.09375 c 0,-0.697507 0.898349,-1.062498 2,-1.0625 l 0,-1 c -0.55911,4e-6 -1.293297,-0.112494 -1.5625,-0.28125 -0.27334,-0.172498 -0.4375,-0.401241 -0.4375,-0.75 l 0,-1.28125 c 0,-0.585001 -0.20896,-1.007489 -0.65625,-1.28125 -0.451426,-0.277496 -1.44503,-0.437491 -2.34375,-0.4375 z"
     id="path3826-5" />
  <path
     style="display:inline;fill:none;stroke:#aa8e37;stroke-width:0.99992174;stroke-linecap:butt;stroke-linejoin:round;stroke-miterlimit:4;stroke-dasharray:none;stroke-dashoffset:0;stroke-opacity:1;color:#000000;clip-rule:nonzero;overflow:visible;visibility:visible;opacity:0.5;isolation:auto;mix-blend-mode:normal;color-interpolation:sRGB;color-interpolation-filters:linearRGB;solid-color:#000000;solid-opacity:1;fill-opacity:1;fill-rule:nonzero;marker:none;filter-blend-mode:normal;filter-gaussianBlur-deviation:0;color-rendering:auto;image-rendering:auto;shape-rendering:auto;text-rendering:auto;enable-background:accumulate"
     id="path4160-6-1"
     d="m 1.4999577,6.499957 c 7.103685,0 29.0000463,0.00174 29.0000463,0.00174 l 3.2e-5,22.998342 -29.0000783,0 0,-22.9999301 z" />
</svg>
