<?xml version="1.0" encoding="UTF-8" standalone="no"?>
<svg
   version="1.1"
   width="16"
   height="16"
   id="svg7357"
   xmlns:xlink="http://www.w3.org/1999/xlink"
   xmlns="http://www.w3.org/2000/svg"
   xmlns:svg="http://www.w3.org/2000/svg"
   xmlns:rdf="http://www.w3.org/1999/02/22-rdf-syntax-ns#"
   xmlns:cc="http://creativecommons.org/ns#"
   xmlns:dc="http://purl.org/dc/elements/1.1/">
  <defs
     id="defs7359">
    <linearGradient
       x1="23.99999"
       y1="7.1818099"
       x2="23.99999"
       y2="40.818172"
       id="linearGradient4224"
       xlink:href="#linearGradient3924-4-8"
       gradientUnits="userSpaceOnUse"
       gradientTransform="matrix(0.2972973,0,0,0.2972973,0.86486973,0.86486734)" />
    <linearGradient
       id="linearGradient3924-4-8">
      <stop
         id="stop3926-0-4"
         style="stop-color:#ffffff;stop-opacity:1"
         offset="0" />
      <stop
         id="stop3928-6-8"
         style="stop-color:#ffffff;stop-opacity:0.23529412"
         offset="0" />
      <stop
         id="stop3930-2-1"
         style="stop-color:#ffffff;stop-opacity:0.15686275"
         offset="1" />
      <stop
         id="stop3932-9-0"
         style="stop-color:#ffffff;stop-opacity:0.39215687"
         offset="1" />
    </linearGradient>
    <linearGradient
       xlink:href="#linearGradient3924-4-8"
       id="linearGradient2450"
       gradientUnits="userSpaceOnUse"
       gradientTransform="matrix(0.29687797,0,0,0.29687797,-12.781922,2.6728917)"
       x1="23.99999"
       y1="7.1818099"
       x2="23.99999"
       y2="40.818172" />
    <linearGradient
       y2="47.013336"
       x2="25.132275"
       y1="0.98520643"
       x1="25.132275"
       gradientTransform="matrix(0.37001434,-0.03237206,0.02083124,0.2381022,-2.8177634,3.4093897)"
       gradientUnits="userSpaceOnUse"
       id="linearGradient4526"
       xlink:href="#linearGradient5736" />
    <linearGradient
       id="linearGradient5736">
      <stop
         id="stop5738"
         style="stop-color:#586e75;stop-opacity:1"
         offset="0" />
      <stop
         id="stop5740"
         style="stop-color:#073642;stop-opacity:1"
         offset="1" />
    </linearGradient>
    <linearGradient
       x1="25.132275"
       y1="0.98520643"
       x2="25.132275"
       y2="47.013336"
       id="linearGradient3182-5"
       xlink:href="#linearGradient4337"
       gradientUnits="userSpaceOnUse"
       gradientTransform="matrix(0.37142773,0,0,0.23901171,-1.9142624,2.8970461)" />
    <linearGradient
       id="linearGradient4337">
      <stop
         id="stop4339"
         style="stop-color:#fdf6e3;stop-opacity:1"
         offset="0" />
      <stop
         id="stop4341"
         style="stop-color:#eee8d5;stop-opacity:1"
         offset="1" />
    </linearGradient>
    <linearGradient
       gradientTransform="matrix(0.34025771,0.09076733,-0.05512078,0.20481361,1.2325009,-0.0196911)"
       gradientUnits="userSpaceOnUse"
       xlink:href="#linearGradient5736"
       id="linearGradient3192-0-3"
       y2="55.173134"
       x2="26.444973"
       y1="-2.1010971"
       x1="17.231043" />
  </defs>
  <metadata
     id="metadata7362">
    <rdf:RDF>
      <cc:Work
         rdf:about="">
        <dc:format>image/svg+xml</dc:format>
        <dc:type
           rdf:resource="http://purl.org/dc/dcmitype/StillImage" />
      </cc:Work>
    </rdf:RDF>
  </metadata>
  <rect
     style="color:#000000;font-variation-settings:normal;display:inline;overflow:visible;visibility:visible;vector-effect:none;fill:url(#linearGradient4526);fill-opacity:1;fill-rule:nonzero;stroke:#001921;stroke-width:1;stroke-linecap:butt;stroke-linejoin:round;stroke-miterlimit:4;stroke-dasharray:none;stroke-dashoffset:0;stroke-opacity:0.498039;-inkscape-stroke:none;marker:none;enable-background:accumulate;stop-color:#000000;opacity:1;stop-opacity:1"
     id="rect5505-21-2-7"
     y="3.3071258"
     x="-12.147687"
     ry="2"
     rx="2"
     height="12.981667"
     width="12.981667"
     transform="matrix(-0.96592583,0.25881904,0.25881904,0.96592583,0,0)" />
  <rect
     style="opacity:0.3;fill:none;stroke:url(#linearGradient2450);stroke-width:0.999998;stroke-linecap:round;stroke-linejoin:round;stroke-miterlimit:4;stroke-dasharray:none;stroke-dashoffset:0;stroke-opacity:1"
     id="rect6741-0-3-0"
     y="4.3057151"
     x="-11.149097"
     height="10.984485"
     width="10.984485"
     rx="1"
     ry="1"
     transform="matrix(-0.96592583,0.25881904,0.25881904,0.96592583,0,0)" />
  <rect
     style="color:#000000;display:inline;overflow:visible;visibility:visible;opacity:1;fill:url(#linearGradient3182-5);fill-opacity:1;fill-rule:nonzero;stroke:#aa8e37;stroke-width:1;marker:none;enable-background:accumulate;font-variation-settings:normal;vector-effect:none;stroke-linecap:butt;stroke-linejoin:round;stroke-miterlimit:4;stroke-dasharray:none;stroke-dashoffset:0;stroke-opacity:0.498039;stop-color:#000000;stop-opacity:1;-inkscape-stroke:none"
     id="rect5505-21-2"
     y="1.4999971"
     x="1.5"
     ry="2"
     rx="2"
     height="13.000003"
     width="13.000003" />
  <rect
     style="opacity:1;fill:none;stroke:url(#linearGradient4224);stroke-width:1;stroke-linecap:round;stroke-linejoin:round;stroke-miterlimit:4;stroke-dasharray:none;stroke-dashoffset:0;stroke-opacity:1"
     id="rect6741-0-3"
     y="2.4999971"
     x="2.5"
     height="11"
     width="11"
     rx="1"
     ry="1" />
  <path
     style="display:inline;opacity:0.14;fill:#aa8e37;fill-opacity:1;stroke:none;stroke-width:1.00972"
     id="path6035"
     d="m 3.9999996,3.0019531 h 1.146041 v 1 h -1.146041 z" />
  <path
     style="display:inline;opacity:0.14;fill:#aa8e37;fill-opacity:1;stroke:none;stroke-width:1.00972"
     id="path6033"
     d="m 5.3021501,3.0019531 h 1.0813407 v 1 H 5.3021501 Z" />
  <path
     style="display:inline;opacity:0.14;fill:#aa8e37;fill-opacity:1;stroke:none;stroke-width:1.00972"
     id="path6031"
     d="m 6.5396004,3.0019531 h 0.951932 v 1 h -0.951932 z" />
  <path
     style="display:inline;opacity:0.14;fill:#aa8e37;fill-opacity:1;stroke:none;stroke-width:1.00972"
     id="path6029"
     d="m 7.6476409,3.0019531 h 0.4181293 v 1 H 7.6476409 Z" />
  <path
     style="display:inline;opacity:0.14;fill:#aa8e37;fill-opacity:1;stroke:none;stroke-width:1.00972"
     id="path6027"
     d="m 8.2218848,3.0019531 h 0.9357529 v 1 H 8.2218848 Z" />
  <path
     style="display:inline;opacity:0.14;fill:#aa8e37;fill-opacity:1;stroke:none;stroke-width:1.00972"
     id="path6025"
     d="M 9.3137523,3.0019531 H 11.73768 v 1 H 9.3137523 Z" />
  <path
     style="display:inline;opacity:0.14;fill:#aa8e37;fill-opacity:1;stroke:none;stroke-width:1.00972"
     id="path6017"
     d="m 3.9999996,9.0019531 h 1.146041 v 0.9999999 h -1.146041 z" />
  <path
     style="display:inline;opacity:0.14;fill:#aa8e37;fill-opacity:1;stroke:none;stroke-width:1.00972"
     id="path6015"
     d="M 5.3021491,9.0019531 H 6.3834898 V 10.001953 H 5.3021491 Z" />
  <path
     style="display:inline;opacity:0.14;fill:#aa8e37;fill-opacity:1;stroke:none;stroke-width:1.00972"
     id="path6013"
     d="m 6.5395993,9.0019531 h 0.951931 v 0.9999999 h -0.951931 z" />
  <path
     style="display:inline;opacity:0.14;fill:#aa8e37;fill-opacity:1;stroke:none;stroke-width:1.00972"
     id="path6011"
     d="M 7.6476388,9.0019531 H 8.0657682 V 10.001953 H 7.6476388 Z" />
  <path
     style="display:inline;opacity:0.14;fill:#aa8e37;fill-opacity:1;stroke:none;stroke-width:1.00972"
     id="path6009"
     d="M 8.2218828,9.0019531 H 9.1576346 V 10.001953 H 8.2218828 Z" />
  <path
     style="display:inline;opacity:0.14;fill:#aa8e37;fill-opacity:1;stroke:none;stroke-width:1.00972"
     id="path5999"
     d="m 3.9999996,5.0019531 h 1.7768961 v 1 H 3.9999996 Z" />
  <path
     style="display:inline;opacity:0.14;fill:#aa8e37;fill-opacity:1;stroke:none;stroke-width:1.00972"
     id="path5997"
     d="m 5.9390756,5.0019531 h 0.8548745 v 1 H 5.9390756 Z" />
  <path
     style="display:inline;opacity:0.14;fill:#aa8e37;fill-opacity:1;stroke:none;stroke-width:1.00972"
     id="path5995"
     d="m 6.95613,5.0019531 h 0.4019502 v 1 H 6.95613 Z" />
  <path
     style="display:inline;opacity:0.14;fill:#aa8e37;fill-opacity:1;stroke:none;stroke-width:1.00972"
     id="path5993"
     d="m 7.5202611,5.0019531 h 0.7739961 v 1 H 7.5202611 Z" />
  <path
     style="display:inline;opacity:0.14;fill:#aa8e37;fill-opacity:1;stroke:none;stroke-width:1.00972"
     id="path5991"
     d="m 8.456432,5.0019531 h 0.773996 v 1 H 8.456432 Z" />
  <path
     style="display:inline;opacity:0.14;fill:#aa8e37;fill-opacity:1;stroke:none;stroke-width:1.00972"
     id="path5989"
     d="M 9.3926069,5.0019531 H 10.6357 v 1 H 9.3926069 Z" />
  <path
     style="display:inline;opacity:0.14;fill:#aa8e37;fill-opacity:1;stroke:none;stroke-width:1.00972"
     id="path5981"
     d="M 3.9999996,7.0019531 H 6.035708 v 1 H 3.9999996 Z" />
  <path
     style="display:inline;opacity:0.14;fill:#aa8e37;fill-opacity:1;stroke:none;stroke-width:1.00972"
     id="path5979"
     d="m 6.1952881,7.0019531 h 2.181285 v 1 h -2.181285 z" />
  <path
     style="display:inline;opacity:0.14;fill:#aa8e37;fill-opacity:1;stroke:none;stroke-width:1.00972"
     id="path5977"
     d="m 8.5361532,7.0019531 h 0.8710526 v 1 H 8.5361532 Z" />
  <path
     style="display:inline;opacity:0.14;fill:#aa8e37;fill-opacity:1;stroke:none;stroke-width:1.00972"
     id="path5975"
     d="m 9.5667858,7.0019531 h 2.0518812 v 1 H 9.5667858 Z" />
  <path
     style="display:inline;opacity:0.14;fill:#aa8e37;fill-opacity:1;stroke:none;stroke-width:1.00972"
     id="path2916"
     d="m 3.9999996,11.001953 h 1.146041 v 1 h -1.146041 z" />
  <path
     style="display:inline;opacity:0.14;fill:#aa8e37;fill-opacity:1;stroke:none;stroke-width:1.00972"
     id="path2918"
     d="m 5.3021491,11.001953 h 1.0813407 v 1 H 5.3021491 Z" />
  <path
     style="display:inline;opacity:0.14;fill:#aa8e37;fill-opacity:1;stroke:none;stroke-width:1.00972"
     id="path2920"
     d="m 6.5395993,11.001953 h 0.951931 v 1 h -0.951931 z" />
  <path
     style="color:#000000;font-style:normal;font-variant:normal;font-weight:600;font-stretch:normal;font-size:19px;line-height:125%;font-family:'Open Sans';-inkscape-font-specification:'Open Sans Semi-Bold';text-align:start;letter-spacing:0px;word-spacing:0px;writing-mode:lr-tb;text-anchor:start;clip-rule:nonzero;display:inline;overflow:visible;visibility:visible;isolation:auto;mix-blend-mode:normal;color-interpolation:sRGB;color-interpolation-filters:linearRGB;solid-color:#000000;solid-opacity:1;fill:url(#linearGradient3192-0-3);fill-opacity:1;fill-rule:nonzero;stroke:none;stroke-width:1;stroke-linecap:butt;stroke-linejoin:miter;stroke-miterlimit:4;stroke-dasharray:none;stroke-dashoffset:0;stroke-opacity:1;marker:none;color-rendering:auto;image-rendering:auto;shape-rendering:auto;text-rendering:auto;enable-background:accumulate"
     d="M 7.0117188,5.0019531 C 6.5671755,5.0019575 5.5533715,5.067143 5.3300781,5.203125 5.1088306,5.3372771 5.0019531,5.7797365 5.0019531,6.0664062 v 0.7519532 c 0,0.1709036 -0.075732,0.2904709 -0.2109375,0.375 C 4.6578569,7.2760564 4.278511,7.5117207 4.0019531,7.5117188 v 0.9550781 c 0.5449213,1.3e-6 1,0.3535115 1,0.6953121 v 0.705079 c 0,0.314237 0.1016857,0.747057 0.3085938,0.886718 0.2089542,0.141498 1.2279482,0.207262 1.7011719,0.210938 V 10.001953 C 6.7761303,9.998263 6.2490065,9.954137 6.1445312,9.876953 6.0400516,9.799773 5.9902344,9.691703 5.9902344,9.541016 V 8.9199219 c 0,-0.369366 -0.5562674,-0.8518123 -1.0253906,-0.9179688 V 7.9628906 C 5.433967,7.891225 5.9902344,7.4496781 5.9902344,7.0839844 V 6.4726562 c 0,-0.1506844 0.049818,-0.2508247 0.1542968,-0.3261718 0.1065245,-0.077177 0.633648,-0.1255737 0.8671876,-0.1347656 z m 1.9882812,0 v 1.0097657 c 0.23354,0.00919 0.7606635,0.057589 0.8671875,0.1347656 0.104482,0.075347 0.1542965,0.1754874 0.1542965,0.3261718 v 0.6113282 c 0,0.3656937 0.558221,0.8072406 1.027344,0.8789062 v 0.039063 c -0.469123,0.066156 -1.027344,0.5486028 -1.027344,0.9179688 V 9.541016 c 0,0.150687 -0.049816,0.258757 -0.1542965,0.335937 C 9.7627125,9.954141 9.235589,9.998253 9,10.001953 v 0.962891 c 0.473224,-0.0037 1.49417,-0.06944 1.703125,-0.210938 0.206908,-0.139661 0.306641,-0.572481 0.306641,-0.886718 V 9.162109 c 0,-0.3418006 0.457032,-0.6953108 1.001953,-0.6953121 V 7.5117188 c -0.276558,1.9e-6 -0.657857,-0.2356624 -0.791016,-0.3183594 -0.1352,-0.084529 -0.210937,-0.2040964 -0.210937,-0.375 V 6.0664062 c 0,-0.2866697 -0.104925,-0.7291291 -0.326172,-0.8632812 C 10.4603,5.0671431 9.444543,5.0019575 9,5.0019531 Z"
     id="path3873-9" />
</svg>
