<?xml version="1.0" encoding="UTF-8" standalone="no"?>
<svg
   version="1.1"
   width="48"
   height="48"
   id="svg6649"
   xmlns:xlink="http://www.w3.org/1999/xlink"
   xmlns="http://www.w3.org/2000/svg"
   xmlns:svg="http://www.w3.org/2000/svg"
   xmlns:rdf="http://www.w3.org/1999/02/22-rdf-syntax-ns#"
   xmlns:cc="http://creativecommons.org/ns#"
   xmlns:dc="http://purl.org/dc/elements/1.1/">
  <defs
     id="defs6651">
    <linearGradient
       id="linearGradient1201">
      <stop
         id="stop1193"
         style="stop-color:#ffffff;stop-opacity:1"
         offset="0" />
      <stop
         id="stop1195"
         style="stop-color:#ffffff;stop-opacity:0.23529412"
         offset="0.06781636" />
      <stop
         id="stop1197"
         style="stop-color:#ffffff;stop-opacity:0.15686275"
         offset="0.94694352" />
      <stop
         id="stop1199"
         style="stop-color:#ffffff;stop-opacity:0.39215687"
         offset="1" />
    </linearGradient>
    <linearGradient
       id="linearGradient3688-166-749">
      <stop
         id="stop2883"
         style="stop-color:#181818;stop-opacity:1"
         offset="0" />
      <stop
         id="stop2885"
         style="stop-color:#181818;stop-opacity:0"
         offset="1" />
    </linearGradient>
    <linearGradient
       id="linearGradient3702-501-757">
      <stop
         id="stop2895"
         style="stop-color:#181818;stop-opacity:0"
         offset="0" />
      <stop
         id="stop2897"
         style="stop-color:#181818;stop-opacity:1"
         offset="0.5" />
      <stop
         id="stop2899"
         style="stop-color:#181818;stop-opacity:0"
         offset="1" />
    </linearGradient>
    <radialGradient
       cx="4.9929786"
       cy="43.5"
       r="2.5"
       fx="4.9929786"
       fy="43.5"
       id="radialGradient3013-6"
       xlink:href="#linearGradient3688-166-749"
       gradientUnits="userSpaceOnUse"
       gradientTransform="matrix(2.003784,0,0,0.89999994,29.98813,4.8500025)" />
    <radialGradient
       cx="4.9929786"
       cy="43.5"
       r="2.5"
       fx="4.9929786"
       fy="43.5"
       id="radialGradient3015-1"
       xlink:href="#linearGradient3688-166-749"
       gradientUnits="userSpaceOnUse"
       gradientTransform="matrix(2.003784,0,0,0.89999994,-18.01187,-83.149997)" />
    <linearGradient
       x1="38.999996"
       y1="5.9999938"
       x2="38.999996"
       y2="41.945408"
       id="linearGradient3058-5"
       xlink:href="#linearGradient1201"
       gradientUnits="userSpaceOnUse"
       gradientTransform="translate(4e-6,1.0000062)" />
    <linearGradient
       xlink:href="#linearGradient3702-501-757"
       id="linearGradient1191"
       gradientUnits="userSpaceOnUse"
       x1="25.058096"
       y1="47.027729"
       x2="25.058096"
       y2="39.999443"
       gradientTransform="matrix(1.1428571,0,0,0.6428571,-3.428569,16.035716)" />
    <linearGradient
       xlink:href="#linearGradient1201"
       id="linearGradient9332"
       gradientUnits="userSpaceOnUse"
       gradientTransform="translate(-41.104015,4.8959392)"
       x1="38.999996"
       y1="5.9999938"
       x2="38.999996"
       y2="41.945408" />
    <linearGradient
       y2="47.013336"
       x2="25.132275"
       y1="0.98520643"
       x1="25.132275"
       gradientTransform="matrix(0.93926714,-0.08217523,0.07764373,0.88747188,-0.3744572,2.9513293)"
       gradientUnits="userSpaceOnUse"
       id="linearGradient4522"
       xlink:href="#linearGradient5736" />
    <linearGradient
       id="linearGradient5736">
      <stop
         offset="0"
         style="stop-color:#586e75;stop-opacity:1"
         id="stop5738" />
      <stop
         offset="1"
         style="stop-color:#073642;stop-opacity:1"
         id="stop5740" />
    </linearGradient>
    <linearGradient
       gradientTransform="matrix(0.94285499,0,0,0.89086188,2.371479,1.2526241)"
       gradientUnits="userSpaceOnUse"
       xlink:href="#linearGradient4337"
       id="linearGradient3182-6"
       y2="47.013336"
       x2="25.132275"
       y1="0.98520643"
       x1="25.132275" />
    <linearGradient
       id="linearGradient4337">
      <stop
         offset="0"
         style="stop-color:#fdf6e3;stop-opacity:1"
         id="stop4339" />
      <stop
         offset="1"
         style="stop-color:#eee8d5;stop-opacity:1"
         id="stop4341" />
    </linearGradient>
    <linearGradient
       y2="55.173134"
       x2="26.444973"
       y1="-2.1010971"
       x1="17.231043"
       gradientTransform="matrix(1.1062984,0.29511675,-0.17921718,0.66592164,2.025427,-2.0806204)"
       gradientUnits="userSpaceOnUse"
       id="linearGradient4514"
       xlink:href="#linearGradient5736" />
  </defs>
  <metadata
     id="metadata6654">
    <rdf:RDF>
      <cc:Work
         rdf:about="">
        <dc:format>image/svg+xml</dc:format>
        <dc:type
           rdf:resource="http://purl.org/dc/dcmitype/StillImage" />
      </cc:Work>
    </rdf:RDF>
  </metadata>
  <rect
     style="color:#000000;font-variation-settings:normal;display:inline;overflow:visible;visibility:visible;vector-effect:none;fill:url(#linearGradient4522);fill-opacity:1;fill-rule:nonzero;stroke:#001921;stroke-width:1;stroke-linecap:butt;stroke-linejoin:round;stroke-miterlimit:4;stroke-dasharray:none;stroke-dashoffset:0;stroke-opacity:0.501961;-inkscape-stroke:none;marker:none;enable-background:accumulate;stop-color:#000000;opacity:1;stop-opacity:1"
     id="rect5505-21-1-9"
     y="9.3959284"
     x="-36.604004"
     ry="4"
     rx="4"
     height="39"
     width="39"
     transform="matrix(-0.96592583,0.25881905,0.25881905,0.96592583,0,0)" />
  <rect
     style="fill:none;stroke:url(#linearGradient9332);stroke-width:1;stroke-linecap:round;stroke-linejoin:round;stroke-miterlimit:4;stroke-dasharray:none;stroke-dashoffset:0;stroke-opacity:1;opacity:0.3"
     id="rect6741-2-3"
     y="10.395928"
     x="-35.604004"
     ry="3"
     rx="3"
     height="37"
     width="37"
     transform="matrix(-0.96592583,0.25881905,0.25881905,0.96592583,0,0)" />
  <rect
     style="opacity:0.4;fill:url(#radialGradient3013-6);fill-opacity:1;stroke:none;stroke-width:0.862764"
     id="rect2801-3-7"
     y="41.75"
     x="40"
     height="4.4999995"
     width="5" />
  <rect
     style="opacity:0.4;fill:url(#radialGradient3015-1);fill-opacity:1;stroke:none;stroke-width:0.862764"
     id="rect3696-6-3"
     transform="scale(-1)"
     y="-46.25"
     x="-8"
     height="4.4999995"
     width="5" />
  <rect
     style="opacity:0.4;fill:url(#linearGradient1191);fill-opacity:1;stroke:none;stroke-width:0.862764"
     id="rect3700-4-6"
     y="41.75"
     x="8"
     height="4.5"
     width="32" />
  <rect
     style="color:#000000;display:inline;overflow:visible;visibility:visible;opacity:1;fill:url(#linearGradient3182-6);fill-opacity:1;fill-rule:nonzero;stroke:#99792e;stroke-width:1;stroke-opacity:0.50196099;marker:none;enable-background:accumulate;font-variation-settings:normal;vector-effect:none;stroke-linecap:butt;stroke-linejoin:round;stroke-miterlimit:4;stroke-dasharray:none;stroke-dashoffset:0;-inkscape-stroke:none;stop-color:#000000;stop-opacity:1"
     id="rect5505-21-1"
     y="5.4999952"
     x="4.5000153"
     ry="4"
     rx="4"
     height="39"
     width="39" />
  <rect
     style="opacity:1;fill:none;stroke:url(#linearGradient3058-5);stroke-width:1;stroke-linecap:round;stroke-linejoin:round;stroke-miterlimit:4;stroke-dasharray:none;stroke-dashoffset:0;stroke-opacity:1"
     id="rect6741-2"
     y="6.4999952"
     x="5.5000153"
     ry="3"
     rx="3"
     height="37"
     width="37" />
  <path
     style="opacity:0.2;fill:none;stroke:#aa8e37;stroke-width:1px;stroke-linecap:butt;stroke-linejoin:miter;stroke-opacity:1"
     id="path3715"
     d="m 12,10.546 h 2.34797 m 0.335425,0 h 2.180259 m 0.350956,0 h 1.94546 m 0.319893,0 h 0.83856 m 0.335425,0 h 1.878376 m 0.368967,0 h 4.930738 m 0.335426,0 h 3.756752 m 0.335425,0 h 1.140442 M 12,12.499653 h 3.640632 m 0.423562,0 h 1.739578 m 0.321577,0 h 0.858449 m 0.349272,0 h 1.602407 m 0.335425,0 h 1.643345 m 0.310211,0 h 2.580441 m 0.335426,0 h 3.404208 M 12,14.479681 h 3.081427 m 0.323704,0 h 5.074837 m 0.311031,0 h 2.461185 m 0.315454,0 h 2.30241 m 0.330181,0 h 1.961321 m 0.315454,0 3.084663,0.01997 m -19.561667,2 h 4.284352 m 0.336433,0 h 4.630578 m 0.319893,0 h 1.81966 m 0.335426,0 h 4.331127 m 0.291512,0 h 2.968536 m 0.335426,0 h 1.174909 m 0.335425,0 h 0.649892 m -21.813169,2 h 1.599235 m 0.491344,0 h 5.921499 m -8.012078,10 h 3.640632 m 0.423562,0 h 1.739577 m 0.321577,0 h 0.85845 m 0.349272,0 h 1.602407 m 0.335425,0 h 1.643345 m 0.310211,0 h 2.580441 M 12,32.479679 h 3.081427 m 0.323704,0 h 5.074837 m 0.311031,0 h 2.461185 m 8.697299,0.06136 h 5.026898 M 12,26.499653 h 4.284352 m 0.336433,0 h 4.630578 m 0.319893,0 h 1.81966 m 0.335426,0 h 4.331127 M 12,22.499653 h 2.34797 m 0.335425,0 h 2.180259 m 0.350956,0 h 1.94546 m 0.319893,0 h 0.83856 m 0.335425,0 h 1.878376 m 0.368967,0 h 4.930738 m 0.335426,0 h 3.756752 m -19.924207,2 h 3.954284 m 0.311043,0 h 4.198951 m 0.319893,0 h 1.641931 m 0.310036,0 h 3.950279 m 0.316902,0 h 4.314197 M 12,34.499653 h 3.695207 m 0.396663,0 h 1.629116 m 0.381575,0 h 0.812557 m 0.258655,0 h 1.604035 m 0.212949,0 h 8.492084 m 0.399586,0 h 2.266883 m 0.304807,0 h 0.572374 m -16.81675,2 h 1.20539 m -5.415131,0 h 3.856881 m 1.866532,0 h 2.804548 m 0.29667,0 h 4.116902 m 0.319893,0 h 2.792858 m 0.281139,0 h 0.575511 m 0.314681,0 h 3.546443 m 0.362569,0 h 1.85674 m -18.781626,2 h 1.701949 m -5.91169,0 h 3.856881 m 2.423647,0 h 2.392767" />
  <path
     style="color:#000000;font-style:normal;font-variant:normal;font-weight:600;font-stretch:normal;font-size:19px;line-height:125%;font-family:'Open Sans';-inkscape-font-specification:'Open Sans Semi-Bold';text-align:start;letter-spacing:0px;word-spacing:0px;writing-mode:lr-tb;text-anchor:start;clip-rule:nonzero;display:inline;overflow:visible;visibility:visible;isolation:auto;mix-blend-mode:normal;color-interpolation:sRGB;color-interpolation-filters:linearRGB;solid-color:#000000;solid-opacity:1;fill:#fdffff;fill-opacity:1;fill-rule:nonzero;stroke:none;stroke-width:1;stroke-linecap:butt;stroke-linejoin:miter;stroke-miterlimit:4;stroke-dasharray:none;stroke-dashoffset:0;stroke-opacity:1;marker:none;color-rendering:auto;image-rendering:auto;shape-rendering:auto;text-rendering:auto;enable-background:accumulate"
     d="m 21,18.999653 c -1.445369,1.4e-5 -2.211493,0.214124 -2.9375,0.65625 C 17.343145,20.092079 17,20.786339 17,21.718403 v 1.78125 c 0,0.555667 -0.2479,0.943915 -0.6875,1.21875 -0.432945,0.268875 -0.413312,0.437506 -1.3125,0.4375 v 1.6875 c 1.771732,4e-6 2,0.576183 2,1.6875 v 1.53125 c 0,1.021697 0.32727,1.79591 1,2.25 0.679383,0.46006 1.461383,0.675547 3,0.6875 v -1.625 C 20.234018,31.362703 19.839687,31.219345 19.5,30.968403 19.1603,30.71746 19,30.36459 19,29.874653 v -1.6875 c 0,-1.20094 -0.599714,-1.909901 -2.125,-2.125 v -0.125 C 18.400286,25.70414 19,24.969904 19,23.780903 v -1.65625 c 0,-0.489927 0.1603,-0.81752 0.5,-1.0625 0.346348,-0.250932 0.740679,-0.407615 1.5,-0.4375 z m 6,0 v 1.625 c 0.759321,0.02989 1.153652,0.186568 1.5,0.4375 0.3397,0.24498 0.5,0.572573 0.5,1.0625 v 1.65625 c 0,1.189001 0.599714,1.923237 2.125,2.15625 v 0.125 C 29.599714,26.277252 29,26.986213 29,28.187153 v 1.6875 c 0,0.489937 -0.1603,0.842807 -0.5,1.09375 -0.339687,0.250942 -0.734018,0.3943 -1.5,0.40625 v 1.625 c 1.538617,-0.01195 2.320617,-0.22744 3,-0.6875 0.67273,-0.45409 1,-1.228303 1,-2.25 v -1.53125 c 0,-1.111317 0.228268,-1.687496 2,-1.6875 v -1.6875 c -0.899188,6e-6 -0.879555,-0.168625 -1.3125,-0.4375 C 31.2479,24.443568 31,24.05532 31,23.499653 v -1.78125 c 0,-0.932064 -0.343145,-1.626324 -1.0625,-2.0625 C 29.211493,19.213777 28.445369,18.999667 27,18.999653 Z"
     id="path4544" />
  <path
     id="path3873-9"
     d="m 21,17.999653 c -1.445369,1.4e-5 -2.211493,0.214124 -2.9375,0.65625 C 17.343145,19.092079 17,19.786339 17,20.718403 v 1.78125 c 0,0.555667 -0.2479,0.943915 -0.6875,1.21875 -0.432945,0.268875 -0.413312,0.437506 -1.3125,0.4375 v 1.6875 c 1.771732,4e-6 2,0.576183 2,1.6875 v 1.53125 c 0,1.021697 0.32727,1.79591 1,2.25 0.679383,0.46006 1.461383,0.675547 3,0.6875 v -1.625 C 20.234018,30.362703 19.839687,30.219345 19.5,29.968403 19.1603,29.71746 19,29.36459 19,28.874653 v -1.6875 c 0,-1.20094 -0.599714,-1.909901 -2.125,-2.125 v -0.125 C 18.400286,24.70414 19,23.969904 19,22.780903 v -1.65625 c 0,-0.489927 0.1603,-0.81752 0.5,-1.0625 0.346348,-0.250932 0.740679,-0.407615 1.5,-0.4375 z m 6,0 v 1.625 c 0.759321,0.02989 1.153652,0.186568 1.5,0.4375 0.3397,0.24498 0.5,0.572573 0.5,1.0625 v 1.65625 c 0,1.189001 0.599714,1.923237 2.125,2.15625 v 0.125 C 29.599714,25.277252 29,25.986213 29,27.187153 v 1.6875 c 0,0.489937 -0.1603,0.842807 -0.5,1.09375 -0.339687,0.250942 -0.734018,0.3943 -1.5,0.40625 v 1.625 c 1.538617,-0.01195 2.320617,-0.22744 3,-0.6875 0.67273,-0.45409 1,-1.228303 1,-2.25 v -1.53125 c 0,-1.111317 0.228268,-1.687496 2,-1.6875 v -1.6875 c -0.899188,6e-6 -0.879555,-0.168625 -1.3125,-0.4375 C 31.2479,23.443568 31,23.05532 31,22.499653 v -1.78125 c 0,-0.932064 -0.343145,-1.626324 -1.0625,-2.0625 C 29.211493,18.213777 28.445369,17.999667 27,17.999653 Z"
     style="color:#000000;font-style:normal;font-variant:normal;font-weight:600;font-stretch:normal;font-size:19px;line-height:125%;font-family:'Open Sans';-inkscape-font-specification:'Open Sans Semi-Bold';text-align:start;letter-spacing:0px;word-spacing:0px;writing-mode:lr-tb;text-anchor:start;clip-rule:nonzero;display:inline;overflow:visible;visibility:visible;isolation:auto;mix-blend-mode:normal;color-interpolation:sRGB;color-interpolation-filters:linearRGB;solid-color:#000000;solid-opacity:1;fill:url(#linearGradient4514);fill-opacity:1;fill-rule:nonzero;stroke:none;stroke-width:1;stroke-linecap:butt;stroke-linejoin:miter;stroke-miterlimit:4;stroke-dasharray:none;stroke-dashoffset:0;stroke-opacity:1;marker:none;color-rendering:auto;image-rendering:auto;shape-rendering:auto;text-rendering:auto;enable-background:accumulate" />
</svg>
