<?xml version="1.0" encoding="UTF-8" standalone="no"?>
<svg
   height="16"
   width="16"
   version="1.1"
   id="svg6"
   xmlns="http://www.w3.org/2000/svg"
   xmlns:svg="http://www.w3.org/2000/svg">
  <defs
     id="defs10" />
  <path
     id="rect322"
     style="opacity:1;fill:#555761;stroke:none;stroke-width:1;stroke-linecap:round;-inkscape-stroke:none;stop-color:#000000"
     d="M 4 1 C 2.8920044 1 2 1.8920044 2 3 L 2 13 C 2 14.107996 2.8920044 15 4 15 L 7.6855469 15 A 4.5 4.5 0 0 1 6.7636719 14 L 4 14 C 3.4460024 14 3 13.553996 3 13 L 3 3 C 3 2.4460024 3.4460024 2 4 2 L 12 2 C 12.553996 2 13 2.4460024 13 3 L 13 7.7578125 A 4.5 4.5 0 0 1 14 8.671875 L 14 3 C 14 1.8920044 13.107996 1 12 1 L 4 1 z M 5.25 4 C 5.1119291 4 5 4.1119289 5 4.25 L 5 4.75 C 5 4.8889998 5.1120001 5 5.25 5 L 10.75 5 C 10.888071 5 11 4.8880711 11 4.75 L 11 4.25 C 11 4.1119289 10.888071 4 10.75 4 L 5.25 4 z M 5.25 6 C 5.1119291 6 5 6.1119289 5 6.25 L 5 6.75 C 5 6.8889998 5.1120001 7 5.25 7 L 10.75 7 C 10.888071 7 11 6.8880711 11 6.75 L 11 6.25 C 11 6.1119289 10.888071 6 10.75 6 L 5.25 6 z M 10.5 8 A 3.5 3.5 0 0 0 7 11.5 A 3.5 3.5 0 0 0 10.5 15 A 3.5 3.5 0 0 0 12.685547 14.226562 L 14.792969 15.84375 C 15.122566 16.096744 15.590757 16.034674 15.84375 15.705078 C 16.096743 15.375482 16.034675 14.907291 15.705078 14.654297 L 13.626953 13.058594 A 3.5 3.5 0 0 0 14 11.5 A 3.5 3.5 0 0 0 10.5 8 z M 10.5 9 A 2.5 2.5 0 0 1 13 11.5 A 2.5 2.5 0 0 1 10.5 14 A 2.5 2.5 0 0 1 8 11.5 A 2.5 2.5 0 0 1 10.5 9 z " />
</svg>
