<?xml version="1.0" encoding="UTF-8"?>
<svg width="16" height="16" enable-background="new 0 0 97 97" version="1.1" viewBox="0 0 16 16" xml:space="preserve" xmlns="http://www.w3.org/2000/svg" xmlns:cc="http://creativecommons.org/ns#" xmlns:dc="http://purl.org/dc/elements/1.1/" xmlns:rdf="http://www.w3.org/1999/02/22-rdf-syntax-ns#"><metadata><rdf:RDF><cc:Work rdf:about=""><dc:format>image/svg+xml</dc:format><dc:type rdf:resource="http://purl.org/dc/dcmitype/StillImage"/></cc:Work></rdf:RDF></metadata>

<path d="m8 0c-0.51124 0-1.0223 0.19615-1.4141 0.58789l-1.1445 1.1465 1.4121 1.4121a1.5 1.5 0 0 1 0.64648-0.14648 1.5 1.5 0 0 1 1.5 1.5 1.5 1.5 0 0 1-0.14648 0.64648l2 2a1.5 1.5 0 0 1 0.64648-0.14648 1.5 1.5 0 0 1 1.5 1.5 1.5 1.5 0 0 1-1.5 1.5 1.5 1.5 0 0 1-1.5-1.5 1.5 1.5 0 0 1 0.14648-0.64648l-2-2a1.5 1.5 0 0 1-0.14648 0.058594v4.1738a1.5 1.5 0 0 1 1 1.4141 1.5 1.5 0 0 1-1.5 1.5 1.5 1.5 0 0 1-1.5-1.5 1.5 1.5 0 0 1 1-1.4121v-4.1738a1.5 1.5 0 0 1-1-1.4141 1.5 1.5 0 0 1 0.14648-0.64648l-1.4121-1.4121-4.1465 4.1445c-0.78347 0.78347-0.78347 2.0447 0 2.8281l5.998 5.998c0.78347 0.78348 2.0447 0.78348 2.8281 0l5.998-5.998c0.78348-0.78347 0.78348-2.0447 0-2.8281l-5.998-5.998c-0.39174-0.39174-0.90282-0.58789-1.4141-0.58789z" fill="#555761" stop-color="#000000" style="font-variation-settings:normal"/></svg>
