<?xml version="1.0" encoding="UTF-8" standalone="no"?>
<svg
   height="16"
   width="16"
   version="1.1"
   id="svg6"
   xml:space="preserve"
   xmlns="http://www.w3.org/2000/svg"
   xmlns:svg="http://www.w3.org/2000/svg"><defs
     id="defs10" /><path
     id="rect520-6-7-9"
     style="fill:#555761;stroke-width:1;stop-color:#000000"
     d="M 3.5 2 C 2.6690018 2 2 2.6690024 2 3.5 L 2 12.5 C 2 13.330997 2.6690018 14 3.5 14 L 13.5 14 C 14.330998 14 15 13.330997 15 12.5 L 15 3.5 C 15 2.6690024 14.330998 2 13.5 2 L 3.5 2 z M 3.5 3 L 13.5 3 C 13.777 3 14 3.2230009 14 3.5 L 14 9 L 3 9 L 3 3.5 C 3 3.2230009 3.2230003 3 3.5 3 z M 3 10 L 14 10 L 14 12.5 C 14 12.777 13.777 13 13.5 13 L 3.5 13 C 3.2230003 13 3 12.777 3 12.5 L 3 10 z " /><path
     style="opacity:0.25;fill:#555761;stroke-width:1;stop-color:#000000"
     d="M 14,12.5 V 10 H 3 v 2.5 C 3,12.777 3.223,13 3.5,13 h 10 c 0.276999,0 0.5,-0.223 0.5,-0.5 z"
     id="path416" /></svg>
