<?xml version="1.0" encoding="UTF-8" standalone="no"?>
<svg
   xmlns:dc="http://purl.org/dc/elements/1.1/"
   xmlns:cc="http://creativecommons.org/ns#"
   xmlns:rdf="http://www.w3.org/1999/02/22-rdf-syntax-ns#"
   xmlns:svg="http://www.w3.org/2000/svg"
   xmlns="http://www.w3.org/2000/svg"
   xmlns:xlink="http://www.w3.org/1999/xlink"
   id="svg3130"
   height="64"
   width="64"
   version="1.1">
  <defs
     id="defs3132">
    <linearGradient
       id="linearGradient4220">
      <stop
         id="stop4222"
         style="stop-color:#ffffff;stop-opacity:1"
         offset="0" />
      <stop
         id="stop4224"
         style="stop-color:#ffffff;stop-opacity:0.23529412"
         offset="0" />
      <stop
         id="stop4226"
         style="stop-color:#ffffff;stop-opacity:0.15686275"
         offset="1" />
      <stop
         id="stop4228"
         style="stop-color:#ffffff;stop-opacity:0.39215687"
         offset="1" />
    </linearGradient>
    <linearGradient
       id="linearGradient5769">
      <stop
         id="stop5771"
         style="stop-color:#ffffff;stop-opacity:1"
         offset="0" />
      <stop
         id="stop5773"
         style="stop-color:#ffffff;stop-opacity:0.23529412"
         offset="0" />
      <stop
         id="stop5775"
         style="stop-color:#ffffff;stop-opacity:0.15686275"
         offset="1" />
      <stop
         id="stop5777"
         style="stop-color:#ffffff;stop-opacity:0.39215687"
         offset="1" />
    </linearGradient>
    <linearGradient
       id="linearGradient5736">
      <stop
         id="stop5738"
         style="stop-color:#586e75;stop-opacity:1"
         offset="0" />
      <stop
         id="stop5740"
         style="stop-color:#073642;stop-opacity:1"
         offset="1" />
    </linearGradient>
    <linearGradient
       id="linearGradient4337">
      <stop
         id="stop4339"
         style="stop-color:#fdf6e3;stop-opacity:1"
         offset="0" />
      <stop
         id="stop4341"
         style="stop-color:#eee8d5;stop-opacity:1"
         offset="1" />
    </linearGradient>
    <linearGradient
       gradientTransform="matrix(1.4324324,0,0,1.135135,-2.37882,10.25677)"
       gradientUnits="userSpaceOnUse"
       xlink:href="#linearGradient5769"
       id="linearGradient4277-0"
       y2="42.059517"
       x2="41.19519"
       y1="5.9404655"
       x1="41.19519" />
    <linearGradient
       gradientTransform="matrix(1.5714252,0,0,0.95604679,-5.7142,13.088186)"
       gradientUnits="userSpaceOnUse"
       xlink:href="#linearGradient4337"
       id="linearGradient4285-6"
       y2="47.013336"
       x2="25.132275"
       y1="0.98520643"
       x1="25.132275" />
    <radialGradient
       gradientTransform="matrix(1.3372494,0,0,0.0835781,5.8771,56.6209)"
       gradientUnits="userSpaceOnUse"
       xlink:href="#radialGradient3109-470-9-6"
       id="radialGradient4291-0"
       fy="40.430397"
       fx="19.53446"
       r="23.929714"
       cy="40.430397"
       cx="19.53446" />
    <radialGradient
       gradientTransform="matrix(1.1294118,0,0,0.2823525,-58.729414,19.694118)"
       gradientUnits="userSpaceOnUse"
       id="radialGradient3109-470-9-6"
       r="10.625"
       cy="4.625"
       cx="62.625">
      <stop
         offset="0"
         style="stop-color:#000000;stop-opacity:1"
         id="stop5165-6-1" />
      <stop
         offset="1"
         style="stop-color:#000000;stop-opacity:0"
         id="stop5167-3-5" />
    </radialGradient>
    <linearGradient
       gradientTransform="matrix(1.5454924,0.41094535,-0.25487529,0.94416349,1.4241534,-0.58808471)"
       gradientUnits="userSpaceOnUse"
       xlink:href="#linearGradient5736"
       id="linearGradient4298-4-4"
       y2="53.809238"
       x2="26.233234"
       y1="-0.56293511"
       x1="17.266434" />
    <linearGradient
       y2="54.477512"
       x2="26.343443"
       y1="-1.6629155"
       x1="17.233864"
       gradientTransform="matrix(1.5163817,0.4032233,-0.24859898,0.92087263,1.95455,0.18711798)"
       gradientUnits="userSpaceOnUse"
       id="linearGradient5857"
       xlink:href="#linearGradient5736" />
    <linearGradient
       gradientTransform="matrix(1.351649,0.35944737,-0.28700522,1.0630562,6.4480996,-0.76061)"
       gradientUnits="userSpaceOnUse"
       xlink:href="#linearGradient4220"
       id="linearGradient4294-6"
       y2="41.923149"
       x2="41.194515"
       y1="5.9921069"
       x1="41.140911" />
  </defs>
  <metadata
     id="metadata3135">
    <rdf:RDF>
      <cc:Work
         rdf:about="">
        <dc:format>image/svg+xml</dc:format>
        <dc:type
           rdf:resource="http://purl.org/dc/dcmitype/StillImage" />
        <dc:title></dc:title>
      </cc:Work>
    </rdf:RDF>
  </metadata>
  <path
     d="M 11.614391,5.8352936 C 23.514835,8.9998551 63.546448,19.647871 63.546448,19.647871 L 52.400689,60.933383 c 0,0 -34.621871,-9.206669 -51.93280871,-13.809993 C 4.183373,33.360707 7.8988757,19.598026 11.614379,5.835335 Z"
     id="path4160-9-4-5"
     style="color:#000000;clip-rule:nonzero;display:inline;overflow:visible;visibility:visible;opacity:1;isolation:auto;mix-blend-mode:normal;color-interpolation:sRGB;color-interpolation-filters:linearRGB;solid-color:#000000;solid-opacity:1;fill:url(#linearGradient4298-4-4);fill-opacity:1;fill-rule:nonzero;stroke:none;stroke-width:1;stroke-linecap:butt;stroke-linejoin:miter;stroke-miterlimit:4;stroke-dasharray:none;stroke-dashoffset:0;stroke-opacity:1;color-rendering:auto;image-rendering:auto;shape-rendering:auto;text-rendering:auto;enable-background:accumulate" />
  <path
     d="M 52.386252,60.88327 0.48795973,47.08182 11.61285,5.8756602 63.511142,19.6771 Z"
     id="rect6741-1-2-0-6-5"
     style="color:#000000;clip-rule:nonzero;display:inline;overflow:visible;visibility:visible;opacity:0.5;isolation:auto;mix-blend-mode:normal;color-interpolation:sRGB;color-interpolation-filters:linearRGB;solid-color:#000000;solid-opacity:1;fill:none;fill-opacity:1;fill-rule:nonzero;stroke:#001921;stroke-width:0.99992186;stroke-linecap:butt;stroke-linejoin:round;stroke-miterlimit:4;stroke-dasharray:none;stroke-dashoffset:0;stroke-opacity:1;marker:none;color-rendering:auto;image-rendering:auto;shape-rendering:auto;text-rendering:auto;enable-background:accumulate" />
  <path
     d="M 51.695462,59.69578 1.6844495,46.39623 12.30364,7.0631495 62.314651,20.3627 Z"
     id="rect6741-1-2-8-7"
     style="opacity:0.2;fill:none;stroke:url(#linearGradient4294-6);stroke-width:1;stroke-linecap:round;stroke-linejoin:miter;stroke-miterlimit:4;stroke-dasharray:none;stroke-dashoffset:0;stroke-opacity:1" />
  <path
     d="m 63.99955,60 a 32,2.0000002 0 0 1 -64,0 32,2.0000002 0 1 1 64,0 z"
     id="path5050-1-5"
     style="color:#000000;display:inline;overflow:visible;visibility:visible;opacity:0.2;fill:url(#radialGradient4291-0);fill-opacity:1;fill-rule:nonzero;stroke:none;stroke-width:0.99992174;marker:none;enable-background:accumulate" />
  <path
     d="m 4.5,15.5 c 12.60329,0 54.99994,0.0031 54.99994,0.0031 L 59.5,59.5 c 0,0 -36.66667,0 -55,0 0,-14.666653 0,-29.333306 0,-43.999959 z"
     id="path4160-9-48-5"
     style="display:inline;fill:url(#linearGradient4285-6);fill-opacity:1;stroke:none" />
  <path
     d="m 59.49959,59.50004 -55.00008,0 0,-44.00008 55.00008,0 z"
     id="rect6741-1-2-0-9-2"
     style="color:#000000;clip-rule:nonzero;display:inline;overflow:visible;visibility:visible;opacity:0.5;isolation:auto;mix-blend-mode:normal;color-interpolation:sRGB;color-interpolation-filters:linearRGB;solid-color:#000000;solid-opacity:1;fill:none;fill-opacity:1;fill-rule:nonzero;stroke:#aa8e37;stroke-width:0.99992174;stroke-linecap:butt;stroke-linejoin:round;stroke-miterlimit:4;stroke-dasharray:none;stroke-dashoffset:0;stroke-opacity:1;marker:none;color-rendering:auto;image-rendering:auto;shape-rendering:auto;text-rendering:auto;enable-background:accumulate" />
  <path
     d="m 58.49955,58.5 -53,0 0,-42 53,0 z"
     id="rect6741-1-2-3-4"
     style="fill:none;stroke:url(#linearGradient4277-0);stroke-width:1;stroke-linecap:round;stroke-linejoin:miter;stroke-miterlimit:4;stroke-dasharray:none;stroke-dashoffset:0;stroke-opacity:1" />
  <path
     id="path3873-9-5-7"
     d="m 26.99955,29.5 c -1.44537,1.4e-5 -2.21149,0.214124 -2.9375,0.65625 -0.71935,0.436176 -1.0625,1.130436 -1.0625,2.0625 l 0,2.78125 c 0,0.555667 -0.2479,0.943915 -0.6875,1.21875 -0.43294,0.268875 -1.41331,0.437506 -2.3125,0.4375 l 0,1.6875 c 1.77173,4e-6 3,0.576183 3,1.6875 l 0,2.53125 c 0,1.021697 0.32727,1.79591 1,2.25 0.67938,0.46006 1.46139,0.675547 3,0.6875 l 0,-1.625 c -0.76598,-0.01195 -1.16031,-0.155308 -1.5,-0.40625 -0.3397,-0.250943 -0.5,-0.603813 -0.5,-1.09375 l 0,-2.6875 c 0,-1.20094 -0.59971,-1.909901 -2.125,-2.125 l 0,-0.125 c 1.52529,-0.233013 2.125,-0.967249 2.125,-2.15625 l 0,-2.65625 c 0,-0.489927 0.1603,-0.81752 0.5,-1.0625 0.34635,-0.250932 0.74068,-0.407615 1.5,-0.4375 l 0,-1.625 z m 10,0 0,1.625 c 0.75932,0.02989 1.15365,0.186568 1.5,0.4375 0.3397,0.24498 0.5,0.572573 0.5,1.0625 l 0,2.65625 c 0,1.189001 0.59972,1.923237 2.125,2.15625 l 0,0.125 c -1.52528,0.215099 -2.125,0.92406 -2.125,2.125 l 0,2.6875 c 0,0.489937 -0.1603,0.842807 -0.5,1.09375 -0.33969,0.250942 -0.73402,0.3943 -1.5,0.40625 l 0,1.625 c 1.53862,-0.01195 2.32062,-0.22744 3,-0.6875 0.67273,-0.45409 1,-1.228303 1,-2.25 l 0,-2.53125 c 0,-1.111317 1.22827,-1.687496 3,-1.6875 l 0,-1.6875 c -0.89919,6e-6 -1.87955,-0.168625 -2.3125,-0.4375 C 41.24745,35.943915 40.99955,35.555667 40.99955,35 l 0,-2.78125 c 0,-0.932064 -0.34314,-1.626324 -1.0625,-2.0625 C 39.21104,29.714124 38.44492,29.500014 36.99955,29.5 Z"
     style="color:#000000;font-style:normal;font-variant:normal;font-weight:600;font-stretch:normal;font-size:19px;line-height:125%;font-family:'Open Sans';-inkscape-font-specification:'Open Sans Semi-Bold';text-align:start;letter-spacing:0px;word-spacing:0px;writing-mode:lr-tb;text-anchor:start;clip-rule:nonzero;display:inline;overflow:visible;visibility:visible;opacity:1;isolation:auto;mix-blend-mode:normal;color-interpolation:sRGB;color-interpolation-filters:linearRGB;solid-color:#000000;solid-opacity:1;fill:url(#linearGradient5857);fill-opacity:1;fill-rule:nonzero;stroke:none;stroke-width:1;stroke-linecap:butt;stroke-linejoin:miter;stroke-miterlimit:4;stroke-dasharray:none;stroke-dashoffset:0;stroke-opacity:1;marker:none;color-rendering:auto;image-rendering:auto;shape-rendering:auto;text-rendering:auto;enable-background:accumulate" />
</svg>
